<svg xmlns="http://www.w3.org/2000/svg" viewBox="0 0 623.13 623.13"><defs><style>.cls-1,.cls-14,.cls-16,.cls-17{fill:#f8e3e3;}.cls-18,.cls-2{fill:none;}.cls-3{fill:#dfdfdf;}.cls-4{fill:#f5f5f5;}.cls-5{fill:#455a64;}.cls-6{fill:#456352;}.cls-7{fill:#fff;}.cls-13,.cls-8{fill:#e90022;}.cls-9{opacity:0.3;}.cls-10{fill:#263238;}.cls-11{opacity:0.2;}.cls-12{fill:#ca515b;}.cls-13,.cls-14{fill-rule:evenodd;}.cls-15,.cls-17{opacity:0.6;}.cls-16{opacity:0.8;}.cls-18{stroke:#fff;stroke-miterlimit:10;stroke-width:0.2px;}.cls-19{fill:#ea0022;}</style></defs><title>1</title><g id="Character"><ellipse class="cls-1" cx="311.56" cy="580.5" rx="271.34" ry="9.34"/><path class="cls-2" d="M454,225.74a23.45,23.45,0,0,1,4.36-4.48l-1.06-5.69,8.79-3.79,3.41,4.68a23.67,23.67,0,0,1,6.24-.09L479,211.6l8.9,3.54-.9,5.71a23.45,23.45,0,0,1,4.48,4.36l5.69-1.06,3.78,8.79-4.67,3.41a23.67,23.67,0,0,1,.09,6.24l4.77,3.27-3.54,8.9-5.72-.9a23.7,23.7,0,0,1-4.35,4.48l1.06,5.69-8.79,3.79-3.41-4.68a23.68,23.68,0,0,1-6.24.09L466.84,268,458,264.46l.89-5.72a23.34,23.34,0,0,1-4.47-4.35l-5.69,1.06-3.79-8.79,4.68-3.41a23.68,23.68,0,0,1-.09-6.24l-4.77-3.28,3.54-8.89,5.71.9Zm9.56,9.86a10.27,10.27,0,1,0,13.34-5.75A10.28,10.28,0,0,0,463.52,235.6Z"/><path class="cls-3" d="M463.52,235.6a3,3,0,0,1,.22-.63,8,8,0,0,1,.91-1.66,10.12,10.12,0,0,1,5.6-4,10.37,10.37,0,0,1,4.84-.24,10.57,10.57,0,0,1,5,2.45,10.39,10.39,0,0,1,3.22,5.23,10.51,10.51,0,0,1-4.63,11.64,10.42,10.42,0,0,1-5.94,1.59,10.61,10.61,0,0,1-5.31-1.66A10.41,10.41,0,0,1,462.77,238a8,8,0,0,1,.48-1.83,2.43,2.43,0,0,1,.27-.6c.08,0-.3.86-.5,2.46a10.24,10.24,0,0,0,1.46,6.5,10,10,0,0,0,3.24,3.28,10.15,10.15,0,0,0,5,1.51,9.93,9.93,0,0,0,5.58-1.53,9.92,9.92,0,0,0,4.35-10.93,9.92,9.92,0,0,0-3-4.94,10,10,0,0,0-4.7-2.36,9.87,9.87,0,0,0-4.61.15,10.25,10.25,0,0,0-5.52,3.72C463.89,234.76,463.59,235.63,463.52,235.6Z"/><path class="cls-3" d="M454,225.74l-.36,0-1.08-.14-4.29-.62.12-.06c-.9,2.28-2.07,5.29-3.49,8.92l-.06-.2,4.79,3.25.1.06,0,.12a23.93,23.93,0,0,0,.11,6.19l0,.13-.1.07L445,246.85l.08-.29c1.2,2.77,2.47,5.71,3.81,8.79l-.29-.16,5.69-1.07.16,0,.1.13a23.87,23.87,0,0,0,4.43,4.3l.14.1,0,.17c-.28,1.77-.58,3.72-.89,5.71l-.18-.32,8.9,3.53-.37.11,3.27-4.77.1-.16.19,0a23.65,23.65,0,0,0,6.16-.1l.19,0,.12.16,3.41,4.67-.39-.1,8.79-3.79-.19.36c-.34-1.8-.7-3.74-1.06-5.69l0-.2.16-.12a23,23,0,0,0,4.28-4.41h0c.63-.26.17-.08.32-.13h.17l.18,0,.36.06.72.11,1.43.23,2.85.44-.36.21q1.8-4.51,3.54-8.9l.12.39-4.77-3.27-.16-.11,0-.2a23,23,0,0,0-.08-6.15l0-.2.16-.11,4.68-3.4-.11.38q-1.94-4.51-3.77-8.8l.33.18-5.69,1.05-.18,0-.11-.14a23.34,23.34,0,0,0-4.41-4.31l-.14-.1,0-.17q.46-2.94.91-5.71l.17.29-8.89-3.55.3-.1c-1.15,1.68-2.24,3.25-3.29,4.76l-.08.12h-.14a23.55,23.55,0,0,0-6.18.06l-.13,0-.08-.1-3.39-4.69.24.06-8.82,3.75.09-.17c.41,2.28.74,4.14,1,5.7v.07l-.05,0a24.21,24.21,0,0,0-3.41,3.22l-.75.89a2.67,2.67,0,0,1-.26.29,2.53,2.53,0,0,1,.21-.33c.15-.21.38-.52.71-.92a23.47,23.47,0,0,1,3.37-3.31l0,.1-1.1-5.68,0-.12.11,0L466,211.6l.14-.06.1.13,3.42,4.66-.2-.08a23.92,23.92,0,0,1,6.3-.12l-.23.11,3.26-4.78.12-.17.19.07,8.9,3.52.2.08,0,.22c-.29,1.86-.58,3.76-.89,5.72l-.11-.28a24.19,24.19,0,0,1,4.54,4.4l-.29-.1,5.69-1.07.24,0,.09.23q1.86,4.29,3.8,8.79l.1.23-.2.15-4.68,3.41.13-.31a23.92,23.92,0,0,1,.1,6.33l-.14-.31,4.77,3.27.22.15-.1.24q-1.74,4.4-3.54,8.9l-.09.25-.26,0-2.85-.45-1.44-.23-.71-.11-.36-.06-.18,0-.09,0h-.09l.32-.13h0a23.5,23.5,0,0,1-4.41,4.54l.12-.32c.37,2,.73,3.89,1.06,5.69l.05.25-.24.11-8.8,3.78-.23.1-.16-.2c-1.17-1.62-2.33-3.22-3.4-4.68l.3.12a23.57,23.57,0,0,1-6.32.09l.3-.14-3.28,4.77-.14.2-.23-.09-8.89-3.55-.22-.09,0-.23c.31-2,.62-3.94.9-5.71l.11.27a24,24,0,0,1-4.52-4.41l.27.1-5.69,1.05-.21,0-.08-.19-3.76-8.8-.08-.17.15-.11,4.69-3.4-.09.21a23.39,23.39,0,0,1-.06-6.3l.08.19-4.76-3.3-.11-.07.05-.13c1.47-3.61,2.68-6.6,3.6-8.87l0-.08h.08l4.23.72,1.1.2A2.09,2.09,0,0,1,454,225.74Z"/><path class="cls-3" d="M463.52,235.6s.16-.41.57-1.14a10.45,10.45,0,0,1,2.33-2.84,10.24,10.24,0,1,1,5.8,18,10.37,10.37,0,0,1-9.21-7.61,10.65,10.65,0,0,1-.39-3.28,11.57,11.57,0,0,1,.2-1.66c.06-.27.12-.55.19-.82l.11-.4.05-.19,0-.09v0a.32.32,0,0,0,.22.28l.39-.15a6.73,6.73,0,0,0-.47,1.27,9.72,9.72,0,0,0,.38,6.26,10.1,10.1,0,0,0,3.89,4.7,10.35,10.35,0,0,0,5.69,1.63,10.26,10.26,0,1,0-1.61-20.43,10.4,10.4,0,0,0-5.28,2.36,9.86,9.86,0,0,0-2.33,2.87,7,7,0,0,0-.42.87,1.64,1.64,0,0,1-.14.31,1.17,1.17,0,0,1,.07-.33,7.23,7.23,0,0,1,.37-.91,9.63,9.63,0,0,1,2.28-3,10.59,10.59,0,0,1,13-.75,10.81,10.81,0,0,1,4.61,8.24,11,11,0,0,1-1.07,5.3,10.84,10.84,0,0,1-9.51,6.11,10.87,10.87,0,0,1-6-1.71,10.73,10.73,0,0,1-4.16-5,10.35,10.35,0,0,1-.41-6.67,6.68,6.68,0,0,1,.54-1.43l.13-.24.26.09a.37.37,0,0,1,.23.33v.09l0,.08,0,.11-.06.19-.1.39c-.07.26-.13.51-.18.77a10.67,10.67,0,0,0-.19,1.57,9.78,9.78,0,0,0,9,10.23,9.74,9.74,0,0,0,6.6-17.51,9.93,9.93,0,0,0-7.09-1.91,10.3,10.3,0,0,0-5.19,2.19,10.54,10.54,0,0,0-2.37,2.72C463.76,235.23,463.58,235.64,463.52,235.6Z"/><path class="cls-3" d="M454,225.74l-5.78-.93.08-.05-3.62,9.07-.05-.14,4.87,3.35-.2.17c0-.05-.05-.11-.08-.17l.27,0a23.47,23.47,0,0,0,.08,6.25l-.3,0,.08-.19.24.19-4.82,3.5.06-.2,3.93,9.12-.22-.12,5.88-1.09,0,.39-.23-.09.23-.31a23.87,23.87,0,0,0,4.48,4.36l-.33.25-.1-.24.42-.05c-.29,1.8-.61,3.84-.93,5.92l-.14-.24,9.29,3.69-.28.09,3.39-4.95.31.36-.26.12-.08-.47a23.93,23.93,0,0,0,6.25-.09l-.06.48-.27-.11.3-.39,3.55,4.87-.32-.09,9.22-4-.16.3c-.34-1.8-.72-3.85-1.11-5.92l.54.05c0,.09-.07.19-.11.29l-.43-.32a23.62,23.62,0,0,0,4.36-4.49l.33.44-.28.12-.07-.55,5.95.93-.32.18c1.15-2.88,2.42-6.09,3.71-9.34l.11.36-5-3.4.44-.37.13.27-.58.09a23.84,23.84,0,0,0-.09-6.24l.58.08-.11.27-.47-.37,4.86-3.54-.1.37L497,224l.35.18-5.9,1.11.05-.61.26.1-.37.49a23.35,23.35,0,0,0-4.47-4.33l.49-.38c0,.07.06.16.1.24l-.61.07c.28-1.83.6-3.86.91-5.91l.2.35-9.25-3.65.39-.12-3.37,4.92-.4-.48.2-.09.1.62a24,24,0,0,0-6.21.11l.08-.62.18.07-.39.5-3.51-4.78.4.11-9,3.92.19-.36c.35,1.82.73,3.8,1.12,5.79l-.64-.06,0-.09.51.37a21.92,21.92,0,0,0-3.75,3.82l-.27.35s0,0-.06,0h-.11c.1,0-.3-.34-.43-.19l-.07,0,0,0s0,0,0,0l.57-.68c.39-.46.79-.92,1.21-1.35a25.26,25.26,0,0,1,2.68-2.4l-.13.32c-.34-1.94-.69-3.85-1-5.75l.62.09-.08.15-.42-.46,8.81-3.75,0,.62-.21-.06.36-.51c1.15,1.61,2.31,3.2,3.46,4.79l-.32-.14a24.14,24.14,0,0,1,6.52-.07l-.31.14q1.7-2.44,3.36-4.87l.36.5-.27.08,0-.61,8.89,3.56-.4.46-.15-.27.59-.11q-.46,3-.93,5.87l-.12-.31a23.79,23.79,0,0,1,4.7,4.59l-.31-.12,5.85-1.08-.09.59-.3-.16.44-.4,3.77,8.8-.58,0,.09-.34.48.33-4.82,3.51.12-.29a23.89,23.89,0,0,1,.09,6.59l-.13-.29,4.91,3.38-.45.33-.11-.35.56,0-3.55,8.89-.41-.36.32-.18.1.54-5.89-.93.27-.11a23.71,23.71,0,0,1-4.6,4.72l.1-.28c.38,2,.74,4,1.09,5.87L488,264l.17-.32.35.38-8.79,3.78,0-.49.35.09-.28.41L476.28,263l.24.1a23.06,23.06,0,0,1-6.57.09l.24-.1L466.81,268l-.26-.37.32-.1V268l-8.9-3.54.28-.32.16.29-.42.07.93-5.86.08.2a23.63,23.63,0,0,1-4.68-4.55l.2.07-5.84,1.09.06-.36.25.14-.26.24-3.79-8.79.32,0-.07.25-.26-.18,4.77-3.48-.06.15a23.12,23.12,0,0,1-.1-6.45l.06.13-4.86-3.33.18-.13,0,.18h-.22c1.53-3.88,2.66-6.73,3.53-8.9l.1.09-.1.05,0-.13,5.72.88a12.87,12.87,0,0,1-1.42-.15l-4.32-.59-.21,0,.19-.1.1-.06.18-.1-.08.19L445,233.83l-.12.32-.1-.33-.06-.17-.1-.32.28.18c1.36.93,2.84,1.92,4.88,3.3l.07.05v.08a23.46,23.46,0,0,0,.13,6.37l0,.09-.08.06-4.75,3.5-.4.29.13-.47.07-.25.13-.47.19.45,3.83,8.77.22.5-.49-.25-.25-.14-.48-.25.53-.11,5.83-1.1.12,0,.08.1a22.92,22.92,0,0,0,4.62,4.46l.1.07,0,.13c-.28,1.84-.57,3.72-.9,5.87l-.1.64-.32-.56-.16-.28-.32-.56.6.24,8.9,3.51.64.25-.66.2-.32.1-.66.2.39-.56c1.07-1.56,2.15-3.16,3.36-4.92l.08-.12H470a23.28,23.28,0,0,0,6.44-.1l.15,0,.09.13,3.52,4.81.44.61-.72-.2-.35-.1-.72-.19.69-.3,8.79-3.8.71-.31-.37.69-.17.32-.36.69-.15-.77c-.35-1.9-.71-3.82-1.1-5.86l0-.17.14-.1a23.26,23.26,0,0,0,4.49-4.63l.1-.13.17,0,5.89.92.82.13-.72.41-.32.18-.72.41.3-.77c1.16-2.9,2.33-5.85,3.54-8.89l.31-.79.25.81c0,.11.07.23.11.35l.24.81-.7-.48L495.86,243l-.15-.11,0-.18a23.52,23.52,0,0,0-.09-6.43l0-.18.15-.11,4.82-3.51.71-.52-.23.86c0,.11-.06.22-.1.33l-.23.86-.35-.82-3.78-8.79-.36-.82.79.42.3.16.8.42-.89.16-5.85,1.09-.19,0-.11-.15a23.16,23.16,0,0,0-4.59-4.47l-.15-.11,0-.19c.31-1.95.62-3.9.93-5.87l.14-.9.46.79.15.27.46.8-.86-.34-8.89-3.56-.86-.34.88-.27.27-.08.89-.28-.52.77-3.36,4.87-.11.16-.2,0a23.22,23.22,0,0,0-6.34.07l-.2,0-.12-.16c-1.14-1.59-2.3-3.18-3.46-4.78l-.54-.76.9.25.21.06.91.25-.87.37L457.44,216l-.86.36.44-.82.07-.15.45-.84.17.94c.34,1.9.69,3.81,1,5.75l0,.2-.16.12a23,23,0,0,0-2.6,2.34c-.41.42-.8.85-1.18,1.31l-.58.7-.06.06,0,0-.07,0c-.13.15-.53-.21-.44-.19h0v-.07a1.8,1.8,0,0,1,.05-.19,1.35,1.35,0,0,1,.18-.36l.28-.37a22.54,22.54,0,0,1,3.87-3.93l.94-.75-.42,1.12,0,.09-.41,1.1-.22-1.15c-.38-2-.77-4-1.12-5.79l0-.25.24-.11,9-3.92.24-.11.15.21,3.51,4.78.7,1-1.09-.46-.19-.08-1.07-.45,1.15-.18a24,24,0,0,1,6.38-.1l1.17.13-1.07.49-.2.09-1.06.48.66-1c1.15-1.7,2.31-3.39,3.36-4.93l.15-.21.24.09,9.25,3.66.24.1,0,.25c-.32,2-.63,4.08-.92,5.91l-.18,1.14-.43-1.07a2.44,2.44,0,0,1-.1-.24l-.43-1.06.91.68a24.06,24.06,0,0,1,4.59,4.46l.71.89-1.07-.4-.25-.1-1.06-.4,1.11-.2,5.9-1.11.25,0,.1.23,4,9.19.1.23-.2.15-4.86,3.54-.88.64.42-1,.12-.27.42-1,.16,1.08a24.19,24.19,0,0,1,.09,6.4l-.13,1.07-.44-1-.13-.27-.44-1,.89.61,5,3.41.2.13-.09.22c-1.29,3.25-2.57,6.45-3.72,9.33l-.08.22-.23,0-5.95-.93-1-.16.95-.39.28-.12.94-.38-.61.83a24.24,24.24,0,0,1-4.46,4.57l-.78.61.35-.93c0-.1.08-.2.11-.29l.35-.93.18,1c.39,2.07.76,4.12,1.1,5.92l0,.22-.2.08-9.23,4-.19.09-.12-.17-3.54-4.87-.54-.75.85.36.27.11.84.36-.9.13a24.11,24.11,0,0,1-6.39.08l-.87-.11.8-.36.26-.12.81-.36-.5.73-3.41,4.94-.11.16-.17-.07-9.29-3.73-.17-.06,0-.18c.34-2.08.66-4.12.95-5.92l.12-.76.29.71.1.25.29.71-.62-.46a24,24,0,0,1-4.54-4.45l-.45-.58.68.26.24.09.68.26-.72.13-5.88,1.07-.15,0-.06-.14-3.88-9.14-.06-.12.11-.08,4.83-3.48.46-.33-.22.51c0,.07-.05.13-.08.19l-.22.52-.08-.56a24,24,0,0,1-.05-6.33l.06-.49.2.45.08.16.2.46-.41-.29-4.84-3.37-.08-.06,0-.09,3.7-9,0,0h.06l4.32.77,1.08.21A2.82,2.82,0,0,1,454,225.74Z"/><path class="cls-3" d="M156.76,265.9a10,10,0,0,1,1.5-2.18l-.85-2.3,3.4-2.2,1.76,1.71a9.41,9.41,0,0,1,2.59-.48l1-2.23,4,.85,0,2.44a10.41,10.41,0,0,1,2.18,1.5l2.3-.84,2.2,3.4-1.71,1.75a9.8,9.8,0,0,1,.48,2.6l2.23,1-.85,4-2.45,0a9.94,9.94,0,0,1-1.49,2.17l.84,2.3-3.4,2.21-1.75-1.71a10.22,10.22,0,0,1-2.6.48l-1,2.22-4-.85,0-2.44a9.75,9.75,0,0,1-2.17-1.5l-2.3.85-2.21-3.4,1.71-1.76a10.22,10.22,0,0,1-.48-2.59l-2.22-1,.84-4,2.45,0Zm4.69,3.43a4.35,4.35,0,1,0,5.16-3.34A4.35,4.35,0,0,0,161.45,269.33Z"/><path class="cls-3" d="M161.45,269.33a3.19,3.19,0,0,1,.31-1,4.33,4.33,0,0,1,2.05-2.07,4.42,4.42,0,0,1,4.25.22,4.28,4.28,0,0,1,1,.83,4,4,0,0,1,.73,1.12,4.43,4.43,0,0,1,.3,2.77,4.5,4.5,0,0,1-1.4,2.4,4.36,4.36,0,0,1-2.36,1.08,4.41,4.41,0,0,1-4-1.53,4.34,4.34,0,0,1-1-2.72,3.31,3.31,0,0,1,.14-1.07s-.07.38,0,1.06a4.33,4.33,0,0,0,2.66,3.76,4.16,4.16,0,0,0,2.21.27,4.12,4.12,0,0,0,1.17-.34,4,4,0,0,0,1.06-.69,4.23,4.23,0,0,0,1-4.89,4,4,0,0,0-.69-1.06,3.82,3.82,0,0,0-.92-.79,4.26,4.26,0,0,0-4.05-.26,4.29,4.29,0,0,0-2,1.95C161.54,269,161.48,269.34,161.45,269.33Z"/><path class="cls-3" d="M156.76,265.9h-.61l-1.84.05,0,0c-.21,1-.48,2.36-.82,4l0-.07,2.22,1,0,0v0a10.27,10.27,0,0,0,.49,2.58l0,0,0,0-1.7,1.76v-.11c.69,1.07,1.43,2.2,2.21,3.39l-.12,0,2.3-.85.06,0,0,0a9.5,9.5,0,0,0,2.15,1.48l.06,0v.07c0,.75,0,1.59,0,2.44l-.08-.1,4,.84-.13.06,1-2.22,0-.07h.08a10,10,0,0,0,2.56-.48l.07,0,.05.05,1.76,1.71-.15,0,3.39-2.2,0,.14-.85-2.29,0-.08L173,277a9.75,9.75,0,0,0,1.48-2.15h0l0-.07h.07l2.45,0-.12.1q.44-2,.84-4l.07.14-2.22-1-.07,0v-.08a9.57,9.57,0,0,0-.47-2.56l0-.07,0-.05c.57-.6,1.14-1.18,1.71-1.76l0,.15-2.2-3.4.14,0-2.3.85-.07,0-.05,0a9.74,9.74,0,0,0-2.15-1.49l0,0v-.06c0-.84,0-1.66,0-2.45l.08.1-4-.85.11-.06-1,2.22,0,0h-.05a10.28,10.28,0,0,0-2.58.47l-.05,0,0,0-1.75-1.71h.09l-3.41,2.19,0-.07c.33.92.6,1.68.83,2.31v0l0,0a10.2,10.2,0,0,0-1.2,1.58l-.24.43-.09.14a.66.66,0,0,1,.07-.15c0-.1.12-.25.23-.44a9.37,9.37,0,0,1,1.17-1.62v0c-.23-.62-.52-1.37-.86-2.29v0l0,0,3.39-2.22,0,0,0,0,1.76,1.71-.08,0a10.15,10.15,0,0,1,2.62-.49l-.08.05c.33-.71.66-1.44,1-2.23l0-.07.08,0,4,.84h.08v.09c0,.79,0,1.6,0,2.44l-.06-.09a9.79,9.79,0,0,1,2.2,1.51l-.11,0,2.3-.85.08,0,.05.07,2.21,3.4,0,.08-.06.07-1.71,1.75,0-.12a10.54,10.54,0,0,1,.49,2.63l-.08-.1,2.23,1,.09,0,0,.1c-.28,1.3-.56,2.62-.85,4l0,.1H177l-2.44,0,.1-.07h0a10,10,0,0,1-1.51,2.2l0-.13.85,2.3,0,.09-.08.05-3.4,2.21-.08,0-.07-.07L168.67,280l.13,0a9.69,9.69,0,0,1-2.63.48l.1-.06-1,2.22,0,.08-.09,0-4-.85-.09,0v-.08c0-.86,0-1.69,0-2.45l.06.09a10.21,10.21,0,0,1-2.19-1.51l.1,0-2.3.84-.07,0,0-.06c-.78-1.2-1.51-2.33-2.2-3.41l0-.06.05-.05,1.71-1.74,0,.08a10.14,10.14,0,0,1-.47-2.62l0,.06-2.22-1,0,0v0l.86-4v0h2.48Z"/><path class="cls-3" d="M519.28,236.25a10,10,0,0,1,1.84-1.89l-.45-2.41,3.73-1.6,1.44,2a9.71,9.71,0,0,1,2.64,0l1.38-2,3.77,1.5-.38,2.42a9.7,9.7,0,0,1,1.89,1.84l2.41-.45,1.6,3.72-2,1.44a9.72,9.72,0,0,1,0,2.64l2,1.39-1.5,3.76-2.42-.38a9.75,9.75,0,0,1-1.84,1.9l.45,2.4-3.72,1.61-1.44-2a9.72,9.72,0,0,1-2.64,0l-1.39,2L521,252.64l.38-2.42a10.37,10.37,0,0,1-1.9-1.84l-2.4.44-1.61-3.72,2-1.44a10.13,10.13,0,0,1,0-2.64l-2-1.38,1.49-3.77,2.42.38Zm4.05,4.17A4.34,4.34,0,1,0,529,238,4.35,4.35,0,0,0,523.33,240.42Z"/><path class="cls-3" d="M523.33,240.42a3.31,3.31,0,0,1,.48-1,4.35,4.35,0,0,1,4.41-1.79,4.39,4.39,0,0,1,2.11,1,4.15,4.15,0,0,1,.82,1,4.26,4.26,0,0,1,.54,1.23,4.48,4.48,0,0,1-.17,2.77,4.42,4.42,0,0,1-1.79,2.13,3.82,3.82,0,0,1-1.23.53,4,4,0,0,1-1.27.15,4.42,4.42,0,0,1-3.66-2.18,4.35,4.35,0,0,1-.56-2.86,3.33,3.33,0,0,1,.32-1,10,10,0,0,0-.22,1.05,4.3,4.3,0,0,0,.61,2.75,4.16,4.16,0,0,0,1.38,1.39,4.21,4.21,0,0,0,2.14.65,4.16,4.16,0,0,0,1.2-.15,3.85,3.85,0,0,0,1.16-.5,4.21,4.21,0,0,0,1.85-4.64,3.94,3.94,0,0,0-.5-1.17,3.9,3.9,0,0,0-.78-.93,4.23,4.23,0,0,0-2-1,4.27,4.27,0,0,0-4.29,1.65A9.52,9.52,0,0,0,523.33,240.42Z"/><path class="cls-3" d="M519.28,236.25h-.15l-.46-.07-1.81-.26,0,0c-.38,1-.87,2.23-1.48,3.77l0-.08,2,1.38,0,0v0a9.63,9.63,0,0,0,0,2.62v0l0,0-2,1.45,0-.11,1.62,3.72-.11-.06,2.4-.46h.07l0,.05a9.88,9.88,0,0,0,1.88,1.82l.05,0v.06c-.11.75-.24,1.58-.37,2.42l-.07-.12,3.76,1.5-.13,0,1.38-2,0-.06h.07a10.42,10.42,0,0,0,2.61,0h.07l0,.06,1.45,2-.15,0,3.72-1.6-.07.14c-.14-.76-.3-1.59-.45-2.41V250l0,0a9.51,9.51,0,0,0,1.82-1.87h0l0-.06h.07l2.42.38-.13.08c.5-1.28,1-2.53,1.49-3.77l0,.15-2-1.39-.06,0v-.07a9.9,9.9,0,0,0,0-2.61v-.07l.06-.05,2-1.44,0,.15c-.54-1.27-1.08-2.52-1.6-3.73l.13.07-2.41.45h-.06l-.05-.05a9.52,9.52,0,0,0-1.87-1.83l0,0v-.06c.13-.83.26-1.63.39-2.42l.06.11-3.76-1.5.11,0-1.39,2,0,0h0a9.52,9.52,0,0,0-2.62,0h-.05l0,0-1.43-2,.08,0L520.7,232l0-.06c.17,1,.31,1.75.43,2.41v0l0,0a10.68,10.68,0,0,0-1.45,1.36l-.31.38-.11.12.09-.14c.07-.08.16-.22.3-.39a10.08,10.08,0,0,1,1.43-1.39l0,0c-.12-.65-.27-1.44-.46-2.4v0l0,0,3.72-1.62,0,0,0,0,1.44,2-.07,0a9.77,9.77,0,0,1,2.66-.05l-.09,0,1.38-2,.05-.07.07,0,3.77,1.49.07,0v.08c-.12.79-.25,1.59-.38,2.42l0-.1a10.22,10.22,0,0,1,1.92,1.86l-.11,0,2.41-.45.09,0,0,.08c.53,1.21,1.06,2.45,1.61,3.72l0,.09-.08.06-2,1.44,0-.12a10,10,0,0,1,0,2.68l-.05-.12,2,1.39.08.05,0,.09-1.49,3.77,0,.09-.1,0-2.42-.37.12-.05h0a9.65,9.65,0,0,1-1.86,1.91l0-.12c.16.83.31,1.65.45,2.41l0,.1-.09,0-3.72,1.6-.09,0-.06-.08-1.44-2,.11,0a10.41,10.41,0,0,1-2.67,0l.11,0-1.38,2-.06.08-.08,0-3.76-1.5-.09,0,0-.09c.13-.84.26-1.67.38-2.42l0,.1a10,10,0,0,1-1.91-1.86l.1,0-2.41.44H517l0-.07-1.6-3.72,0-.07.06,0,2-1.43,0,.07a10.34,10.34,0,0,1,0-2.66l0,.07-2-1.39,0,0,0,0,1.52-3.75v0h0l1.79.3.46.09Z"/><path class="cls-4" d="M501.15,183.73a16.83,16.83,0,0,1,3.08-3.17l-.75-4,6.22-2.68,2.41,3.31a16.68,16.68,0,0,1,4.41-.07l2.32-3.37,6.29,2.5-.63,4a16.78,16.78,0,0,1,3.16,3.08l4-.75,2.68,6.22-3.3,2.41a16.75,16.75,0,0,1,.06,4.42l3.37,2.31-2.5,6.29-4-.63a16.48,16.48,0,0,1-3.08,3.16l.75,4-6.22,2.68L517,210.18a16.68,16.68,0,0,1-4.41.06l-2.32,3.38L504,211.11l.63-4a16.48,16.48,0,0,1-3.16-3.08l-4,.75-2.68-6.22,3.3-2.41a16.68,16.68,0,0,1-.06-4.41l-3.37-2.32,2.5-6.29,4,.64Zm6.76,7a7.26,7.26,0,1,0,9.44-4.06A7.27,7.27,0,0,0,507.91,190.7Z"/><path class="cls-4" d="M507.91,190.7a5.53,5.53,0,0,1,.8-1.61,7.24,7.24,0,0,1,4-2.83,7.33,7.33,0,0,1,3.42-.17,7.42,7.42,0,0,1,3.52,1.73,7.09,7.09,0,0,1,1.39,1.63,7,7,0,0,1,.88,2.06,7.38,7.38,0,0,1-3.26,8.2,7.27,7.27,0,0,1-4.18,1.12,7.48,7.48,0,0,1-3.75-1.16,7.3,7.3,0,0,1-2.37-2.47,7.17,7.17,0,0,1-.93-4.78,5.52,5.52,0,0,1,.52-1.72s-.22.61-.36,1.74a7.29,7.29,0,0,0,1,4.61,7.09,7.09,0,0,0,2.3,2.33,7.17,7.17,0,0,0,3.58,1.07,7.23,7.23,0,0,0,4-1.08,7.07,7.07,0,0,0,3.08-7.76,6.63,6.63,0,0,0-.83-2,6.53,6.53,0,0,0-1.3-1.55,7.16,7.16,0,0,0-10.51,1.08C508.17,190.11,508,190.72,507.91,190.7Z"/><path class="cls-4" d="M501.15,183.73l-.25,0-.77-.1-3-.44.07,0-2.47,6.3,0-.12,3.38,2.3.06,0v.07a16.59,16.59,0,0,0,.08,4.38v.08l-.07.05c-1,.76-2.14,1.57-3.3,2.42l.05-.18,2.7,6.22-.18-.1,4-.76.1,0,.06.09a16.85,16.85,0,0,0,3.14,3l.09.06,0,.11c-.19,1.25-.41,2.63-.63,4l-.11-.2,6.29,2.5-.23.07,2.31-3.38.07-.1.12,0A16.41,16.41,0,0,0,517,210l.12,0,.07.1,2.41,3.31-.24-.07,6.22-2.68-.12.23c-.24-1.28-.5-2.65-.75-4l0-.12.1-.08a16.39,16.39,0,0,0,3-3.12h0l.08-.11.12,0,4,.64-.22.13c.84-2.13,1.68-4.23,2.5-6.29l.08.24L531,195.82l-.1-.07,0-.13a16.73,16.73,0,0,0-.06-4.36l0-.12.1-.07,3.31-2.41-.07.24-2.67-6.22.21.11-4,.75-.12,0-.07-.09a16.35,16.35,0,0,0-3.12-3.05l-.09-.07,0-.1c.22-1.39.43-2.73.64-4l.11.18-6.29-2.51.19-.06c-.82,1.18-1.58,2.3-2.32,3.37l0,.07h-.09a16.79,16.79,0,0,0-4.38.05h-.08l0-.06-2.4-3.32.15,0-6.23,2.65.05-.1.73,4v0l0,0a16.86,16.86,0,0,0-2.41,2.27l-.53.63-.18.21a1.58,1.58,0,0,1,.15-.23c.11-.15.27-.37.51-.65a15.45,15.45,0,0,1,2.38-2.34l0,.06c-.21-1.09-.46-2.41-.77-4l0-.08.07,0,6.21-2.7.09,0,.06.08,2.42,3.3-.13-.06a16.84,16.84,0,0,1,4.45-.08l-.14.07,2.31-3.38.07-.11.12.05,6.3,2.49.12.05,0,.14c-.2,1.31-.41,2.66-.63,4l-.07-.17a16.84,16.84,0,0,1,3.21,3.11l-.18-.07,4-.75.15,0,.06.14q1.3,3,2.69,6.21l.06.15-.13.09-3.31,2.42.09-.2a17.13,17.13,0,0,1,.06,4.47l-.08-.19,3.37,2.31.14.1-.07.15-2.5,6.29-.06.16-.16,0-4-.63.2-.09h0A16.89,16.89,0,0,1,525,207l.07-.2c.26,1.38.52,2.75.75,4l0,.16-.15.07-6.22,2.67-.15.07-.09-.13c-.84-1.14-1.66-2.28-2.41-3.31l.19.08a16.8,16.8,0,0,1-4.47.06l.19-.09-2.32,3.38-.09.12-.14,0c-2.18-.88-4.31-1.73-6.29-2.51l-.14-.06,0-.15c.22-1.4.44-2.78.64-4l.07.18a17.28,17.28,0,0,1-3.2-3.12l.17.06-4,.74-.13,0-.06-.12q-1.39-3.28-2.66-6.23l-.05-.11.1-.07L498,196l0,.13a16.64,16.64,0,0,1-.05-4.45l.05.12-3.36-2.33-.07-.05,0-.07c1-2.56,1.89-4.68,2.54-6.28l0,0h.05l3,.5.78.14Z"/><path class="cls-3" d="M231.35,484.78s0-.58,0-1.69,0-2.75,0-4.89c0-4.3,0-10.61-.06-18.71,0-16.2-.08-39.53-.14-68.18l.26.25-161.56.08h0l.33-.33c0,33.08,0,64.69,0,93.47l-.31-.3,116.2.14,33.37.09,8.9,0h2.3l.8,0s-.25,0-.76,0l-2.27,0-8.83,0-33.3.08-116.41.15h-.31v-.31c0-28.78,0-60.39,0-93.47V391h.34l161.56.07h.25v.26c-.06,28.71-.1,52.1-.13,68.33,0,8.08-.05,14.37-.07,18.66,0,2.12,0,3.74,0,4.85S231.35,484.78,231.35,484.78Z"/><path class="cls-3" d="M231.41,402.62c0,.19-36.14.34-80.71.34S70,402.81,70,402.62s36.13-.33,80.71-.33S231.41,402.44,231.41,402.62Z"/><rect class="cls-4" x="83.77" y="418.04" width="49.91" height="49.91"/><path class="cls-3" d="M219.63,426.27a3.81,3.81,0,0,1-.73.07l-2.11.06-7.74.1-25.54.1L158,426.5l-7.74-.1-2.11-.06a3.81,3.81,0,0,1-.73-.07,3,3,0,0,1,.73-.07l2.11-.06L158,426l25.54-.1,25.54.1,7.74.1,2.11.06A3,3,0,0,1,219.63,426.27Z"/><path class="cls-3" d="M221.24,437.42a3.7,3.7,0,0,1-.75.06l-2.16.07-7.91.1-26.1.1-26.12-.1-7.91-.1-2.15-.07a3.7,3.7,0,0,1-.75-.06,2.62,2.62,0,0,1,.75-.07l2.15-.06,7.91-.11,26.12-.09,26.1.09,7.91.11,2.16.06A2.62,2.62,0,0,1,221.24,437.42Z"/><path class="cls-3" d="M221.24,448.57a3.7,3.7,0,0,1-.75.06l-2.16.06-7.91.11-26.1.1-26.12-.1-7.91-.11-2.15-.06a3.7,3.7,0,0,1-.75-.06,2.62,2.62,0,0,1,.75-.07l2.15-.06,7.91-.11,26.12-.09,26.1.09,7.91.11,2.16.06A2.62,2.62,0,0,1,221.24,448.57Z"/><path class="cls-3" d="M221.24,459.71a2.62,2.62,0,0,1-.75.07l-2.16.06-7.91.11-26.1.09L158.2,460l-7.91-.11-2.15-.06a2.62,2.62,0,0,1-.75-.07,3.7,3.7,0,0,1,.75-.06l2.15-.07,7.91-.1,26.12-.1,26.1.1,7.91.1,2.16.07A3.7,3.7,0,0,1,221.24,459.71Z"/><path class="cls-5" d="M486.72,559.24c-1-3.85,1.58-7.7,4.42-10.48s6.24-5.25,7.73-8.94c2.42-6-.74-13.73,3.36-18.69,2.41-2.93,6.7-3.88,8.85-7a16.17,16.17,0,0,0,1.94-5.59,56.93,56.93,0,0,1,14.31-26.41,49.48,49.48,0,0,1-5.7,25.5c-1.67,3.13-3.71,6.17-4.27,9.67-.92,5.68,2.22,11.56.79,17.13-1.64,6.38-8.83,10.61-9.21,17.18-.32,5.56,4.5,10.46,4.11,16a15,15,0,0,1-2.51,6.57c-4.34,7.12-10.68,12-20.25,11.79l-11.69.25Z"/><path class="cls-6" d="M474,585.5c-7.63-4.6-9.75-18.42-6.51-26.71s8.87-15.85,9.78-24.71c.7-6.81-1.49-13.81.14-20.46,2.19-9,11-15.88,10.95-25.12,0-5.18-2.95-10.07-2.68-15.25.32-6.35,5.22-11.36,8.28-16.94,4.66-8.53,5-18.65,6.66-28.25s5.35-19.85,13.89-24.52c1.21,8.16,3.32,13.75,2.58,24.79-.26,4-4.91,11.53-5.59,20.22-.4,5.19-.69,10.39-1,15.59s-.69,10.21-2.53,14.93c-1.41,3.62-3.66,6.9-4.71,10.64-2,7,.52,14.67-1.09,21.8-1.36,6-5.57,11.22-6.46,17.35-1.25,8.61,4.27,17.59,1.37,25.79-1.44,4.07-4.81,7.32-5.79,11.53-.75,3.26,0,6.72-.66,10-1.1,5.28-11.21,9.67-16.59,9.32"/><path class="cls-7" d="M509.31,413.8l-.06.46c-.06.34-.13.77-.21,1.32-.2,1.16-.46,2.87-.84,5.08s-1.07,4.68-1.73,7.67-1.39,6.42-2.13,10.29-1.47,8.15-2.26,12.76a144.82,144.82,0,0,1-3,14.38c-.63,2.39-1.31,4.77-1.91,7.32s-1.07,5.3-1.48,8.15c-.78,5.72-1.72,11.65-2.77,17.62-2.15,11.89-4.2,23.23-6.06,33.54l-5.05,27.31c-1.43,7.73-2.6,14-3.42,18.4-.4,2.13-.71,3.8-.94,5-.1.54-.19,1-.25,1.3s-.13.78-.13.77.06-.5.11-.79.13-.77.23-1.31c.21-1.2.51-2.89.89-5,.8-4.41,1.94-10.7,3.35-18.45s3.12-17.07,5-27.35l6-33.54q1.57-9,2.76-17.56c.42-2.86.89-5.71,1.52-8.31s1.3-5,1.93-7.36a142,142,0,0,0,3-14.21c.79-4.6,1.54-8.9,2.29-12.77s1.48-7.32,2.17-10.3,1.36-5.44,1.76-7.6.67-3.88.88-5c.1-.54.17-1,.23-1.31Z"/><path class="cls-7" d="M331.21,542.36a.57.57,0,0,1,.82.4.56.56,0,0,1-.74.53.56.56,0,0,1-.12-.9"/><path class="cls-8" d="M442.71,167.54l19.47,8.75s-30.41,43.34-36.69,50.32-67.69,15.66-67.69,15.66l-2.94-25.68,52.35-8.91Z"/><path class="cls-7" d="M422.69,228.66c-.12,0-.25-1.54-.91-3.93a26.46,26.46,0,0,0-1.51-4.07,29.85,29.85,0,0,0-2.69-4.57,29.48,29.48,0,0,0-3.53-4,26.82,26.82,0,0,0-3.41-2.68c-2.08-1.37-3.51-2-3.46-2.08a3.58,3.58,0,0,1,1,.34,18.76,18.76,0,0,1,2.67,1.34,24.86,24.86,0,0,1,3.57,2.62,27.8,27.8,0,0,1,3.66,4,27.27,27.27,0,0,1,2.71,4.71,24,24,0,0,1,1.4,4.2,17.8,17.8,0,0,1,.46,2.95A3.14,3.14,0,0,1,422.69,228.66Z"/><path class="cls-7" d="M418.68,218.86a12,12,0,0,1-1.95.67c-1.27.39-3.12.92-5.41,1.54-4.58,1.24-10.94,2.82-18,4.32S379.74,228,375,228.7c-2.34.35-4.25.61-5.56.76a11.56,11.56,0,0,1-2.06.18,12.27,12.27,0,0,1,2-.43l5.53-1c4.67-.83,11.11-2,18.18-3.5s13.45-3,18.05-4.12l5.46-1.34A13.3,13.3,0,0,1,418.68,218.86Z"/><path class="cls-7" d="M447.66,170.36c.14.12-7.73,9.25-17.58,20.4s-17.95,20.09-18.09,20,7.74-9.26,17.59-20.41S447.53,170.24,447.66,170.36Z"/><path class="cls-7" d="M422.91,201.2a.53.53,0,1,1,.08.93.56.56,0,0,1-.08-.93"/><path class="cls-7" d="M391,221.86a.53.53,0,1,1,.08.93.55.55,0,0,1-.08-.93"/><path class="cls-7" d="M406.36,218.46a.53.53,0,1,1,.08.93.56.56,0,0,1-.08-.93"/><path class="cls-7" d="M431.61,191.44a.53.53,0,1,1,.08.93.56.56,0,0,1-.08-.93"/><path class="cls-7" d="M440.73,181.1a.56.56,0,0,1,.81.4.55.55,0,0,1-.74.53.56.56,0,0,1-.12-.9"/><g class="cls-9"><path class="cls-7" d="M404.15,210.29c.14.9-7.75,2.93-17.63,4.53s-18,2.16-18.16,1.26,7.74-2.93,17.63-4.53S404,209.39,404.15,210.29Z"/></g><path class="cls-7" d="M377.77,224.23a.56.56,0,0,1,.81.4.53.53,0,1,1-.85-.37"/><path class="cls-10" d="M349.38,212.88c5.23-1.95,11.5.11,15.06,4.41a17.65,17.65,0,0,1,3,15.81c-1.51,5.37-8.67,12.62-13.52,14.64"/><path class="cls-8" d="M467.32,170.36a39.9,39.9,0,0,0,4.29-7,13.48,13.48,0,0,0,1.18-8,8.21,8.21,0,0,0-4.85-6.15,5.94,5.94,0,0,0-7.13,2.35L466,141.43c.63-1.25,1.25-2.82.43-4a2.68,2.68,0,0,0-3.52-.35,7.82,7.82,0,0,0-2.37,3.06l-7.64,14.33-6.75-10.57c-.68-1.07-1.66-2.28-2.91-2.08a2.26,2.26,0,0,0-1.68,2.25,6.54,6.54,0,0,0,.86,2.89c2,4.18,5.54,13.65,5.54,13.65Z"/><path class="cls-5" d="M353.89,247c-.1-.1,1.74-1.5,3.95-4.41a18.94,18.94,0,0,0,3-5.61,20,20,0,0,0,.78-7.7,28.27,28.27,0,0,0-4.5-13.33,9.87,9.87,0,0,0-2.84-3.15,8.86,8.86,0,0,0-1.44-.63s.15,0,.43,0a3.81,3.81,0,0,1,1.14.39,9.49,9.49,0,0,1,3.1,3.12,27.2,27.2,0,0,1,4.77,13.54,19.92,19.92,0,0,1-.86,7.94,18.54,18.54,0,0,1-3.16,5.71,22.79,22.79,0,0,1-3,3.15A5.9,5.9,0,0,1,353.89,247Z"/><path class="cls-10" d="M442.71,167.54a133.31,133.31,0,0,0,16.54,9c2.27,1.06,5.09,2,7.13.57A4.77,4.77,0,0,0,468,172.2a10.65,10.65,0,0,0-2.7-4.65,29.5,29.5,0,0,0-14-8.74,12.27,12.27,0,0,0-5.88-.46,5.69,5.69,0,0,0-4.33,3.67,4.83,4.83,0,0,0,1.62,5.52"/><path class="cls-5" d="M467.14,174.67c-.11.06-.85-1.51-2.56-3.68A24,24,0,0,0,446,161.82c-2.76,0-4.45.33-4.47.22a3.32,3.32,0,0,1,1.17-.33,19.24,19.24,0,0,1,3.3-.36,22.78,22.78,0,0,1,19,9.36,20.24,20.24,0,0,1,1.74,2.83A3.9,3.9,0,0,1,467.14,174.67Z"/><path class="cls-10" d="M341.68,307c.18.37-2.26,2.12-6.71,4a55.93,55.93,0,0,1-8.05,2.64,62,62,0,0,1-20.67,1.52,55.53,55.53,0,0,1-8.35-1.43c-4.68-1.2-7.35-2.57-7.22-3s3,.09,7.65.67c2.31.31,5.07.55,8.13.7a85.07,85.07,0,0,0,19.81-1.46c3-.6,5.7-1.24,7.94-1.88C338.69,307.55,341.46,306.58,341.68,307Z"/><path class="cls-10" d="M340,314c.14.4-2.21,1.69-6.29,3a72.09,72.09,0,0,1-33.22,2.41c-4.23-.74-6.74-1.67-6.66-2.1.17-1,10.5.52,23.17-.46S339.71,313.09,340,314Z"/><path class="cls-8" d="M294.06,127.16s-41.88,7.75-41.35,45.24,36,31.2,46.29,29.88c4.67-.6,14-1.92,22.76-3.19,18.62-2.69,32.51-11.74,33.62-30.53a34.73,34.73,0,0,0-.22-6.6C352.51,142.13,334,118.27,294.06,127.16Z"/><path class="cls-10" d="M339.25,164.76,285.81,176.1a10.38,10.38,0,0,1-12.3-8h0a10.36,10.36,0,0,1,8-12.29L335,144.48a10.36,10.36,0,0,1,12.29,8h0A10.36,10.36,0,0,1,339.25,164.76Z"/><circle class="cls-7" cx="293.03" cy="164.85" r="3.33"/><path class="cls-7" d="M333.69,156.91a3.33,3.33,0,1,1-3.33-3.32A3.33,3.33,0,0,1,333.69,156.91Z"/><path class="cls-7" d="M310.38,147a31.42,31.42,0,0,1-1.79-3.78,37.1,37.1,0,0,0-5.2-8.5,18.64,18.64,0,0,0-7.84-5.9,33.5,33.5,0,0,0-4-1,3.81,3.81,0,0,1,1.14,0,13.69,13.69,0,0,1,3,.61,17.85,17.85,0,0,1,8.19,5.92A32.11,32.11,0,0,1,309,143c.48,1.2.83,2.19,1.06,2.87A4.12,4.12,0,0,1,310.38,147Z"/><path class="cls-7" d="M311.72,200.53c-.08-.08,1.12-1.24,2.59-3.44a23.53,23.53,0,0,0,3.68-9.55,40.09,40.09,0,0,0-.09-10.33,32.68,32.68,0,0,1-.57-4.29,4.09,4.09,0,0,1,.35,1.11c.18.73.43,1.78.68,3.1a34.59,34.59,0,0,1,.28,10.5,21.85,21.85,0,0,1-3.94,9.72,21,21,0,0,1-2.08,2.43A3.71,3.71,0,0,1,311.72,200.53Z"/><g class="cls-9"><path d="M350.62,184.24a33.55,33.55,0,0,0-16.29-5,81.45,81.45,0,0,0-17.14,1.17c-13.13,2-26.56,5.08-37.19,13-3,2.24-5.8,4.95-7.18,8.44,0,0,5.64,2.31,16.88,1.56s34.44-4.78,34.44-4.78,11.86-2,18.56-7S350.62,184.24,350.62,184.24Z"/></g><path class="cls-7" d="M350.49,151.41a8.58,8.58,0,0,1,.48,1.93,12.19,12.19,0,0,1-.51,5.64,13,13,0,0,1-5.68,6.87c-3,1.87-7,2.89-11.27,3.81l-30.24,6.61-8.75,1.91c-3,.61-6,1.4-9.18,1.82a14.45,14.45,0,0,1-9.55-1.63,13.68,13.68,0,0,1-5.88-8.05,13.53,13.53,0,0,1,1.15-9.9,14.82,14.82,0,0,1,7.16-6.55,25.14,25.14,0,0,1,4.57-1.32l4.5-1.06,8.71-2,16.11-3.75c5.07-1.09,9.69-2.52,14-3.38a45.18,45.18,0,0,1,6.25-.86,24.2,24.2,0,0,1,5.63.2,17.77,17.77,0,0,1,8.27,3.45,12.35,12.35,0,0,1,3.52,4.44,9.09,9.09,0,0,1,.54,1.38,3.87,3.87,0,0,1,.14.48c-.05,0-.22-.65-.8-1.8a12.66,12.66,0,0,0-3.56-4.29A17.6,17.6,0,0,0,338,142a24.16,24.16,0,0,0-5.55-.14,46.37,46.37,0,0,0-6.19.89c-4.3.89-8.92,2.35-14,3.46l-16.1,3.82-8.71,2.06-4.5,1.06a24.86,24.86,0,0,0-4.46,1.3,14.18,14.18,0,0,0-6.84,6.26,13,13,0,0,0-1.1,9.42,13.11,13.11,0,0,0,5.59,7.66,13.84,13.84,0,0,0,9.14,1.54c3.1-.39,6.13-1.18,9.12-1.79l8.75-1.88,30.27-6.48c4.3-.89,8.2-1.87,11.18-3.67a12.79,12.79,0,0,0,5.62-6.63,12.1,12.1,0,0,0,.62-5.54C350.68,152.07,350.45,151.42,350.49,151.41Z"/><path class="cls-7" d="M253.29,178.61a9.27,9.27,0,0,1,2-1.79A36.74,36.74,0,0,1,267,171.07a9.12,9.12,0,0,1,2.67-.52c.05.2-4,1.22-8.49,3.46S253.42,178.78,253.29,178.61Z"/><path class="cls-7" d="M296.8,132.41a.57.57,0,0,1,.82.4.55.55,0,0,1-.74.53.56.56,0,0,1-.12-.9"/><path class="cls-7" d="M303.45,142.12a.53.53,0,1,1,.08.93.56.56,0,0,1-.08-.93"/><path class="cls-7" d="M263.26,169.28a.53.53,0,1,1,.08.93.55.55,0,0,1-.08-.93"/><path class="cls-7" d="M255,173.73a.53.53,0,1,1,.08.93.55.55,0,0,1-.08-.93"/><g class="cls-9"><path class="cls-7" d="M305.37,127.77c.11.48-3.67,1.55-9.62,3.46s-14.12,4.78-21.7,10.2a43.61,43.61,0,0,0-9.27,9.1,36.73,36.73,0,0,0-5.08,9.31c-2.08,5.74-1.82,9.71-2.39,9.72-.2,0-.51-.95-.65-2.76a23.69,23.69,0,0,1,.81-7.65,33.61,33.61,0,0,1,4.83-10.39,41.78,41.78,0,0,1,9.81-10,56.22,56.22,0,0,1,12.26-6.55A75.31,75.31,0,0,1,295.14,129C301.36,127.62,305.29,127.35,305.37,127.77Z"/></g><g class="cls-9"><path class="cls-7" d="M264.89,188c-.55.71-3-.27-4.74-2.77s-1.92-5.1-1.07-5.39,2.27,1.41,3.76,3.47S265.47,187.28,264.89,188Z"/></g><path class="cls-8" d="M351.72,208.37c2.55.72,2.39,37.48,1.84,56.23-.29,10.06-1,20.55-6.17,29.2-5.71,9.64-16.58,15.79-27.76,16.55-13.45.9-26.74-5.61-35.95-15.46S269,272.16,266.1,259s-3.5-26.72-4.06-40.19C262,218.81,305.59,195.3,351.72,208.37Z"/><g class="cls-11"><path d="M264.08,236.58c-.31,11.84,1.78,25.51,5.58,35.4,4.11,10.7,10.09,20.36,20,28.42a61.7,61.7,0,0,0,8.83,5.54,38.83,38.83,0,0,0,8.36,3.13c4.73,1.36,7.51-4.5,8.44-9.33s-.81-9.9-3.75-13.85-7-6.92-11.14-9.58-8.47-5.07-12.29-8.18c-6.57-5.34-11.43-12.55-15-20.21s-6.05-15.82-8.48-23.93"/></g><path class="cls-7" d="M295.15,286.71a.57.57,0,0,1,.82.4.53.53,0,1,1-.86-.37"/><path class="cls-7" d="M311.44,286.07a.53.53,0,1,1,.08.93.55.55,0,0,1-.08-.93"/><path class="cls-7" d="M329.23,269.26a.53.53,0,1,1,.08.92.56.56,0,0,1-.08-.92"/><path class="cls-7" d="M321.06,227.73a.55.55,0,0,1,.81.4.53.53,0,1,1-.85-.37"/><path class="cls-7" d="M337.73,234.54a.53.53,0,1,1,.08.93.56.56,0,0,1-.08-.93"/><path class="cls-7" d="M276.69,281.9a.56.56,0,0,1,.81.41.53.53,0,1,1-.85-.38"/><path class="cls-7" d="M274,268.08a.56.56,0,0,1,.81.4.53.53,0,1,1-.85-.37"/><path class="cls-7" d="M272.82,255.57a.53.53,0,1,1,.08.93.56.56,0,0,1-.08-.93"/><path class="cls-7" d="M271.64,242.27a.55.55,0,0,1,.81.4.56.56,0,0,1-.74.53.55.55,0,0,1-.11-.9"/><path class="cls-7" d="M347.64,231.29a.53.53,0,1,1,.08.93.55.55,0,0,1-.08-.93"/><path class="cls-7" d="M332,284.82a.53.53,0,1,1,.08.93.55.55,0,0,1-.08-.93"/><path class="cls-7" d="M333.73,297.94a.57.57,0,0,1,.82.4.55.55,0,0,1-.74.53.56.56,0,0,1-.12-.9"/><g class="cls-9"><path class="cls-7" d="M341.63,218.26c.12.39-3.82,2.15-10.54,4a112.68,112.68,0,0,1-12,2.52,136.07,136.07,0,0,1-14.92,1.4,134,134,0,0,1-15-.4,112.49,112.49,0,0,1-12.11-1.7c-6.82-1.37-10.88-2.85-10.78-3.26.21-1,16.91,2.85,37.77,2.06C325,222.23,341.35,217.27,341.63,218.26Z"/></g><path class="cls-7" d="M293.63,303.18a5.33,5.33,0,0,1-.69-.55c-.44-.37-1.08-.94-1.85-1.72a25.94,25.94,0,0,1-5.37-7.57,42.38,42.38,0,0,1-2.12-6.06c-.66-2.21-1.31-4.58-2-7.08-1.33-5-2.63-10.55-3.79-16.41a263.5,263.5,0,0,1-4.21-30.3c-.3-3.9-.47-7.07-.55-9.25,0-1-.05-1.88-.06-2.52a4.54,4.54,0,0,1,0-.88,4.7,4.7,0,0,1,.11.87c.05.64.11,1.48.19,2.51.15,2.18.39,5.34.75,9.23.75,7.78,2.06,18.51,4.39,30.21,1.16,5.85,2.44,11.38,3.74,16.38.65,2.5,1.28,4.87,1.92,7.08a41.71,41.71,0,0,0,2,6,27.1,27.1,0,0,0,5.12,7.59c.74.8,1.35,1.39,1.76,1.8A3.65,3.65,0,0,1,293.63,303.18Z"/><path class="cls-7" d="M323.18,262.75c.18,0,1.54,10.08,3.05,22.56s2.57,22.63,2.39,22.65-1.55-10.08-3.05-22.57S323,262.77,323.18,262.75Z"/><path class="cls-7" d="M304.07,205.78s.36.3.91.91,1.33,1.51,2.29,2.64c1.91,2.24,4.51,5.37,7.36,8.85q.53.66,1.05,1.29l.13.16a.36.36,0,0,1,.15.2,1.57,1.57,0,0,1,.1.28l0,.21a8.11,8.11,0,0,1,.12.82c.11,1.07.17,2.09.22,3.07.1,1.95.15,3.7.17,5.18s0,2.66,0,3.49a5.24,5.24,0,0,1-.08,1.28,34,34,0,0,1-.4-4.76c-.09-1.52-.2-3.26-.31-5.16-.07-1-.14-2-.26-3,0-.26-.06-.53-.12-.77l0-.19a.3.3,0,0,1,0-.1c0-.06-.16-.16-.22-.27l-1.05-1.29c-2.85-3.48-5.39-6.66-7.21-9-.91-1.16-1.64-2.1-2.13-2.77A5,5,0,0,1,304.07,205.78Z"/><path class="cls-7" d="M324.31,281.9a7.22,7.22,0,0,1-1.59.33c-1,.18-2.53.39-4.38.62-3.7.46-8.83.95-14.52,1.24s-10.85.32-14.58.23c-1.87,0-3.37-.1-4.42-.16a7.55,7.55,0,0,1-1.61-.17,7,7,0,0,1,1.62-.09l4.41,0c3.73,0,8.87-.14,14.54-.43s10.8-.71,14.51-1.05l4.4-.4A8.58,8.58,0,0,1,324.31,281.9Z"/><path class="cls-7" d="M353.75,232.88s-.29.26-.87.62-1.45.86-2.55,1.41a56.47,56.47,0,0,1-9,3.44,71.14,71.14,0,0,1-9.37,2.08,17.87,17.87,0,0,1-4,.37,33.7,33.7,0,0,1,3.88-.83c2.39-.48,5.69-1.2,9.26-2.25a74.86,74.86,0,0,0,8.95-3.24C352.36,233.5,353.7,232.79,353.75,232.88Z"/><circle class="cls-10" cx="318.94" cy="248.29" r="14.87"/><circle class="cls-7" cx="318.94" cy="248.29" r="10.84" transform="translate(-48.51 79.92) rotate(-13.28)"/><g class="cls-11"><path d="M262,218.81s43.57-23.8,89.68-10.44C351.72,208.37,332,227.12,262,218.81Z"/></g><path class="cls-7" d="M332.25,511.59a.56.56,0,0,1,.81.4.53.53,0,1,1-.85-.37"/><path class="cls-8" d="M313.32,348.59c.79,31,4,62,11.85,92,1.35,5.15,2.95,10.49,6.64,14.32s10.14,5.55,14.42,2.38c3.66-2.71,4.49-7.76,5-12.29,3.94-35.17,6.14-64.61,6.57-100,0,0,1-25.54-17-25.53S312.84,329.6,313.32,348.59Z"/><g class="cls-11"><path d="M325.91,322.22c2.25-2.73,6.81-2.53,9.55-.31s4,5.85,4.38,9.36c1.27,11.11-4.19,21.78-6.13,32.8-1.87,10.6-.45,21.49-1,32.24s-2.88,21.74-11.3,28.44c0,0-8.14-41.43-7-57.26C315.29,356,325.91,322.22,325.91,322.22Z"/></g><path class="cls-7" d="M328.31,364a6.33,6.33,0,0,1,.15,1c.08.7.18,1.62.3,2.77.26,2.48.61,5.95,1.05,10.21.89,8.61,2.2,20.5,3.89,33.6s3.43,24.93,4.75,33.49c.66,4.23,1.19,7.67,1.57,10.13.17,1.15.31,2.07.41,2.76a5.38,5.38,0,0,1,.1,1,5.87,5.87,0,0,1-.23-.95c-.13-.68-.31-1.6-.53-2.73-.45-2.38-1.06-5.84-1.78-10.11-1.44-8.54-3.26-20.37-4.95-33.48s-2.92-25-3.69-33.64c-.39-4.31-.68-7.81-.84-10.22q-.12-1.74-.18-2.79A5.1,5.1,0,0,1,328.31,364Z"/><path class="cls-10" d="M301.77,371c8.41,4.11,20.42.77,26.25-7.74s7.65-19,9.32-29.23c.56-3.41,1-7.28-1.1-10-2.43-3.12-7-3.27-11-3.14l-37.63,1.23S274,326,274,334.3,290.27,365.39,301.77,371Z"/><path class="cls-8" d="M334.11,461.8c-4.05.2-7.45,3.45-9.05,7.17s-1.78,7.9-1.92,11.95c-.86,24.68-1.72,49.39-.36,74,.3,5.34.82,11,4.08,15.25s10.27,6,13.95,2.12c2.11-2.21,2.54-5.48,2.87-8.51q4.8-44.12,9.59-88.23c.36-3.32.67-6.92-1-9.8s-4.84-4.29-8-4.67a31.13,31.13,0,0,0-9.55.83"/><path class="cls-7" d="M329.14,577.94a1.21,1.21,0,0,1-.06-.3c0-.23-.07-.52-.11-.87-.09-.77-.23-1.9-.37-3.36-.28-2.92-.6-7.16-.83-12.4-.51-10.49-.41-25,.08-41s.95-30.43,1.27-41c.18-5.25.95-9.52,2.13-12.23a17.34,17.34,0,0,1,1.6-3l.53-.71c.12-.16.19-.23.2-.22a1.32,1.32,0,0,1-.14.26l-.48.74a20.68,20.68,0,0,0-1.47,3c-1.09,2.71-1.78,6.93-1.9,12.16-.28,10.53-.66,25-1.07,41s-.67,30.48-.28,41c.17,5.24.42,9.47.62,12.4.1,1.42.18,2.54.24,3.37,0,.35,0,.64,0,.88A1.43,1.43,0,0,1,329.14,577.94Z"/><path class="cls-10" d="M325.06,579.9a28.65,28.65,0,0,1-.35-7.56,9.73,9.73,0,0,1,3.4-6.57,10.74,10.74,0,0,1,5.54-1.9,10.62,10.62,0,0,1,5.69.8c2.76,1.36,4.37,4.39,4.83,7.43l1.9,9.2"/><path class="cls-8" d="M324.3,579.47l21.91.23s16.12,3.65,15.78,4.94-38.33-.25-38.33-.25Z"/><path class="cls-5" d="M318.87,322.09a13.64,13.64,0,0,1,.73,2,23.54,23.54,0,0,1,.71,2.37c.23.93.54,2,.73,3.19a38.7,38.7,0,0,1,.62,3.93c.21,1.41.27,2.94.36,4.55a58.65,58.65,0,0,1-.6,10.44,57.61,57.61,0,0,1-2.58,10.13c-.6,1.49-1.12,2.94-1.78,4.21-.31.64-.59,1.27-.91,1.86l-.94,1.66a31.39,31.39,0,0,1-1.76,2.77,18.78,18.78,0,0,1-1.47,2,11.86,11.86,0,0,1-1.38,1.59,14.52,14.52,0,0,1,1.17-1.75,21,21,0,0,0,1.37-2,31.21,31.21,0,0,0,1.66-2.79l.9-1.66c.3-.59.57-1.22.87-1.86.62-1.27,1.12-2.7,1.7-4.18a59.77,59.77,0,0,0,2.5-10,61.44,61.44,0,0,0,.64-10.32c-.08-1.59-.11-3.11-.3-4.51s-.32-2.72-.53-3.9-.44-2.26-.63-3.19-.4-1.74-.59-2.39A11.34,11.34,0,0,1,318.87,322.09Z"/><path class="cls-7" d="M336,396a.56.56,0,0,1,.81.4.55.55,0,0,1-.74.53.56.56,0,0,1-.12-.9"/><path class="cls-7" d="M339.21,423.12a.53.53,0,1,1,.08.93.56.56,0,0,1-.08-.93"/><path class="cls-7" d="M332.77,368.26a.55.55,0,0,1,.81.4.53.53,0,1,1-.86-.37"/><path class="cls-7" d="M332.77,485.69a.56.56,0,0,1,.81.4.55.55,0,0,1-.74.53.56.56,0,0,1-.12-.9"/><path class="cls-5" d="M344.59,572.26a10.07,10.07,0,0,1-2.83,1.06,34.48,34.48,0,0,1-7.19,1.2,35,35,0,0,1-7.29-.32,10.25,10.25,0,0,1-2.93-.71c0-.21,4.55.74,10.18.37S344.53,572.05,344.59,572.26Z"/><g class="cls-11"><path d="M322.05,536.22c5.8-4.25,9.53-10.85,11.59-17.74s2.62-14.12,3.18-21.29,1.15-14.41,3.27-21.28a9.25,9.25,0,0,0,.67-4.59c-.52-2.47-3-3.91-5.34-4.95-2.84-1.29-6.42-2.35-8.86-.41-1.84,1.46-2.24,4-2.48,6.38-2.21,21.52-2,43.21-1.85,64.85"/></g><circle class="cls-10" cx="340.88" cy="458.06" r="15.59" transform="translate(-165.87 721.16) rotate(-80.78)"/><path class="cls-5" d="M355.59,455.81a3.71,3.71,0,0,1-.81,1,13.36,13.36,0,0,1-2.74,2.06,20.57,20.57,0,0,1-10.94,2.47,41.13,41.13,0,0,1-11-2.24c-1.37-.45-2.46-.85-3.21-1.14a4.89,4.89,0,0,1-1.14-.52,39.41,39.41,0,0,1,4.49,1.21,47.28,47.28,0,0,0,10.9,2,21.55,21.55,0,0,0,10.69-2.22A27,27,0,0,0,355.59,455.81Z"/><path class="cls-8" d="M179.08,206.65s-3.07-12.54-4.7-13.12-21.27,2.22-21.27,2.22-6.38-8.93-7.37-10.08-3.1,1.76-2.41,3.11,5.36,14.33,8.27,14.76,10.24-.13,10.24-.13l2.38,8.17Z"/><path class="cls-8" d="M263.94,255.13c-12.39,4.51-20.3,6.8-32.71,11.42-6.87,2.56-15.63,5.39-22.12,7.06-4.33,1.11-9.28,1.45-13.47-.38-3.57-1.55-6.19-4.66-8.53-7.76-11-14.55-17.13-33-21.41-50.72l14.89-2.8,26.93,37.67,49-16.74,8.06,19.9A1.47,1.47,0,0,1,263.94,255.13Z"/><path class="cls-10" d="M264.44,223.68a17.39,17.39,0,0,0-5.93,30c2,1.67,4.88,3,7.26.42a7,7,0,0,0,1.54-2.86A37.11,37.11,0,0,0,264.44,223.68Z"/><path class="cls-5" d="M256.93,228.43s0-.12.18-.29a3.62,3.62,0,0,1,.71-.67,1.49,1.49,0,0,1,.7-.26,2,2,0,0,1,.87.17,1.89,1.89,0,0,1,.8.62l.64.84a26.14,26.14,0,0,1,4.69,10.53,24.66,24.66,0,0,1-.31,11.52,6.57,6.57,0,0,1-1.83,3,2.32,2.32,0,0,1-1.13.64c0-.05.4-.25.95-.82a7,7,0,0,0,1.57-3,26.47,26.47,0,0,0,.11-11.25,27.89,27.89,0,0,0-4.43-10.39c-.43-.6-.73-1.2-1.21-1.4a1.26,1.26,0,0,0-1.29,0C257.28,228.11,257,228.48,256.93,228.43Z"/><path class="cls-7" d="M207.52,249.62a3.92,3.92,0,0,1,.22,1.09,17.46,17.46,0,0,1,.12,3,21.07,21.07,0,0,1-.68,4.46,22.55,22.55,0,0,1-2.12,5.11,23.06,23.06,0,0,1-6.78,7.32,18.23,18.23,0,0,1-2.6,1.55,3.7,3.7,0,0,1-1,.42c-.06-.11,1.35-.83,3.36-2.34a25.34,25.34,0,0,0,6.48-7.28,24,24,0,0,0,2.1-4.94,22.2,22.2,0,0,0,.8-4.33C207.6,251.2,207.39,249.63,207.52,249.62Z"/><path class="cls-7" d="M254.13,237.46c.06.17-10.32,4.23-23.19,9.07s-23.35,8.62-23.42,8.45,10.32-4.23,23.19-9.07S254.06,237.29,254.13,237.46Z"/><path class="cls-7" d="M170.54,214.34s.12.19.27.58.37,1,.63,1.72c.53,1.49,1.31,3.65,2.34,6.29,2,5.3,5.08,12.52,8.95,20.26,1.94,3.86,3.91,7.48,5.77,10.73s3.65,6.12,5.24,8.47c.76,1.19,1.49,2.24,2.14,3.16s1.2,1.73,1.67,2.36l1.07,1.49a2.48,2.48,0,0,1,.33.54s-.17-.14-.44-.46l-1.16-1.41c-.51-.62-1.1-1.39-1.77-2.3s-1.44-1.94-2.23-3.12c-1.64-2.33-3.44-5.2-5.37-8.42s-3.89-6.87-5.84-10.75a192.79,192.79,0,0,1-8.8-20.38c-1-2.67-1.69-4.86-2.15-6.38l-.51-1.76A2.54,2.54,0,0,1,170.54,214.34Z"/><path class="cls-7" d="M217.15,254.2a.55.55,0,0,0,0-.9.53.53,0,1,0-.06.93"/><path class="cls-7" d="M196.39,260.33a.53.53,0,1,0-.79-.48.56.56,0,0,0,.79.48"/><path class="cls-7" d="M187,245.6a.56.56,0,0,0,0-.91.53.53,0,1,0-.05.93"/><path class="cls-7" d="M229.3,249.93a.53.53,0,1,0-.79-.49.56.56,0,0,0,.79.49"/><path class="cls-7" d="M243,245.22a.53.53,0,1,1,.08.93.55.55,0,0,1-.08-.93"/><path class="cls-10" d="M165.37,214.84a108.55,108.55,0,0,0,15.12-2.14c2-.41,4.3-1.14,4.93-3.07a3.88,3.88,0,0,0-1.32-3.95,8.87,8.87,0,0,0-4-1.73,24,24,0,0,0-13.33,1,9.93,9.93,0,0,0-4.06,2.54,4.62,4.62,0,0,0-1,4.49,3.92,3.92,0,0,0,3.72,2.82"/><path class="cls-5" d="M184.76,207.7c0,.1-1.3-.55-3.46-1.13a20.18,20.18,0,0,0-8.61-.36,19.94,19.94,0,0,0-7.94,3.37c-1.82,1.29-2.76,2.34-2.84,2.26s.16-.32.59-.8a14.29,14.29,0,0,1,2-1.84,18.43,18.43,0,0,1,17-3.07,15.32,15.32,0,0,1,2.49,1C184.49,207.46,184.78,207.66,184.76,207.7Z"/><path class="cls-8" d="M287.88,460.59c-4,.44-7.23,3.88-8.62,7.7s-1.3,8-1.2,12c.6,24.68,1.2,49.4,4,73.93.61,5.31,1.47,10.94,5,15s10.59,5.37,14.05,1.29c2-2.33,2.21-5.62,2.36-8.67l4.35-88.64c.16-3.34.26-6.94-1.6-9.72s-5.09-4-8.3-4.19a31.39,31.39,0,0,0-9.49,1.39"/><path class="cls-8" d="M266.86,349c.79,31,3.95,62,11.84,92,1.36,5.15,2.95,10.49,6.65,14.32s10.13,5.55,14.41,2.38c3.67-2.71,4.49-7.76,5-12.28,3.94-35.18,6.14-64.62,6.57-100,0,0,1-25.55-17.05-25.54S266.37,330,266.86,349Z"/><g class="cls-9"><path class="cls-7" d="M281.92,445.37c-.44.07-1.88-6.47-3.85-17.11s-4.43-25.4-6.34-41.82c-1-8.2-1.69-16.06-2.27-23.17s-1-13.68-.35-19.2a28.18,28.18,0,0,1,4.15-12.41l1.25-1.65a11.27,11.27,0,0,1,1.05-1.09c.59-.55.94-.8,1-.73s-.1.48-.51,1.16c-.2.34-.5.72-.77,1.23s-.59,1.08-.93,1.72a31,31,0,0,0-2.94,12c-.38,5.26.25,11.59,1.05,18.69s1.56,14.91,2.52,23.09c1.91,16.35,4,31.11,5.37,41.84S282.38,445.3,281.92,445.37Z"/></g><path class="cls-7" d="M291.82,459a1.63,1.63,0,0,1-.11-.35l-.27-1.05c-.22-1-.54-2.31-.95-4-.79-3.5-1.85-8.6-3-14.92-2.28-12.66-4.67-30.28-6.35-49.82-.87-9.77-1.55-19.09-2.16-27.57-.29-4.23-.58-8.26-.84-12a83.08,83.08,0,0,1-.29-10.53,29.07,29.07,0,0,1,1.63-8.55,20.08,20.08,0,0,1,3.18-5.75,15,15,0,0,1,3-2.86,7.39,7.39,0,0,1,1.23-.76,17.92,17.92,0,0,0-4,3.78,20.13,20.13,0,0,0-3,5.72,28.84,28.84,0,0,0-1.51,8.44,85.1,85.1,0,0,0,.37,10.47c.28,3.77.58,7.79.9,12,.64,8.47,1.34,17.79,2.2,27.55,1.69,19.53,4,37.14,6.16,49.8,1.1,6.33,2.09,11.43,2.81,15,.35,1.72.62,3.08.82,4.06.08.43.15.78.2,1.05A2,2,0,0,1,291.82,459Z"/><path class="cls-7" d="M288.31,569.05a7,7,0,0,1-.17-1.06c-.1-.75-.22-1.77-.38-3-.32-2.64-.73-6.48-1.2-11.23-.93-9.49-2-22.62-2.8-37.15s-1.13-27.72-1.23-37.25c0-4.77-.06-8.63,0-11.3,0-1.28,0-2.31.05-3.07a5,5,0,0,1,.06-1.07,8.18,8.18,0,0,1,.07,1.07c0,.76,0,1.79.08,3.07.05,2.73.13,6.57.23,11.29.22,9.53.64,22.69,1.43,37.22s1.8,27.65,2.61,37.15c.41,4.7.75,8.53,1,11.25.11,1.28.2,2.3.26,3.06A5.4,5.4,0,0,1,288.31,569.05Z"/><circle class="cls-10" cx="292.25" cy="458.42" r="15.59"/><path class="cls-10" d="M283.16,582.92c0-2.53,0-9.58.73-12a9.82,9.82,0,0,1,4.34-6,12.47,12.47,0,0,1,11.27.57c2.52,1.75,3.68,5,3.68,8.06l.53,9.38"/><path class="cls-8" d="M283.5,579.83l21.91-.2s16.19,3.33,15.87,4.63-38.32.51-38.32.51Z"/><path class="cls-7" d="M284.1,374.75a.53.53,0,1,1,.08.93.55.55,0,0,1-.08-.93"/><path class="cls-7" d="M282.52,351.34a.53.53,0,1,1,.07.92.55.55,0,0,1-.07-.92"/><path class="cls-7" d="M286.05,403.5a.53.53,0,1,1,.08.93.56.56,0,0,1-.08-.93"/><path class="cls-7" d="M290,435.81a.53.53,0,1,1,.08.93.56.56,0,0,1-.08-.93"/><path class="cls-7" d="M285.54,485.13a.53.53,0,1,1,.08.93.55.55,0,0,1-.08-.93"/><path class="cls-7" d="M288,510.59a.53.53,0,1,1,.07.93.55.55,0,0,1-.07-.93"/><path class="cls-7" d="M288.31,539.14a.53.53,0,1,1,.08.93.56.56,0,0,1-.08-.93"/><path class="cls-5" d="M307.52,455.33a4.38,4.38,0,0,1-.9.93,20.24,20.24,0,0,1-2.87,2.08,22.66,22.66,0,0,1-22.48.53,18.93,18.93,0,0,1-3-1.94,4.21,4.21,0,0,1-.95-.88c.07-.1,1.48,1.11,4.13,2.41a23.53,23.53,0,0,0,22-.53C306.09,456.51,307.45,455.23,307.52,455.33Z"/><path class="cls-5" d="M303.06,573.14a9.76,9.76,0,0,1-2.76,1.06,31.92,31.92,0,0,1-14.15.67,10.44,10.44,0,0,1-2.84-.78c0-.22,4.43.87,9.92.58S303,572.94,303.06,573.14Z"/><path class="cls-7" d="M319.3,159.65a4.18,4.18,0,0,1,0,2.82,6.76,6.76,0,0,1-1.52,2.72,6.66,6.66,0,0,1-7.16,1.63A6.69,6.69,0,0,1,308,165a4.29,4.29,0,0,1-1.26-2.53,15.14,15.14,0,0,0,1.6,2.21,6.59,6.59,0,0,0,2.43,1.53,6.18,6.18,0,0,0,3.46.18,6.26,6.26,0,0,0,3-1.66,6.73,6.73,0,0,0,1.52-2.44A13.23,13.23,0,0,0,319.3,159.65Z"/><path class="cls-5" d="M152.82,513.51a14,14,0,0,1,9.25,5.91,24.69,24.69,0,0,1,4,10.45c1.21,7.17-.73,15.33-3.4,22.1-7.32-3.43-11.22-12-12.92-16.41-2.7-7-3.3-21.39,3.08-22"/><path class="cls-5" d="M173.45,562.07a11.94,11.94,0,0,1-.28-12,15.88,15.88,0,0,1,9.74-7.47c1.87-.52,4-.71,5.62.4a5.13,5.13,0,0,1,1.86,4.84,10.33,10.33,0,0,1-2.31,4.87c-3.81,4.93-8.41,9-14.63,9.36"/><path class="cls-10" d="M171.6,584.81a5.9,5.9,0,0,1-.24-1.51c-.1-1-.23-2.39-.32-4.15a51.31,51.31,0,0,1,.83-13.71,25.78,25.78,0,0,1,6.24-12.22,16.58,16.58,0,0,1,3.24-2.66,4.63,4.63,0,0,1,1.37-.69,36.3,36.3,0,0,0-4.19,3.74,26.93,26.93,0,0,0-5.86,12,59.55,59.55,0,0,0-1.06,13.53A45.43,45.43,0,0,1,171.6,584.81Z"/><path class="cls-10" d="M154.52,524.4a13.87,13.87,0,0,1,.93,2.34c.54,1.53,1.29,3.75,2.19,6.51,1.8,5.51,4.17,13.17,6.57,21.69s4.38,16.29,5.72,21.93c.67,2.82,1.19,5.11,1.52,6.69a16.53,16.53,0,0,1,.44,2.49,14.5,14.5,0,0,1-.75-2.41c-.45-1.7-1-3.94-1.77-6.63-1.48-5.6-3.55-13.34-6-21.85s-4.67-16.18-6.33-21.74l-2-6.58A15.75,15.75,0,0,1,154.52,524.4Z"/><path class="cls-5" d="M163.7,568.9a28,28,0,0,0-20-15.93c-2.21-.42-4.94-.36-6.18,1.53s-.17,4.43,1.15,6.26a23.93,23.93,0,0,0,25,8.75"/><path class="cls-10" d="M146.15,559.35a4.87,4.87,0,0,1,1.46.15,11.19,11.19,0,0,1,1.68.36,18.84,18.84,0,0,1,2.18.65,29,29,0,0,1,5.38,2.51,31.36,31.36,0,0,1,10.39,10.06,29,29,0,0,1,2.68,5.3,19,19,0,0,1,.73,2.16,11.43,11.43,0,0,1,.41,1.67,4.62,4.62,0,0,1,.19,1.45c-.15,0-.55-2-1.86-5.06a31.85,31.85,0,0,0-2.78-5.11,33.36,33.36,0,0,0-10.15-9.83,33.13,33.13,0,0,0-5.19-2.61C148.18,559.84,146.12,559.51,146.15,559.35Z"/><path class="cls-12" d="M529.76,81.24C525.4,66,508.88,51.9,493.06,52,479.82,48,462,55.32,454.9,63.16c-9.31,10.31-15.18,24.57-11.37,37.92S458,125.46,471,130.43c14.78,5.65,32.54,3.32,44.84-6.62S534.11,96.45,529.76,81.24Z"/><path class="cls-1" d="M529.76,81.24C525.4,66,508.88,51.9,493.06,52,479.82,48,462,55.32,454.9,63.16c-9.31,10.31-15.18,24.57-11.37,37.92S458,125.46,471,130.43c14.78,5.65,32.54,3.32,44.84-6.62S534.11,96.45,529.76,81.24Z"/><path class="cls-8" d="M507,103.85a2.58,2.58,0,0,1,0-.43c0-.32,0-.72,0-1.23,0-1.12,0-2.69-.06-4.68,0-4.08-.07-9.9-.12-17.05l.12.21L486.61,69h.31L466.67,80.74c-.15.26.2-.34.16-.28h0v12c0,3.91,0,7.7,0,11.35l-.16-.27,20.22,11.75h-.24l14.83-8.42,4.08-2.29,1.08-.58a2.34,2.34,0,0,1,.39-.19,2.29,2.29,0,0,1-.33.22l-1,.63-4,2.37-14.8,8.69-.12.07-.12-.07-20.29-11.64-.16-.09v-.18c0-3.65,0-7.44,0-11.35v-6c0-1,0-2,0-3v-3h0l.17-.29,20.27-11.68.15-.09.16.09,20.22,11.76.12.07v.14c-.05,7.2-.09,13.05-.12,17.15q0,3-.06,4.65c0,.49,0,.88,0,1.19A2,2,0,0,1,507,103.85Z"/><path class="cls-8" d="M507,80.46a10.93,10.93,0,0,1-1.53,1l-4.29,2.6c-3.63,2.16-8.68,5.12-14.27,8.35-.67,0-.19,0-.34,0h0l0,0-.06,0-.14-.07-.26-.15-.52-.3-1-.6-2-1.16-3.8-2.22-6.4-3.77L468,81.49a10.93,10.93,0,0,1-1.53-1,9.17,9.17,0,0,1,1.66.81l4.39,2.41L479,87.34l3.81,2.18,2,1.15,1,.6.52.3.27.15.13.07.06,0,0,0h0c-.15,0,.33,0-.32,0,5.59-3.23,10.67-6.12,14.37-8.19l4.39-2.41A9.56,9.56,0,0,1,507,80.46Z"/><path class="cls-8" d="M486.8,115.25c-.19,0-.33-5.22-.33-11.67s.14-11.67.33-11.67.33,5.22.33,11.67S487,115.25,486.8,115.25Z"/><path class="cls-13" d="M199.14,298.62a20.5,20.5,0,0,1,3.09-4.46l-1.72-4.72,7-4.5,3.59,3.52a19.84,19.84,0,0,1,5.33-1l2.13-4.56,8.13,1.76,0,5a20.5,20.5,0,0,1,4.46,3.09l4.72-1.72,4.51,7-3.53,3.58a19.91,19.91,0,0,1,1,5.34l4.56,2.12-1.76,8.13-5,.05a20.5,20.5,0,0,1-3.09,4.46l1.72,4.72-7,4.5-3.59-3.52a20.31,20.31,0,0,1-5.34,1L216.22,333l-8.13-1.77-.05-5a20.5,20.5,0,0,1-4.46-3.09l-4.72,1.72-4.5-7,3.52-3.59a20.65,20.65,0,0,1-1-5.33l-4.56-2.12,1.77-8.13,5-.05Zm9.61,7.09a8.92,8.92,0,1,0,10.61-6.84A8.92,8.92,0,0,0,208.75,305.71Z"/><path class="cls-14" d="M199.14,298.62a20.5,20.5,0,0,1,3.09-4.46l-1.72-4.72,7-4.5,3.59,3.52a19.84,19.84,0,0,1,5.33-1l2.13-4.56,8.13,1.76,0,5a20.5,20.5,0,0,1,4.46,3.09l4.72-1.72,4.51,7-3.53,3.58a19.91,19.91,0,0,1,1,5.34l4.56,2.12-1.76,8.13-5,.05a20.5,20.5,0,0,1-3.09,4.46l1.72,4.72-7,4.5-3.59-3.52a20.31,20.31,0,0,1-5.34,1L216.22,333l-8.13-1.77-.05-5a20.5,20.5,0,0,1-4.46-3.09l-4.72,1.72-4.5-7,3.52-3.59a20.65,20.65,0,0,1-1-5.33l-4.56-2.12,1.77-8.13,5-.05Zm9.61,7.09a8.92,8.92,0,1,0,10.61-6.84A8.92,8.92,0,0,0,208.75,305.71Z"/><path class="cls-2" d="M147.87,306.83a14.82,14.82,0,0,1,2.22-3.23l-1.26-3.41,5-3.27,2.61,2.53a15,15,0,0,1,3.85-.71l1.53-3.3,5.88,1.25.05,3.64a14.82,14.82,0,0,1,3.23,2.22l3.41-1.25,3.27,5L175.18,309a15.05,15.05,0,0,1,.71,3.85l3.3,1.53-1.25,5.88-3.64.05a14.82,14.82,0,0,1-2.22,3.23l1.25,3.41-5,3.28-2.61-2.54a14.63,14.63,0,0,1-3.85.71l-1.53,3.3-5.88-1.25,0-3.64a14.82,14.82,0,0,1-3.23-2.22l-3.41,1.26-3.28-5.05,2.54-2.61a14.63,14.63,0,0,1-.71-3.85l-3.3-1.53,1.25-5.88,3.64-.05Zm7,5.1a6.45,6.45,0,1,0,7.66-5A6.45,6.45,0,0,0,154.83,311.93Z"/><path class="cls-10" d="M154.83,311.93s0-.14,0-.41a5.19,5.19,0,0,1,.37-1.14,6.39,6.39,0,0,1,3-3.14,6.66,6.66,0,0,1,6.43.31A6.74,6.74,0,0,1,162.07,320a6.67,6.67,0,0,1-6-2.34,6.4,6.4,0,0,1-1.51-4.11,4.78,4.78,0,0,1,.13-1.19c.06-.27.11-.4.13-.4s-.07.58,0,1.58a6.42,6.42,0,0,0,1.6,3.82,6.17,6.17,0,1,0,2.06-9.67,6.48,6.48,0,0,0-3,2.83C155,311.38,154.89,312,154.83,311.93Z"/><path class="cls-10" d="M147.87,306.83a5.05,5.05,0,0,1-.91.06l-2.73.09.1-.08c-.3,1.53-.7,3.51-1.19,5.9l-.09-.19,3.31,1.5.11.05v.12a14.88,14.88,0,0,0,.73,3.8l0,.12-.09.1-2.53,2.61,0-.29,3.3,5-.31-.1,3.41-1.27.15,0,.12.11a15,15,0,0,0,3.18,2.17l.15.08v.17c0,1.13,0,2.37.05,3.63l-.23-.28,5.89,1.24-.35.17c.48-1,1-2.16,1.52-3.3l.08-.17h.19a14.37,14.37,0,0,0,3.77-.71l.19-.06.14.14,2.6,2.53-.4,0,5-3.27L173,327l-1.26-3.42-.07-.18.13-.15a14.5,14.5,0,0,0,2.18-3.16h0l.29-.18h1.82l1.81,0-.32.26c.43-2,.85-3.95,1.26-5.88l.18.37-3.3-1.53-.17-.08v-.2a14.78,14.78,0,0,0-.7-3.77l-.06-.19.14-.14,2.54-2.6,0,.39-3.27-5.05.37.12-3.42,1.25-.17.06-.13-.12a14.54,14.54,0,0,0-3.16-2.19l-.16-.08v-.17q0-1.86,0-3.63l.21.26-5.88-1.27.29-.14-1.54,3.29-.06.13h-.15a14.57,14.57,0,0,0-3.8.68l-.12,0-.1-.09-2.58-2.55.24,0-5.07,3.23.05-.17c.49,1.36.88,2.48,1.22,3.43l0,.06,0,0a15.5,15.5,0,0,0-1.79,2.34c-.34.54-.5.84-.51.82a.68.68,0,0,1,.08-.23c.07-.14.18-.36.34-.65a13.8,13.8,0,0,1,1.72-2.42l0,.11-1.29-3.4,0-.11.1-.06,5-3.32.12-.08.12.11,2.62,2.52-.22-.05a14.83,14.83,0,0,1,3.91-.75l-.2.14,1.51-3.31.08-.18.2,0,5.89,1.23.21.05v.22c0,1.18,0,2.39.05,3.63l-.15-.25a15.6,15.6,0,0,1,3.3,2.26l-.3-.06,3.4-1.26.23-.08.14.2c1.06,1.64,2.16,3.32,3.28,5l.14.21-.18.18-2.53,2.61.07-.32a14.76,14.76,0,0,1,.73,3.94l-.18-.28,3.3,1.52.23.11-.05.26q-.62,2.89-1.25,5.88l-.06.26h-.26l-1.81,0h-1.82l.29-.18h0a14.83,14.83,0,0,1-2.27,3.3l.07-.33c.43,1.17.86,2.33,1.25,3.41l.09.24-.22.15-5,3.27-.21.14-.19-.18-2.6-2.54.32.07a15.22,15.22,0,0,1-3.94.73l.27-.19-1.53,3.3-.1.22-.24-.05-5.88-1.26-.23-.05v-.24c0-1.26,0-2.51,0-3.63l.15.25a14.9,14.9,0,0,1-3.28-2.28l.27.06L147.82,326l-.2.07-.11-.17-3.25-5.06-.11-.16.14-.14,2.55-2.59-.05.22a15.26,15.26,0,0,1-.71-3.91l.12.16-3.29-1.54-.12-.06,0-.13c.54-2.38,1-4.35,1.32-5.87l0-.09h.08l2.69,0,.7,0Z"/><path class="cls-10" d="M154.83,311.93a5,5,0,0,1,.21-.77,6.17,6.17,0,0,1,1.13-2,6.5,6.5,0,0,1,7.9-1.67,6.53,6.53,0,0,1,3.51,4.71,6.57,6.57,0,0,1-5.87,7.68,6.66,6.66,0,0,1-6.63-3.81,7,7,0,0,1-.6-2,9.4,9.4,0,0,1,0-1.06l0-.54,0-.26V312h0v0a.35.35,0,0,0,.27.25l.36-.21a3.56,3.56,0,0,0-.15.8,6.19,6.19,0,0,0,3.72,6.22,6.32,6.32,0,0,0,8.64-7.18,6.39,6.39,0,0,0-11.12-2.74,6.81,6.81,0,0,0-1.4,2.78,1.91,1.91,0,0,1,.12-.82A5.69,5.69,0,0,1,156,309a6.58,6.58,0,0,1,3.09-2.17,6.7,6.7,0,0,1,5,.28,6.87,6.87,0,0,1,1.78,11.24,6.92,6.92,0,0,1-7.41,1.33,6.81,6.81,0,0,1-4.14-6.88,4.16,4.16,0,0,1,.19-1l.08-.26.28.05a.36.36,0,0,1,.28.27s0,.06,0,.08v.13l0,.13,0,.25c0,.16,0,.33,0,.49a7.78,7.78,0,0,0,0,1,6,6,0,0,0,.53,1.83,6.14,6.14,0,0,0,2.5,2.71,6,6,0,1,0,5.69-10.6,6.19,6.19,0,0,0-4.53-.44,6.4,6.4,0,0,0-3,1.87A10.78,10.78,0,0,0,154.83,311.93Z"/><path class="cls-10" d="M147.87,306.83l-3.69.06.08-.05c-.33,1.52-.75,3.54-1.27,6l-.07-.13,3.37,1.55-.17.2-.07-.09.26-.08a14.38,14.38,0,0,0,.72,3.84l-.31,0,0-.13.27.15-2.61,2.68,0-.21,3.4,5.23-.23-.08,3.52-1.3,0,.39-.15,0,.18-.35a14.48,14.48,0,0,0,3.22,2.21l-.28.31-.09-.14.4-.12c0,1.15,0,2.44,0,3.77l-.18-.22,6.15,1.3-.27.14,1.58-3.43.36.31-.15.1-.15-.45a14.83,14.83,0,0,0,3.84-.71l0,.49-.18-.05.24-.43,2.71,2.64-.33,0,5.29-3.44-.11.32L172,323.52l.53,0,0,.19-.48-.24a15,15,0,0,0,2.21-3.22l.4.37-.16.11-.16-.53,3.78-.06-.28.23c.41-1.9.85-4,1.31-6.17l.16.33-3.43-1.58.38-.44.1.16-.55.18a14.88,14.88,0,0,0-.71-3.82l.58,0,0,.18-.51-.28,2.63-2.71,0,.38c-1.07-1.63-2.24-3.44-3.43-5.27l.37.12-3.54,1.31-.05-.6.17,0-.27.54a15,15,0,0,0-3.2-2.19l.41-.45.09.14-.59.17c0-1.17,0-2.46-.06-3.76l.26.31-6.12-1.28.36-.19c-.49,1.07-1,2.24-1.56,3.41l-.48-.41.11-.07.2.59a15,15,0,0,0-3.8.72l0-.63.12,0-.3.55L153.67,297l.41,0-5.17,3.38L149,300c.41,1.09.86,2.28,1.3,3.47l-.63.05v-.06l.57.28a13.33,13.33,0,0,0-1.9,2.74l-.13.23s0,0,0-.05a.05.05,0,0,0,0,0h0c.09,0-.38-.28-.46-.12l-.06.05,0,0s0,0,0,0l.28-.48c.19-.32.4-.65.61-1a16.29,16.29,0,0,1,1.42-1.78l-.07.34-1.25-3.46h.63l0,.09-.49-.38,5.06-3.25.15.6h-.14l.27-.56,2.64,2.6-.33-.08a15.36,15.36,0,0,1,4.06-.74l-.28.19,1.57-3.37.44.43-.16.08-.07-.61,5.88,1.27-.32.52-.12-.15.57-.21c0,1.26,0,2.5,0,3.73l-.18-.28a14.91,14.91,0,0,1,3.42,2.37l-.32-.07,3.51-1.28v.59l-.2-.06.36-.47,3.27,5-.57.14,0-.22.53.25-2.62,2.67.07-.3a15,15,0,0,1,.76,4.1l-.18-.26,3.4,1.57-.39.41-.11-.21.56-.07L178,320.23l-.47-.28.18-.15.19.52-3.75,0,.25-.15a15,15,0,0,1-2.37,3.43l.06-.29,1.29,3.52h-.52l.07-.22.41.32-5,3.26-.12-.48.23,0-.21.45-2.68-2.61.26.06a15.27,15.27,0,0,1-4.09.75l.22-.15-1.58,3.4-.32-.31.19-.1.06.45-5.88-1.26.22-.37.13.16-.4.15c0-1.37,0-2.57-.05-3.73l.12.19a14.48,14.48,0,0,1-3.39-2.35l.2,0-3.5,1.29v-.36l.17,0-.22.29-3.27-5.05.31-.08v.17l-.29-.14,2.59-2.65,0,.15a14.75,14.75,0,0,1-.73-4l.08.12L143,312.79l.15-.16,0,.1-.21,0c.54-2.55.95-4.44,1.26-5.88l.12.07-.06,0-.05-.12,3.64,0a3.88,3.88,0,0,1-.9.08l-2.74.1H144l.17-.14.05,0,.16-.14,0,.21c-.29,1.45-.66,3.33-1.18,5.9l-.06.33-.16-.31-.05-.1-.15-.3.31.14,3.37,1.52.07,0v.08a14.42,14.42,0,0,0,.76,3.92l0,.09-.07.06L144.67,321l-.34.35,0-.49,0-.16,0-.48.27.4,3.3,5,.3.46-.52-.17-.17-.06-.52-.17.51-.19,3.49-1.31.12,0,.09.08a14.21,14.21,0,0,0,3.32,2.26l.11.06v.13c0,1.17,0,2.36.07,3.73V331l-.41-.49-.13-.16-.41-.49.63.13,5.89,1.23.66.14-.61.31-.19.09-.61.31.29-.62c.49-1.08,1-2.18,1.56-3.4l.06-.14h.15a14.22,14.22,0,0,0,4-.74l.15-.05.11.11c.86.84,1.73,1.69,2.69,2.61l.53.52-.74-.07-.23,0-.74-.08.62-.41c1.63-1.05,3.29-2.14,5-3.28l.66-.43-.25.74c0,.07,0,.14-.07.22l-.24.74-.28-.73c-.42-1.14-.84-2.29-1.3-3.52l-.06-.15.12-.13a14.67,14.67,0,0,0,2.28-3.32l.07-.15h.18l3.74-.05h.83l-.64.52-.18.15-.64.52.17-.81c.41-1.92.82-3.87,1.25-5.88l.18-.83.38.76.1.2.38.76-.77-.36-3.4-1.56-.17-.08v-.18a14.39,14.39,0,0,0-.73-3.95l-.06-.17.13-.13,2.62-2.69.61-.63-.08.88,0,.22-.08.88-.48-.74L174,301.56l-.48-.75.85.28.2.07.85.28-.84.31L171.1,303l-.18.07-.14-.13a14.49,14.49,0,0,0-3.29-2.27l-.17-.09v-.19c0-1.23,0-2.48,0-3.73v-.92l.59.71.12.15.58.71-.9-.19-5.88-1.26-.9-.2.82-.41.16-.08.83-.42-.39.85L160.72,299l-.08.18h-.2a14.89,14.89,0,0,0-3.89.71l-.18.07-.15-.14c-.87-.87-1.76-1.73-2.64-2.6l-.67-.66.93.1H154l.94.09-.79.51-5.06,3.26-.79.5.3-.89,0-.09.3-.91.32.9,1.25,3.45.07.19-.14.15a14.1,14.1,0,0,0-1.35,1.71c-.21.3-.4.61-.59.93l-.29.49,0,.06,0,0a.18.18,0,0,1-.07.05c-.07.17-.55-.09-.46-.11h0v-.06a.38.38,0,0,1,0-.15,1.07,1.07,0,0,1,.08-.32l.14-.26a14.37,14.37,0,0,1,2-2.87l.8-.9-.23,1.18v.07l-.22,1.15-.41-1.1c-.45-1.19-.9-2.37-1.31-3.47l-.09-.24.22-.15,5.16-3.38.22-.14.19.18,2.68,2.59.85.82-1.15-.26-.13,0-1.13-.27,1.11-.36a15.42,15.42,0,0,1,4-.75l1.17-.06-1,.66-.12.07-1,.66.48-1.06,1.57-3.41.11-.23.25,0,6.12,1.29.25.06v.25c0,1.3,0,2.59.06,3.76v1.15l-.6-1-.09-.14-.6-1,1,.51a15.25,15.25,0,0,1,3.34,2.29l.84.77-1.11-.22-.17,0-1.11-.22,1.06-.39,3.54-1.31.24-.08.13.21,3.43,5.28.13.2-.17.18-2.64,2.71-.76.78L175,309l0-.18.25-1.06.34,1a15.32,15.32,0,0,1,.73,4l0,1.08-.6-.9-.1-.15-.61-.9,1,.46,3.43,1.58.22.1-.05.24c-.46,2.14-.91,4.26-1.32,6.17l-.05.22h-.23l-3.78.05h-1l.86-.54.17-.1.86-.54-.46.92a15.24,15.24,0,0,1-2.3,3.32l-.67.74.19-1,0-.19.19-1,.34.94c.46,1.24.91,2.47,1.3,3.55l.08.21-.18.12c-1.86,1.19-3.67,2.36-5.3,3.42l-.18.11-.15-.15-2.7-2.64-.66-.64.9.21.18,0,.88.21-.86.28a15,15,0,0,1-4,.72l-.89,0,.74-.49.15-.1.73-.5-.37.81L160.62,332l-.08.17-.19,0-6.14-1.33-.18,0v-.18c0-1.32,0-2.62,0-3.76V326l.4.65.09.14.41.66-.69-.35a15.3,15.3,0,0,1-3.3-2.3l-.53-.49.71.14.15,0,.72.14-.69.25-3.53,1.28-.14.05-.08-.12-3.37-5.26-.07-.11.09-.1,2.63-2.66.4-.4-.13.54,0,.13-.13.55-.17-.54a15,15,0,0,1-.7-3.93l0-.5.27.42.07.09.28.42-.46-.22-3.35-1.59-.09,0,0-.09c.56-2.46,1-4.46,1.36-6l0-.05h.05l2.76,0,.69,0Z"/><g class="cls-15"><polyline class="cls-1" points="219.3 157.69 219.3 169 34.92 169 34.92 45.55 47.23 45.55"/><polyline class="cls-16" points="219.3 157.69 219.3 169 34.92 169 34.92 45.55 47.23 45.55"/></g><rect class="cls-7" x="47.8" y="33.62" width="184.38" height="123.45"/><path class="cls-12" d="M232.17,157.07s0-.77,0-2.24,0-3.67,0-6.51c0-5.72,0-14.1-.07-24.83,0-21.45-.08-52.28-.14-89.87l.26.27L47.81,34h0l.33-.33c0,44,0,85.81,0,123.45l-.3-.3,132.83.15,38,.08,10.09,0,2.61,0h.89s-.28,0-.86,0l-2.57,0-10,0-37.88.08-133,.15h-.31v-.31c0-37.64,0-79.47,0-123.45v-.33h.34l184.36.07h.27v.26c-.06,37.66-.11,68.54-.14,90,0,10.71-.05,19.07-.07,24.77,0,2.83,0,5,0,6.46S232.17,157.07,232.17,157.07Z"/><path class="cls-12" d="M47.8,44.64c0-.18,41.24-.33,92.1-.33s92.12.15,92.12.33S190.79,45,139.9,45,47.8,44.82,47.8,44.64Z"/><path class="cls-12" d="M55.07,39.08a1.48,1.48,0,1,1-1.48-1.48A1.48,1.48,0,0,1,55.07,39.08Z"/><path class="cls-12" d="M60.13,39.08a1.48,1.48,0,1,1-1.47-1.48A1.47,1.47,0,0,1,60.13,39.08Z"/><path class="cls-12" d="M65.12,39.08a1.48,1.48,0,1,1-1.47-1.48A1.47,1.47,0,0,1,65.12,39.08Z"/><g class="cls-15"><path class="cls-7" d="M55.07,39.08a1.48,1.48,0,1,1-1.48-1.48A1.48,1.48,0,0,1,55.07,39.08Z"/><path class="cls-7" d="M60.13,39.08a1.48,1.48,0,1,1-1.47-1.48A1.47,1.47,0,0,1,60.13,39.08Z"/><path class="cls-7" d="M65.12,39.08a1.48,1.48,0,1,1-1.47-1.48A1.47,1.47,0,0,1,65.12,39.08Z"/></g><g class="cls-15"><rect class="cls-1" x="63.65" y="57.51" width="49.18" height="49.18"/></g><path d="M206.89,71.42c0,.18-19.18.33-42.84.33s-42.84-.15-42.84-.33,19.18-.34,42.84-.34S206.89,71.23,206.89,71.42Z"/><path d="M206.89,80.55c0,.19-19.18.34-42.84.34s-42.84-.15-42.84-.34,19.18-.33,42.84-.33S206.89,80.37,206.89,80.55Z"/><path d="M206.89,89.69c0,.19-19.18.33-42.84.33s-42.84-.14-42.84-.33,19.18-.33,42.84-.33S206.89,89.51,206.89,89.69Z"/><path d="M171.85,98.83a11,11,0,0,1-2,.13l-5.43.11c-4.58.06-10.91.09-17.9.09s-13.32,0-17.91-.09L123.2,99a11,11,0,0,1-2-.13,11.74,11.74,0,0,1,2-.12l5.42-.11c4.59-.06,10.92-.1,17.91-.1s13.32,0,17.9.1l5.43.11A11.74,11.74,0,0,1,171.85,98.83Z"/><g class="cls-15"><rect class="cls-1" x="66.72" y="123.28" width="23.11" height="23.11"/><rect class="cls-17" x="66.72" y="123.28" width="23.11" height="23.11"/></g><g class="cls-15"><rect class="cls-1" x="108.64" y="123.28" width="23.11" height="23.11"/><rect class="cls-17" x="108.64" y="123.28" width="23.11" height="23.11"/></g><g class="cls-15"><rect class="cls-1" x="150.56" y="123.28" width="23.11" height="23.11"/><rect class="cls-17" x="150.56" y="123.28" width="23.11" height="23.11"/></g><g class="cls-15"><rect class="cls-1" x="192.48" y="123.28" width="23.11" height="23.11"/><rect class="cls-17" x="192.48" y="123.28" width="23.11" height="23.11"/></g><rect class="cls-7" x="379.27" y="285.76" width="208.7" height="84.77"/><path class="cls-12" d="M588,370.54s0-.52,0-1.52,0-2.47,0-4.4c0-3.86,0-9.55,0-16.87,0-14.63-.08-35.79-.13-62l.23.24-208.69.1h0l.33-.34c0,29.69,0,58.35,0,84.78l-.31-.32,149.64.15,43.4.09,11.62,0,3,0c.68,0,1,0,1,0l-1,0-3,0-11.55,0-43.34.08-149.85.15H379v-.31c0-26.43,0-55.09,0-84.78v-.33h.34l208.69.1h.24v.23c-.05,26.26-.09,47.47-.12,62.13,0,7.3-.05,13-.06,16.82,0,1.91,0,3.37,0,4.36S588,370.54,588,370.54Z"/><path class="cls-12" d="M379.48,297.2c0-.19,46.65-.33,104.18-.33s104.19.14,104.19.33-46.64.33-104.19.33S379.48,297.38,379.48,297.2Z"/><path class="cls-12" d="M388.21,292.08a1.51,1.51,0,1,1-1.51-1.51A1.51,1.51,0,0,1,388.21,292.08Z"/><path class="cls-12" d="M393.4,292.08a1.51,1.51,0,1,1-1.51-1.51A1.51,1.51,0,0,1,393.4,292.08Z"/><path class="cls-12" d="M398.52,292.08a1.52,1.52,0,1,1-1.51-1.51A1.52,1.52,0,0,1,398.52,292.08Z"/><g class="cls-15"><path class="cls-7" d="M388.21,292.08a1.51,1.51,0,1,1-1.51-1.51A1.51,1.51,0,0,1,388.21,292.08Z"/><path class="cls-7" d="M393.4,292.08a1.51,1.51,0,1,1-1.51-1.51A1.51,1.51,0,0,1,393.4,292.08Z"/><path class="cls-7" d="M398.52,292.08a1.52,1.52,0,1,1-1.51-1.51A1.52,1.52,0,0,1,398.52,292.08Z"/></g><rect class="cls-1" x="397.01" y="310.98" width="50.41" height="50.41"/><rect class="cls-17" x="397.01" y="310.98" width="50.41" height="50.41"/><path d="M573.53,324.48c0,.19-25.94.34-57.93.34s-57.94-.15-57.94-.34,25.94-.33,57.94-.33S573.53,324.3,573.53,324.48Z"/><path d="M573.53,334.75c0,.19-25.94.33-57.93.33s-57.94-.14-57.94-.33,25.94-.33,57.94-.33S573.53,334.57,573.53,334.75Z"/><path d="M532.25,345a2.67,2.67,0,0,1-.76.07l-2.17.06-8,.11-26.37.09-26.38-.09-8-.11-2.17-.06a2.67,2.67,0,0,1-.76-.07,3.75,3.75,0,0,1,.76-.06l2.17-.07,8-.1,26.38-.1,26.37.1,8,.1,2.17.07A3.75,3.75,0,0,1,532.25,345Z"/><path class="cls-6" d="M478.66,559.44c.84-3.89-1.84-7.65-4.78-10.32s-6.41-5-8-8.67c-2.63-5.88.26-13.75-4-18.57-2.51-2.84-6.84-3.65-9.09-6.7a15.83,15.83,0,0,1-2.13-5.52,57,57,0,0,0-15.21-25.9A49.4,49.4,0,0,0,442,509.05c1.78,3.07,3.92,6,4.61,9.52,1.11,5.64-1.82,11.62-.2,17.15,1.85,6.31,9.19,10.29,9.79,16.85.51,5.54-4.13,10.6-3.55,16.14a15.06,15.06,0,0,0,2.74,6.48c4.58,7,11.08,11.63,20.63,11.08l11.76-.22Z"/><path class="cls-18" d="M438,491.92s5.66,15.23,8.55,19.54a51.49,51.49,0,0,1,3.42,5.77c3.83,7.66,11,22.76,11.58,29.72.11,1.26.22,2.5.41,3.75.92,5.72,3.63,19.33,9.2,23.78"/><path class="cls-18" d="M521,497.24s-5,15.47-7.66,19.9a53.19,53.19,0,0,0-3.16,5.91c-3.48,7.83-9.94,23.24-10.23,30.22-.05,1.26-.1,2.51-.24,3.76-.66,5.77-2.75,19.48-8.12,24.18"/><path class="cls-19" d="M313.37,243.51l.19,0c2.18-.28,4.36-.57,6.55-.84a4,4,0,0,1,2.63.55,4.12,4.12,0,0,1,1.89,2.66,4.43,4.43,0,0,1-.22,3,4,4,0,0,1-3,2.36l-.27,0,1.82,2.4-.16,0-1.47.2a.24.24,0,0,1-.24-.11c-.51-.68-1-1.35-1.54-2a.51.51,0,0,0-.53-.22l-5.12.66-.22,0c0-.09.05-.17.08-.25l2.61-6.24a.75.75,0,0,1,.09-.15.17.17,0,0,1,.28,0,1.37,1.37,0,0,1,.16.18c1,1.27,1.93,2.53,2.88,3.8a.65.65,0,0,0,.49.27,2.08,2.08,0,0,0,.35,0,5.8,5.8,0,0,0,.92-.2,2.3,2.3,0,0,0,1.55-1.66,2.91,2.91,0,0,0-.64-2.91,2.33,2.33,0,0,0-2.06-.77c-1.92.23-3.85.48-5.77.73a.26.26,0,0,1-.29-.12c-.27-.38-.56-.75-.84-1.12A1.1,1.1,0,0,0,313.37,243.51Zm3.58,4.82c-.28.65-.54,1.28-.8,1.92h0l2.06-.26s0,0,0,0L317,248.32S317,248.32,317,248.33Z"/></g></svg>