<svg xmlns="http://www.w3.org/2000/svg" viewBox="0 0 623.13 623.13"><defs><style>.cls-1{isolation:isolate;}.cls-2{fill:#f8e3e3;}.cls-3{fill:#dfdfdf;}.cls-4{fill:#fff;}.cls-5{fill:#f5f5f5;}.cls-6{mix-blend-mode:multiply;}.cls-7{fill:#fbe2e2;}.cls-8{fill:#263238;}.cls-9{fill:#455a64;}.cls-10{fill:#ea0022;}.cls-11{fill:#eebd9d;}.cls-12{fill:#d79870;}.cls-13{opacity:0.3;}.cls-14{fill:#ae7461;}.cls-15{fill:#6f4439;}</style></defs><title>1</title><g class="cls-1"><g id="Character"><path class="cls-2" d="M8.37,413.47s-4.64,1.88.71,11.74a130.53,130.53,0,0,0,9,14.72s1,2.29-1,2.7-6.26-.16-7.07,2.25,1,4.8,4.73,6.75,11.66,6.54,12.38,7,1.42,1.47.15,2-10.93,1.76-10.06,6.3,12.09,8.29,13.3,8.73,1.52.94,1.44,1.6-3.36.78-6.09,1.25-5.81,1.5-5.09,4.08,7.45,7.86,23.46,9l7.46.05,3.89-6.4c7.49-14.21,6.57-22.7,4.76-24.68s-4.3.1-6.15,2.16-3.68,4.79-4.28,4.51-.88-.8-.6-2.07,3-12.76-.38-15.9-9.56,4.38-10.65,5.2-1.62-.35-1.59-1.16.34-10,.64-14.19-.66-7-3.23-7.58-4.27,3.38-5.65,4.81-2.81-.6-2.81-.6A130.56,130.56,0,0,0,18,420.23c-5.54-9.76-9.68-6.72-9.68-6.72"/><path class="cls-3" d="M52.16,493.31c-4-7.19-11-20.08-17-31.12s-11.5-21-15.5-28.22c-2-3.59-3.63-6.5-4.75-8.53l-1.29-2.32-.33-.6-.11-.21a1.53,1.53,0,0,1,.13.2l.35.59L15,425.4c1.15,2,2.79,4.9,4.81,8.49,4,7.19,9.53,17.16,15.56,28.19s13,23.94,17,31.15"/><path class="cls-3" d="M16.06,445.93a2.57,2.57,0,0,1,.52.13c.34.1.81.25,1.4.45,1.18.4,2.78,1,4.55,1.67l4.5,1.76,1.37.53a1.92,1.92,0,0,1,.49.21,2.75,2.75,0,0,1-.52-.13c-.33-.1-.81-.25-1.4-.46-1.17-.4-2.77-1-4.53-1.7l-4.51-1.72-1.37-.52A2.4,2.4,0,0,1,16.06,445.93Z"/><path class="cls-3" d="M29.39,450.19c-.06,0,1-3.39,2.39-7.52s2.54-7.47,2.6-7.45-1,3.39-2.39,7.52S29.45,450.21,29.39,450.19Z"/><path class="cls-3" d="M37.89,467.55a2.68,2.68,0,0,1,.29-.46l.85-1.24c.72-1,1.7-2.48,2.73-4.1s1.92-3.14,2.55-4.23c.29-.52.54-.95.74-1.3a2.87,2.87,0,0,1,.3-.46,1.87,1.87,0,0,1-.22.51c-.15.31-.38.77-.68,1.33-.6,1.12-1.46,2.64-2.49,4.27s-2,3.06-2.79,4.08c-.38.51-.69.91-.92,1.19A2.84,2.84,0,0,1,37.89,467.55Z"/><path class="cls-3" d="M25,466.35a3.32,3.32,0,0,1,.51,0l1.38.07c1.16.08,2.77.19,4.55.33l4.55.4,1.37.15a2.65,2.65,0,0,1,.5.08,1.83,1.83,0,0,1-.51,0L36,467.31c-1.16-.07-2.77-.18-4.55-.33s-3.38-.28-4.55-.39l-1.37-.15A1.71,1.71,0,0,1,25,466.35Z"/><path class="cls-3" d="M30.54,482.64a2.82,2.82,0,0,1,.66,0l1.77.09c1.49.08,3.55.21,5.83.37s4.34.32,5.84.45l1.76.16a2.94,2.94,0,0,1,.65.09,3.65,3.65,0,0,1-.65,0l-1.78-.09c-1.49-.08-3.55-.22-5.83-.38s-4.34-.31-5.84-.44l-1.76-.16Z"/><path class="cls-3" d="M46.66,483.66a4.2,4.2,0,0,1,.35-.6l1-1.6c.86-1.35,2-3.22,3.29-5.32s2.34-4,3.11-5.44l.92-1.66a4.87,4.87,0,0,1,.36-.6,4.72,4.72,0,0,1-.28.64c-.19.41-.48,1-.85,1.7-.74,1.42-1.81,3.37-3.06,5.47s-2.46,4-3.36,5.3c-.45.66-.82,1.2-1.08,1.56A4.06,4.06,0,0,1,46.66,483.66Z"/><rect class="cls-4" x="40.79" y="137.16" width="72.16" height="65.7" rx="5.27"/><path class="cls-2" d="M46.86,137.16h60.5a5.59,5.59,0,0,1,5.59,5.59v5.59a0,0,0,0,1,0,0H40.79a0,0,0,0,1,0,0v-5.11A6.07,6.07,0,0,1,46.86,137.16Z"/><path class="cls-4" d="M51.18,143.84a1.77,1.77,0,1,1-1.76-1.67A1.71,1.71,0,0,1,51.18,143.84Z"/><path class="cls-4" d="M56,143.84a1.77,1.77,0,1,1-1.77-1.67A1.72,1.72,0,0,1,56,143.84Z"/><path class="cls-4" d="M60.83,143.84a1.77,1.77,0,1,1-1.77-1.67A1.72,1.72,0,0,1,60.83,143.84Z"/><path class="cls-2" d="M107.69,202.85s.24,0,.69-.07a5.1,5.1,0,0,0,1.88-.65,5.21,5.21,0,0,0,2.61-4.37c0-.74,0-1.54,0-2.38,0-6.76-.05-16.52-.08-28.58,0-6,0-12.64,0-19.73,0-.89,0-1.78,0-2.68a26.77,26.77,0,0,0-.06-2.7,5.07,5.07,0,0,0-3.2-4,4.61,4.61,0,0,0-1.33-.31c-.45,0-.93,0-1.41,0H98l-51.89,0a5.06,5.06,0,0,0-4.86,3.7,5.17,5.17,0,0,0-.18,1.62V161c0,8.68,0,17.06,0,25q0,6,0,11.66a5.08,5.08,0,0,0,2.69,4.35,5.21,5.21,0,0,0,2.53.6h2.69l19.73,0,28.58.07,7.76.05,2,0,.69,0s-.23,0-.69,0l-2,0-7.76,0L68.64,203l-19.73,0H46.22a5.69,5.69,0,0,1-2.72-.63,5.51,5.51,0,0,1-2.9-4.71c0-3.78,0-7.67,0-11.66,0-8,0-16.35,0-25q0-6.51,0-13.24v-5.07a6.09,6.09,0,0,1,.2-1.74,5.53,5.53,0,0,1,5.31-4.05l51.89,0h8.8c.48,0,.95,0,1.45,0a5.33,5.33,0,0,1,1.43.34,5.44,5.44,0,0,1,3.45,4.31,25.7,25.7,0,0,1,.06,2.76v2.68c0,7.09,0,13.7,0,19.73,0,12.06-.05,21.82-.07,28.58,0,.84,0,1.63,0,2.39a5.34,5.34,0,0,1-2.72,4.44,5.22,5.22,0,0,1-1.93.62A4.49,4.49,0,0,1,107.69,202.85Z"/><rect class="cls-5" x="46.06" y="153.37" width="61.46" height="43.72" rx="4.46"/><path class="cls-2" d="M51.22,194.36l15-21.35a1.69,1.69,0,0,1,2.71-.09L79.24,185.7a1.7,1.7,0,0,0,2.5.16l6-5.8a1.7,1.7,0,0,1,2.48.13l11.84,14.05a1.7,1.7,0,0,1-1.3,2.8H52.61A1.7,1.7,0,0,1,51.22,194.36Z"/><path class="cls-2" d="M85.44,166.69a5.23,5.23,0,1,1-4.34-4.34A5.23,5.23,0,0,1,85.44,166.69Z"/><rect class="cls-4" x="567.56" y="302.94" width="50.11" height="45.62" rx="5.27"/><path class="cls-3" d="M573.63,302.94h38.45a5.59,5.59,0,0,1,5.59,5.59v2.17a0,0,0,0,1,0,0H567.56a0,0,0,0,1,0,0V309A6.07,6.07,0,0,1,573.63,302.94Z"/><path class="cls-4" d="M574.77,307.58a1.23,1.23,0,1,1-1.23-1.16A1.2,1.2,0,0,1,574.77,307.58Z"/><path class="cls-4" d="M578.12,307.58a1.23,1.23,0,1,1-1.23-1.16A1.2,1.2,0,0,1,578.12,307.58Z"/><path class="cls-4" d="M581.47,307.58a1.23,1.23,0,1,1-1.23-1.16A1.2,1.2,0,0,1,581.47,307.58Z"/><path class="cls-3" d="M612.4,348.56a6.57,6.57,0,0,0,1.8-.37,5.22,5.22,0,0,0,3.26-3.82,8.71,8.71,0,0,0,.11-1.8c0-.64,0-1.31,0-2,0-1.4,0-2.93,0-4.56,0-3.29,0-7,0-11.14s0-8.65,0-13.5c0-1.2,0-2.47,0-3.68a5.12,5.12,0,0,0-1.63-3.2c-1.88-1.89-4.81-1.19-7.49-1.32l-35.49,0a5,5,0,0,0-4.9,3.85,9.16,9.16,0,0,0-.14,2.24c0,3.07,0,6.09,0,9.06,0,5.93,0,11.66,0,17.12v8a5,5,0,0,0,1.34,3.33,5.07,5.07,0,0,0,3.11,1.59c4.8.09,9.35,0,13.47.07l19.55.07,5.31,0,1.38,0a4.24,4.24,0,0,1,.47,0,4.24,4.24,0,0,1-.47,0l-1.38,0-5.31,0-19.55.07c-4.14,0-8.63.07-13.52,0a5.48,5.48,0,0,1-3.35-1.7,5.38,5.38,0,0,1-1.46-3.59c0-2.59,0-5.25,0-8,0-5.46,0-11.19,0-17.12v-9.06a9.41,9.41,0,0,1,.15-2.35,5.5,5.5,0,0,1,5.35-4.2l35.49,0h4a5.49,5.49,0,0,1,5.48,4.9c0,1.29,0,2.5,0,3.72,0,4.85,0,9.37,0,13.5s0,7.85,0,11.14c0,1.63,0,3.16,0,4.56,0,.71,0,1.38,0,2a8.54,8.54,0,0,1-.13,1.84,5.3,5.3,0,0,1-3.41,3.87,4.65,4.65,0,0,1-1.36.28Z"/><rect class="cls-5" x="571.21" y="314.2" width="42.68" height="30.36" rx="4.46"/><path class="cls-2" d="M574.79,342.66l10.42-14.83a1.19,1.19,0,0,1,1.89-.06l7.16,8.88a1.17,1.17,0,0,0,1.73.11l4.2-4a1.18,1.18,0,0,1,1.72.09l8.22,9.76a1.18,1.18,0,0,1-.91,1.94H575.76A1.18,1.18,0,0,1,574.79,342.66Z"/><path class="cls-2" d="M598.56,323.45a3.63,3.63,0,1,1-3-3A3.63,3.63,0,0,1,598.56,323.45Z"/><rect class="cls-4" x="5.49" y="310.58" width="64.79" height="70.54" rx="5.27"/><path class="cls-3" d="M11.56,310.58H64.69a5.59,5.59,0,0,1,5.59,5.59v6.41a0,0,0,0,1,0,0H5.49a0,0,0,0,1,0,0v-5.93A6.07,6.07,0,0,1,11.56,310.58Z"/><path class="cls-4" d="M16.65,317.76a1.9,1.9,0,1,1-1.9-1.79A1.84,1.84,0,0,1,16.65,317.76Z"/><path class="cls-4" d="M21.83,317.76a1.9,1.9,0,1,1-1.9-1.79A1.84,1.84,0,0,1,21.83,317.76Z"/><path class="cls-4" d="M27,317.76A1.9,1.9,0,1,1,25.1,316,1.84,1.84,0,0,1,27,317.76Z"/><path class="cls-3" d="M65,381.12s.23,0,.67-.07a5.24,5.24,0,0,0,4-2.92,5.06,5.06,0,0,0,.51-1.95c0-.73,0-1.51,0-2.34,0-6.63,0-16.21-.07-28,0-5.92,0-12.4,0-19.36,0-3.48,0-7.07,0-10.78a5.06,5.06,0,0,0-2.79-4.34,5.33,5.33,0,0,0-2.69-.54H61.67l-50.9,0a5.08,5.08,0,0,0-4.83,3.58,11.59,11.59,0,0,0-.21,3.25V321c0,4.39,0,8.73,0,13,0,8.51,0,16.73,0,24.55,0,3.91,0,7.73,0,11.44,0,1.85,0,3.68,0,5.47a5.18,5.18,0,0,0,2,4.49,5,5,0,0,0,2.27,1,20.87,20.87,0,0,0,2.51.07H26.71l28,.08,7.62,0,2,0,.68,0-.68,0-2,0-7.62,0-28,.07-9.29,0H12.48a20.3,20.3,0,0,1-2.57-.07,5.23,5.23,0,0,1-2.44-1,5.53,5.53,0,0,1-2.17-4.8c0-1.79,0-3.62,0-5.47,0-3.71,0-7.53,0-11.44,0-7.82,0-16,0-24.55,0-4.26,0-8.6,0-13v-5a5.84,5.84,0,0,1,.24-1.71,5.52,5.52,0,0,1,5.27-3.91l50.9,0h2.92a5.75,5.75,0,0,1,2.88.59,5.46,5.46,0,0,1,3,4.7v10.79c0,7,0,13.44,0,19.36,0,11.82-.06,21.4-.08,28,0,.83,0,1.6,0,2.35a5.47,5.47,0,0,1-.54,2,5.4,5.4,0,0,1-2.22,2.31,5.08,5.08,0,0,1-1.9.59A5.6,5.6,0,0,1,65,381.12Z"/><path class="cls-2" d="M35.37,351.12,19.09,334.58a23.21,23.21,0,1,1-4.87,26.09,21.91,21.91,0,0,1-1-2.63Z"/><path class="cls-2" d="M31.62,350.33l-19.34,5.79a20.17,20.17,0,0,1,5-20Z"/><g class="cls-6"><rect class="cls-7" x="348.44" y="129.59" width="51.75" height="51.75" rx="7.12"/></g><polygon class="cls-4" points="356.45 156.21 361.66 151 371.71 159.93 388.5 143.08 393.34 148.29 370.97 169.99 356.45 156.21"/><path class="cls-2" d="M530.5,170l-.62-35.37h.62a35.38,35.38,0,1,1-33.76,45.92Z"/><path class="cls-2" d="M526.88,167.47l-30.3,9.61a30.76,30.76,0,0,1,28.8-41.56h.82Z"/><path class="cls-8" d="M603.45,493.31c0,.13-131.33.23-293.31.23s-293.34-.1-293.34-.23,131.31-.23,293.34-.23S603.45,493.18,603.45,493.31Z"/><rect class="cls-4" x="140.41" y="152.29" width="91.37" height="83.19" rx="5.27"/><path class="cls-3" d="M146.48,152.29H226.2a5.59,5.59,0,0,1,5.59,5.59v8.57a0,0,0,0,1,0,0H140.41a0,0,0,0,1,0,0v-8.09A6.07,6.07,0,0,1,146.48,152.29Z"/><path class="cls-4" d="M153.57,160.75a2.24,2.24,0,1,1-2.24-2.11A2.18,2.18,0,0,1,153.57,160.75Z"/><path class="cls-4" d="M159.67,160.75a2.24,2.24,0,1,1-2.24-2.11A2.18,2.18,0,0,1,159.67,160.75Z"/><path class="cls-4" d="M165.78,160.75a2.24,2.24,0,1,1-2.24-2.11A2.19,2.19,0,0,1,165.78,160.75Z"/><path class="cls-4" d="M150.46,173.91v50.88c0-.47,73.45,0,73.45,0"/><path class="cls-8" d="M223.91,224.79a1.14,1.14,0,0,1-.32,0l-1,0-3.62,0H205.7l-44,0-6.35,0-3.11,0c-.52,0-1,0-1.53.06l-.17,0h0c.53,0-.41-.26-.33-.2v-1.24c0-4.05,0-8,0-11.67,0-7.43,0-14.13.05-19.76s0-10.15.07-13.33c0-1.55,0-2.76,0-3.62l0-.94a2,2,0,0,1,0-.32,1.34,1.34,0,0,1,0,.32l0,.94c0,.86,0,2.07,0,3.62,0,3.18,0,7.72.08,13.33s0,12.33.05,19.76c0,3.72,0,7.62,0,11.67v1.24c.08.08-.84-.2-.3-.22h.05l.07,0,.21,0c.52,0,1-.05,1.55-.07l3.11,0,6.36,0c17.17,0,32.71.08,44,.17l13.32.14,3.63.07.94,0Z"/><rect class="cls-9" x="157.94" y="198.67" width="15.67" height="20.41"/><rect class="cls-9" x="179.23" y="187.75" width="15.67" height="31.33"/><rect class="cls-9" x="200.51" y="178.6" width="15.67" height="40.47"/><path class="cls-8" d="M226.52,235.47a8,8,0,0,0,.87-.1,5.24,5.24,0,0,0,4.29-4.55c.07-1.64,0-3.56,0-5.71,0-8.61,0-21.06-.08-36.44,0-7.69,0-16.12,0-25.16v-5.15a8.75,8.75,0,0,0-.09-1.71,5.07,5.07,0,0,0-4.78-4.15H211.86l-66.17,0a5,5,0,0,0-3.73,1.65,5.19,5.19,0,0,0-1.32,3.86v25.52c0,11.07,0,21.75,0,31.92q0,7.62,0,14.86a5.08,5.08,0,0,0,4.08,4.85,9.53,9.53,0,0,0,1.7.1h5.16l25.16,0,36.44.07,9.91.05,2.57,0,.88,0-.88,0-2.57,0-9.91,0-36.44.08-25.16,0H146.4a8.85,8.85,0,0,1-1.77-.1,5.46,5.46,0,0,1-4.41-5.23q0-7.23,0-14.87c0-10.17,0-20.85,0-31.92q0-8.31,0-16.89V158a5.65,5.65,0,0,1,1.44-4.17,5.48,5.48,0,0,1,4.07-1.81l66.17,0,14.87,0a5.48,5.48,0,0,1,5.16,4.49,8.93,8.93,0,0,1,.09,1.78v5.15c0,9,0,17.47,0,25.16,0,15.38-.06,27.83-.07,36.44,0,2.16,0,4.06-.06,5.73a5.36,5.36,0,0,1-2.06,3.57,5.25,5.25,0,0,1-2.36,1,3.63,3.63,0,0,1-.66.05Z"/><path class="cls-4" d="M573.06,276l-1.17-8.13a27.39,27.39,0,1,1,8.34,5.17h0Z"/><polygon class="cls-10" points="575.69 246.96 579.82 242.84 587.76 249.91 601.04 236.58 604.87 240.7 587.18 257.86 575.69 246.96"/><path class="cls-8" d="M573.06,276s.17-.09.48-.22l1.38-.6L580.2,273l0,.19h0a.1.1,0,0,1,0-.15.1.1,0,0,1,.13,0,27.07,27.07,0,0,0,17.18.84c.71-.18,1.39-.47,2.11-.7a16,16,0,0,0,2.11-.89,26.88,26.88,0,0,0,8-5.7,27.22,27.22,0,0,0-.13-37.85,28.16,28.16,0,0,0-11.22-6.86,27.29,27.29,0,0,0-6.35-1.16,26.73,26.73,0,0,0-12.2,2A27.19,27.19,0,0,0,572,267.83c.35,2.63.62,4.66.8,6.06.09.67.16,1.2.2,1.57s.06.56.06.56l-.09-.51c-.06-.37-.14-.88-.25-1.53-.21-1.41-.53-3.44-.94-6.08l0,.07a27.21,27.21,0,0,1-7.47-11.05,27.58,27.58,0,0,1,15.24-34.73A27.18,27.18,0,0,1,592,220.11a28,28,0,0,1,17.92,8.17,28.3,28.3,0,0,1,4,5.28,27.47,27.47,0,0,1,3.8,12.14,27.75,27.75,0,0,1-1.8,11.81,27.35,27.35,0,0,1-14.13,15.07,15.19,15.19,0,0,1-2.15.88c-.73.24-1.42.52-2.14.7a28.34,28.34,0,0,1-4.17.81,27.49,27.49,0,0,1-13.19-1.81l.1-.19h0a.12.12,0,0,1,0,.15.1.1,0,0,1-.05,0l-5.39,2.14-1.37.54Z"/><path class="cls-4" d="M54.34,287.38l.19-8.13c7.06-8.1,9.49-20.61,2.34-34.08-24.95-26.43-62.54.48-45.56,32.63,11.4,12.11,25.38,13.06,35.64,7.52h0Z"/><path class="cls-8" d="M54.34,287.38l-.5-.16-1.42-.42L47,285.22l0,.19h0a.11.11,0,0,0-.13-.18,26.82,26.82,0,0,1-16.78,2.85c-.72-.1-1.42-.29-2.15-.44a15.93,15.93,0,0,1-2.19-.62,26.66,26.66,0,0,1-15.35-13,27.23,27.23,0,0,1-3.08-11.2,27.18,27.18,0,0,1,5.56-17.68,27.63,27.63,0,0,1,10.21-8.06,27,27,0,0,1,6.11-1.89,26.45,26.45,0,0,1,12.22.55,26.91,26.91,0,0,1,13,43.46q0,3.94-.08,6.05c0,.67,0,1.19,0,1.57s0,.55,0,.55,0-.16,0-.51,0-.88.06-1.54c0-1.4.12-3.44.21-6.07l0,.07a27,27,0,0,0,6-11.74,27.21,27.21,0,0,0-43.42-27.51,27.61,27.61,0,0,0-4.74,4.74,28,28,0,0,0-3.34,5.67,27.2,27.2,0,0,0,16.51,36.9,15,15,0,0,0,2.22.61c.74.15,1.46.34,2.18.44a27.77,27.77,0,0,0,4.2.3A27.06,27.06,0,0,0,47,285.41l-.12-.17h0a.1.1,0,0,0,0,.15.09.09,0,0,0,0,0l5.55,1.47,1.41.37Z"/><path class="cls-8" d="M43.14,259.51C40.45,263,44.44,267,48,264.33,50.65,260.81,46.66,256.82,43.14,259.51Z"/><path class="cls-8" d="M31.67,259.51C29,263,33,267,36.5,264.33,39.18,260.81,35.2,256.82,31.67,259.51Z"/><path class="cls-8" d="M20.21,259.51C17.53,263,21.51,267,25,264.33,27.72,260.81,23.74,256.82,20.21,259.51Z"/><path class="cls-10" d="M177.19,358.59l-17.44-4.7-3.47,15.78-8.7-23.8c-4.06-11.38-9.61-15.3-13.44-16.36l-1.39,1.8,3.67,62.95L148,408.72c5.44,6.76,16.41,5.44,19.55-2.65C174.12,389.27,176.34,363.7,177.19,358.59Z"/><path class="cls-8" d="M54.37,493.06h87.24l-9.15-62.63-55.6-4s-9.59,9.4-12.77,20.44S54.37,493.06,54.37,493.06Z"/><path class="cls-8" d="M69,285.3c2.06-18.58,6.11-39,32.59-38,0,0,20,.7,26.3,14.87,3.44,7.68,2.47,36.84,4,60.89l3.87,30.85-80.1-12.38S67.76,296.85,69,285.3Z"/><path class="cls-11" d="M105.4,254.64l-1.71-1.52L86.06,260.9a5,5,0,0,0-4.55,5l4,59.13c.11,3.94-1,6.41,1.54,9.48l17.08,20.44c6,7.36,4.9-9.25,9.15-17.72.3-.59-1.14-2.71-1.06-3.13a10.53,10.53,0,0,0,.22-1.31c.38-4.7.28-8.76.28-8.76.15-5.15.18-7.26.19-7.22s10.89-1.61,13.39-15.76c1.24-7,.65-16.63-.07-26.07C125.25,261.89,115.92,254.28,105.4,254.64Z"/><path class="cls-8" d="M105.52,285.73a1.81,1.81,0,0,1-1.78,1.8,1.74,1.74,0,0,1-1.85-1.67,1.84,1.84,0,0,1,1.79-1.81A1.74,1.74,0,0,1,105.52,285.73Z"/><path class="cls-8" d="M123.05,285.55a1.81,1.81,0,0,1-1.79,1.8,1.73,1.73,0,0,1-1.84-1.67,1.81,1.81,0,0,1,1.78-1.8A1.74,1.74,0,0,1,123.05,285.55Z"/><path class="cls-8" d="M124.51,278.76c-.23.23-1.59-.81-3.55-.84s-3.4.93-3.61.68.13-.53.76-1a5,5,0,0,1,2.9-.84,4.74,4.74,0,0,1,2.82,1C124.43,278.22,124.62,278.66,124.51,278.76Z"/><path class="cls-8" d="M104.69,279.61c-.25.21-1.5-1-3.44-1.19s-3.49.56-3.67.3.19-.51.86-.89a5,5,0,0,1,3-.54,4.77,4.77,0,0,1,2.71,1.25C104.66,279.07,104.81,279.52,104.69,279.61Z"/><path class="cls-8" d="M112,293.61a13.31,13.31,0,0,1,3.19-.52c.5,0,1-.13,1.07-.47a2.61,2.61,0,0,0-.31-1.49l-1.41-3.83c-2-5.45-3.37-9.93-3.15-10s2,4.28,3.94,9.73c.48,1.35.93,2.63,1.35,3.86a2.86,2.86,0,0,1,.23,2,1.26,1.26,0,0,1-.83.72,3.55,3.55,0,0,1-.86.1A12.45,12.45,0,0,1,112,293.61Z"/><path class="cls-12" d="M112.93,316.79A36.09,36.09,0,0,1,94,311.4s4.61,9.9,18.82,8.82Z"/><path class="cls-8" d="M106.31,271.94c-.25.5-2.17,0-4.48,0s-4.23.4-4.48-.11c-.1-.24.28-.7,1.08-1.12a7.37,7.37,0,0,1,3.42-.76,7.45,7.45,0,0,1,3.4.82C106.05,271.23,106.42,271.69,106.31,271.94Z"/><path class="cls-8" d="M124,270.37c-.35.44-1.69,0-3.31-.09s-3,.25-3.31-.22c-.13-.23.09-.67.7-1.08a4.77,4.77,0,0,1,5.33.25C123.93,269.7,124.11,270.16,124,270.37Z"/><path class="cls-8" d="M82.69,290.71s10.1,2.79,15-22.09c1.66-8.51,9.26-15.61,9.26-15.61l-3.21-.85s-19.55,6.21-19.87,6.47S79.18,269,79.18,269Z"/><path class="cls-11" d="M85.12,289.71c0-1-1.16-3.56-2.2-3.75-2.78-.48-7.8-.34-8,6.73-.23,9.67,9.52,7.91,9.55,7.63S85.07,293.36,85.12,289.71Z"/><path class="cls-12" d="M81.63,296.59s-.17.11-.46.23a1.69,1.69,0,0,1-1.26,0c-1-.4-1.83-2-1.84-3.78a5.62,5.62,0,0,1,.53-2.41,1.94,1.94,0,0,1,1.3-1.26.86.86,0,0,1,1,.49c.13.27.06.46.11.48s.21-.16.14-.56a1,1,0,0,0-.36-.61,1.26,1.26,0,0,0-.93-.27,2.34,2.34,0,0,0-1.79,1.46A5.53,5.53,0,0,0,77.4,293c0,1.95,1,3.79,2.36,4.23a1.81,1.81,0,0,0,1.54-.22C81.61,296.82,81.66,296.6,81.63,296.59Z"/><path class="cls-8" d="M89.32,285.77s.53,0,1.43-.34a8.75,8.75,0,0,0,3.37-2.11,11.69,11.69,0,0,0,1.73-2.16,15.56,15.56,0,0,0,1.36-2.87,58.54,58.54,0,0,0,1.85-7.08c.6-2.54,1.25-4.94,2-7.08a40.52,40.52,0,0,1,2.34-5.54,31.09,31.09,0,0,1,2.09-3.46c.28-.39.52-.68.67-.88s.24-.3.25-.29-.07.12-.21.32-.36.51-.62.91a31.93,31.93,0,0,0-2,3.49,43.9,43.9,0,0,0-2.28,5.52c-.72,2.14-1.36,4.53-2,7.07a57.24,57.24,0,0,1-1.88,7.11,15.6,15.6,0,0,1-1.4,2.9,12,12,0,0,1-1.78,2.17,8.59,8.59,0,0,1-3.47,2.07A5.1,5.1,0,0,1,89.32,285.77Z"/><path class="cls-9" d="M77.48,327.37a2.45,2.45,0,0,1-.12-.46c-.07-.34-.17-.79-.29-1.36-.24-1.24-.59-3-1-5.21l.24,0c.06.34.12.73.19,1.13v0c.06.13.14.28.22.43l-.24.1a92.76,92.76,0,0,1-3.61-15.44,94.75,94.75,0,0,1-.92-10,46.22,46.22,0,0,1,.59-11A17.47,17.47,0,0,1,74.11,281a22.88,22.88,0,0,1,2.54-3.8c1.89-2.33,3.94-4.35,5.81-6.35l10-10.53,6.79-7.08,1.86-1.91.49-.49c.11-.1.17-.16.18-.15s0,.07-.15.18l-.46.52-1.8,2-6.68,7.17-10,10.6c-1.86,2-3.9,4-5.76,6.34a19,19,0,0,0-4.07,8.07,46.64,46.64,0,0,0-.59,10.93,94.49,94.49,0,0,0,.88,10,98.34,98.34,0,0,0,3.46,15.41l-.24.1c-.07-.16-.14-.3-.21-.43v0c-.06-.4-.12-.79-.18-1.14l.23,0c.4,2.24.72,4,.94,5.23.09.58.17,1,.22,1.38A2.78,2.78,0,0,1,77.48,327.37Z"/><path class="cls-9" d="M77.59,302.71a4,4,0,1,0,3.85-4.1A4,4,0,0,0,77.59,302.71Z"/><path class="cls-8" d="M136,344.83a3.74,3.74,0,0,1,.15.91c.07.68.17,1.55.28,2.63.25,2.29.48,5.61.7,9.71.42,8.21.41,19.57,0,32.1s-.75,23.86-.63,32.06c0,4.1.12,7.42.22,9.72,0,1.08.06,2,.09,2.64a5,5,0,0,1,0,.92,3.77,3.77,0,0,1-.13-.91c-.05-.68-.13-1.55-.22-2.64-.19-2.29-.34-5.61-.45-9.72-.24-8.22,0-19.57.42-32.1s.5-23.85.21-32c-.15-4.1-.3-7.42-.47-9.71-.06-1.08-.11-2-.14-2.64A5,5,0,0,1,136,344.83Z"/><path class="cls-4" d="M70.49,349.38l9.75,77.07L133,430.23l3.41,1.74-3.48-63.68L114.6,324.75l-1.84-1.12s-1.53,12.87-6.49,12.66c-3.38-.15-16.14-6.21-19-8.09L84.51,320Z"/><path class="cls-10" d="M59.27,441.21l11.22-25.72L59.62,333.16l18.92-7.93,6.19-6.69s5.75,21.24,7.55,28.68,6.93,23.8,9.22,38.46-.68,42.43-3,51.81-11.5,55.82-11.5,55.82H44.71S51.55,457.49,59.27,441.21Z"/><path class="cls-10" d="M112.93,319.06l4.49,4.57,16.72,5.88s4.92,19.28,5.11,25.22-.09,71.87,0,75,11.85,60.75,10.9,63.36H138.7s-6.15-47.37-6.56-59.77-1.92-42.85-5-57.75S112.75,324,112.75,324Z"/><path class="cls-8" d="M132.65,440.21a1,1,0,0,1,0-.31c0-.24,0-.54,0-.91,0-.85,0-2-.07-3.48,0-3.08-.07-7.43-.12-12.79-.11-10.81-.16-25.74-.43-42.22-.05-2.06-.09-4.1-.17-6.1s-.34-3.94-.55-5.88c-.44-3.86-.87-7.58-1.35-11.12s-1-6.89-1.63-10a42.84,42.84,0,0,0-2.69-8.35,107.41,107.41,0,0,0-5.79-11.37l-1.76-3-.46-.78a1.13,1.13,0,0,1-.14-.28,1.43,1.43,0,0,1,.2.24l.51.75c.45.66,1.09,1.64,1.87,2.94a96.24,96.24,0,0,1,6,11.32,42.63,42.63,0,0,1,2.8,8.42c.66,3.12,1.2,6.48,1.69,10s.94,7.27,1.39,11.13c.21,1.93.5,3.89.56,5.92s.13,4.05.18,6.12c.27,16.49.25,31.42.23,42.22,0,5.37-.06,9.72-.08,12.8q0,2.21-.06,3.48c0,.37,0,.67,0,.91A1.3,1.3,0,0,1,132.65,440.21Z"/><path class="cls-8" d="M101.22,416.42a4.61,4.61,0,0,1-.18-.92c-.09-.61-.2-1.51-.31-2.67-.23-2.33-.49-5.7-.55-9.87,0-2.09,0-4.38.06-6.84A29.3,29.3,0,0,0,99,388.49a124.65,124.65,0,0,0-6.5-16.73c-2.68-5.81-5.43-11.25-8-16.19a67.52,67.52,0,0,1-3.42-7.13,61.86,61.86,0,0,1-1.9-6.59c-1-4.07-1.53-7.41-1.9-9.71-.18-1.16-.3-2.06-.38-2.67a5,5,0,0,1-.07-.93,5.91,5.91,0,0,1,.21.92c.12.66.29,1.54.5,2.63.44,2.29,1.07,5.61,2.09,9.66a63.06,63.06,0,0,0,2,6.51,67.64,67.64,0,0,0,3.44,7.05c2.58,4.92,5.36,10.37,8,16.19a121.74,121.74,0,0,1,6.48,16.84,29.61,29.61,0,0,1,1.18,7.8c-.11,2.45-.15,4.73-.15,6.81,0,4.16.2,7.53.34,9.86.08,1.11.15,2,.2,2.67A6.64,6.64,0,0,1,101.22,416.42Z"/><path class="cls-8" d="M136.91,341.21a4.1,4.1,0,0,1,.47.79c.29.52.67,1.31,1.14,2.35a47,47,0,0,1,2.86,9.16,70.27,70.27,0,0,1,1.38,14.18c0,5.37-.44,11.24-1,17.39-1.13,12.3-1.85,23.45-2.09,31.53-.15,4-.23,7.32-.28,9.58,0,1.07,0,1.94-.07,2.6a4,4,0,0,1-.08.91,5.33,5.33,0,0,1-.06-.91c0-.66,0-1.53,0-2.61,0-2.26,0-5.53.06-9.58.13-8.1.77-19.28,1.91-31.57.54-6.15,1-12,1-17.34a72.43,72.43,0,0,0-1.23-14.08,51.71,51.71,0,0,0-2.64-9.16c-.43-1.05-.77-1.86-1-2.39A4.86,4.86,0,0,1,136.91,341.21Z"/><path class="cls-12" d="M105.35,297.07a5.61,5.61,0,0,0-.6,3.3,2.67,2.67,0,0,0,.66,1.78,2.31,2.31,0,0,0,1.69.63,4.89,4.89,0,0,0,1.78-.46,6.36,6.36,0,0,0,2.4-3.08C109.73,298.7,107,297.59,105.35,297.07Z"/><path class="cls-10" d="M109.17,302.15a2.48,2.48,0,0,1-2.16.77,3.16,3.16,0,0,1-1.18-.32,2.25,2.25,0,0,1-1-1,3.11,3.11,0,0,1-.33-1.52,9.8,9.8,0,0,1,.18-1.6,6.21,6.21,0,0,1,.46-1.48l.08-.19.19.07c1.69.63,3.16,1.2,4.21,1.63a7.76,7.76,0,0,1,1.65.76,8,8,0,0,1-1.74-.48c-1.08-.35-2.57-.87-4.26-1.48l.27-.11a6.67,6.67,0,0,0-.4,1.37,4.68,4.68,0,0,0,.07,2.84A2.25,2.25,0,0,0,107,302.6a3.41,3.41,0,0,0,1.58-.21C109,302.25,109.15,302.12,109.17,302.15Z"/><rect class="cls-4" x="155.54" y="263.61" width="303.16" height="229.7" rx="15.3"/><path class="cls-3" d="M170.62,263.61H443.05a15.76,15.76,0,0,1,15.76,15.76v15.25a0,0,0,0,1,0,0H155.54a0,0,0,0,1,0,0V278.68A15.07,15.07,0,0,1,170.62,263.61Z"/><path class="cls-8" d="M445.06,493.31l.68-.05c.22,0,.51,0,.84-.06l1.15-.18c.44-.1.92-.23,1.45-.38a12.88,12.88,0,0,0,1.68-.68,13.12,13.12,0,0,0,3.73-2.6,13.49,13.49,0,0,0,3.14-4.82l.27-.76c.08-.26.14-.53.21-.8a11.1,11.1,0,0,0,.32-1.68,33.36,33.36,0,0,0,.1-3.65c0-5.07,0-10.93,0-17.52,0-26.38,0-64.54-.08-111.69q0-17.69,0-37,0-9.66,0-19.69V281.62c0-1.69,0-3.42,0-5.12a13.3,13.3,0,0,0-1.22-4.91,13.44,13.44,0,0,0-7.37-6.88,13.88,13.88,0,0,0-5.12-.9H372l-202.83,0a13.36,13.36,0,0,0-11.19,6,13.58,13.58,0,0,0-2.17,6.14c-.08,1.08-.07,2.2-.07,3.32v81.55c0,33.93,0,66.66,0,97.84,0,3.89,0,7.77,0,11.61v5.76a44.41,44.41,0,0,0,.18,5.67,13.34,13.34,0,0,0,10.9,11.15,33.6,33.6,0,0,0,5.51.22l43,0,77.12,0,111.68.08,30.37,0,7.89,0,2.69,0-2.69,0-7.89,0-30.37,0-111.68.07-77.12,0h-43a35,35,0,0,1-5.59-.22,14,14,0,0,1-5.24-2.09,13.87,13.87,0,0,1-6-9.41,45.77,45.77,0,0,1-.18-5.73V458.69c0-31.18,0-63.91,0-97.84q0-25.44,0-51.75V279.3c0-1.12,0-2.23.07-3.36a14.21,14.21,0,0,1,2.24-6.36,13.82,13.82,0,0,1,11.58-6.2H444.76a14.27,14.27,0,0,1,5.26.93,13.81,13.81,0,0,1,8.83,12.14c.08,1.74,0,3.44,0,5.14,0,3.41,0,6.78,0,10.13v19.69q0,19.29,0,37c0,47.15-.05,85.31-.07,111.69,0,6.59,0,12.45,0,17.52a31.4,31.4,0,0,1-.12,3.67,11.48,11.48,0,0,1-.32,1.69c-.07.27-.13.55-.21.81s-.19.51-.29.76a13.54,13.54,0,0,1-6.94,7.45,15.12,15.12,0,0,1-1.69.67c-.54.15-1,.27-1.46.37l-1.16.17c-.33,0-.61,0-.84.05Z"/><circle class="cls-4" cx="171.87" cy="280.97" r="3.55"/><circle class="cls-4" cx="182.52" cy="280.97" r="3.55"/><circle class="cls-4" cx="193.18" cy="280.97" r="3.55"/><path class="cls-2" d="M188.47,331.9a20.13,20.13,0,0,1,4.89-2.12l1-4.83,8.17-.14,1.17,4.79a19.77,19.77,0,0,1,5,1.95l4.13-2.71,5.88,5.67-2.56,4.22a20.13,20.13,0,0,1,2.12,4.89l4.83,1,.14,8.17L218.4,354a19.77,19.77,0,0,1-2,5l2.71,4.13-5.67,5.87-4.22-2.55a20.13,20.13,0,0,1-4.89,2.12l-1,4.83-8.17.14L194,368.66a19.77,19.77,0,0,1-4.95-2L185,369.42l-5.87-5.68,2.55-4.21a20.13,20.13,0,0,1-2.12-4.89l-4.83-1-.14-8.17,4.79-1.17a19.77,19.77,0,0,1,1.95-4.95l-2.71-4.13,5.68-5.88,4.21,2.56Zm4.36,10.88a8.76,8.76,0,1,0,12.38-.22A8.75,8.75,0,0,0,192.83,342.78Z"/><path class="cls-2" d="M417.27,424a12.21,12.21,0,0,1,3-1.28l.61-2.92,4.93-.08.71,2.89a12.33,12.33,0,0,1,3,1.18l2.49-1.64,3.55,3.43L434,428.09a12,12,0,0,1,1.28,3l2.92.61.09,4.93-2.9.71a11.94,11.94,0,0,1-1.18,3l1.64,2.49-3.43,3.55-2.55-1.54a12,12,0,0,1-2.95,1.28l-.61,2.92-4.93.08-.71-2.89a12.33,12.33,0,0,1-3-1.18l-2.49,1.63-3.55-3.42,1.54-2.55a12.21,12.21,0,0,1-1.28-2.95l-2.92-.61-.08-4.93,2.89-.71a12.33,12.33,0,0,1,1.18-3L411.3,426l3.42-3.55,2.55,1.54Zm2.63,6.57a5.29,5.29,0,1,0,7.48-.13A5.29,5.29,0,0,0,419.9,430.53Z"/><path class="cls-3" d="M288.22,422.37a20.06,20.06,0,0,1,4.88-2.12l1-4.83,8.16-.14,1.18,4.79A19.92,19.92,0,0,1,308.4,422l4.13-2.71L318.4,425l-2.56,4.21a19.75,19.75,0,0,1,2.12,4.89l4.84,1,.14,8.17-4.79,1.17a20.39,20.39,0,0,1-1.95,5l2.7,4.12-5.67,5.88L309,456.83a20.06,20.06,0,0,1-4.88,2.12l-1,4.83-8.16.15-1.18-4.8a19.92,19.92,0,0,1-4.95-1.95l-4.13,2.71-5.87-5.67,2.56-4.22a20.23,20.23,0,0,1-2.12-4.88l-4.84-1-.14-8.16,4.79-1.18a20.57,20.57,0,0,1,1.95-4.95l-2.7-4.13,5.67-5.87,4.22,2.55Zm4.35,10.88A8.76,8.76,0,1,0,305,433,8.77,8.77,0,0,0,292.57,433.25Z"/><path class="cls-2" d="M333.46,452.79a11.23,11.23,0,0,1,2.8-1.22l.57-2.77,4.69-.08.67,2.75a11.13,11.13,0,0,1,2.84,1.12L347.4,451l3.37,3.26-1.47,2.42a11.39,11.39,0,0,1,1.22,2.8l2.77.58.08,4.68-2.75.67a11.47,11.47,0,0,1-1.11,2.84l1.55,2.37L347.8,474l-2.42-1.47a10.87,10.87,0,0,1-2.8,1.22l-.57,2.77-4.69.09-.67-2.75a11.91,11.91,0,0,1-2.84-1.12l-2.37,1.55-3.37-3.25,1.47-2.42a11.45,11.45,0,0,1-1.22-2.81l-2.77-.57-.08-4.69,2.75-.67a11.47,11.47,0,0,1,1.11-2.84l-1.55-2.37,3.26-3.37,2.42,1.47ZM336,459a5,5,0,1,0,7.11-.13A5,5,0,0,0,336,459Z"/><path class="cls-5" d="M231.86,451.26a7.31,7.31,0,0,1,1.77-.77l.36-1.74,2.95-.05.43,1.73a7.39,7.39,0,0,1,1.79.7l1.49-1,2.13,2-.93,1.52a7.48,7.48,0,0,1,.77,1.77l1.75.36,0,3-1.74.42A7,7,0,0,1,242,461l1,1.5-2.05,2.12-1.53-.92a7.28,7.28,0,0,1-1.77.76l-.36,1.75-2.95.05-.43-1.73a7,7,0,0,1-1.79-.71l-1.49,1-2.13-2.05.93-1.53a7.24,7.24,0,0,1-.77-1.76l-1.75-.37-.05-2.95,1.74-.42a7.07,7.07,0,0,1,.7-1.8l-1-1.49,2.05-2.12,1.53.92Zm1.57,3.94a3.17,3.17,0,1,0,4.48-.08A3.17,3.17,0,0,0,233.43,455.2Z"/><path class="cls-2" d="M376,329.48a20.09,20.09,0,0,1,4.88-2.13l1-4.83,8.16-.14,1.18,4.79a19.92,19.92,0,0,1,4.95,1.95l4.13-2.7,5.87,5.67-2.56,4.22a19.52,19.52,0,0,1,2.12,4.88l4.84,1,.14,8.16-4.79,1.17a20.64,20.64,0,0,1-1.95,5l2.7,4.12L401,366.49l-4.22-2.56a20.06,20.06,0,0,1-4.88,2.12l-1,4.84-8.16.14-1.18-4.8a20.29,20.29,0,0,1-4.95-1.94l-4.13,2.7-5.87-5.67,2.56-4.22a19.68,19.68,0,0,1-2.12-4.88l-4.84-1-.14-8.16,4.79-1.18a20.57,20.57,0,0,1,1.95-4.95l-2.7-4.13,5.67-5.87,4.22,2.56Zm4.35,10.87a8.76,8.76,0,1,0,12.39-.22A8.77,8.77,0,0,0,380.32,340.35Z"/><path class="cls-5" d="M202.44,434.91A11.15,11.15,0,0,1,205,433.8l.53-2.53,4.27-.07.62,2.51a10.42,10.42,0,0,1,2.59,1l2.16-1.42,3.08,3-1.34,2.21a10.34,10.34,0,0,1,1.11,2.56l2.53.52.07,4.28-2.51.61a10.49,10.49,0,0,1-1,2.6l1.42,2.16-3,3.07L213.33,453a10.34,10.34,0,0,1-2.56,1.11l-.52,2.53-4.28.08-.61-2.51a10.27,10.27,0,0,1-2.59-1l-2.17,1.41-3.07-3,1.34-2.2a10.34,10.34,0,0,1-1.11-2.56l-2.53-.53-.08-4.27,2.51-.62a10.57,10.57,0,0,1,1-2.59l-1.41-2.16,3-3.08,2.2,1.34Zm2.28,5.7a4.59,4.59,0,1,0,6.49-.12A4.58,4.58,0,0,0,204.72,440.61Z"/><path class="cls-10" d="M197.84,441.1a53.47,53.47,0,0,1-16.23-6.47l9.1-21.22a57,57,0,0,0,13.42,5.74,51,51,0,0,0,14.25,2.16q5.87,0,8.38-1.18a3.74,3.74,0,0,0,2.51-3.51c0-1.81-1.09-3.17-3.29-4.07a70,70,0,0,0-10.84-3,121.06,121.06,0,0,1-16.16-4.5,27.6,27.6,0,0,1-11.26-7.9q-4.78-5.47-4.79-14.86a26.19,26.19,0,0,1,4.43-14.8q4.42-6.66,13.23-10.48T222,353.23a75.66,75.66,0,0,1,16.94,1.91,51.86,51.86,0,0,1,14.67,5.61l-8.5,21.09q-12.33-6.4-23.35-6.41t-10.9,5.42q0,2.59,3.24,3.89a66.3,66.3,0,0,0,10.65,2.77,106.9,106.9,0,0,1,16.17,4.26,28.09,28.09,0,0,1,11.44,7.83q4.84,5.43,4.85,14.8a25.88,25.88,0,0,1-4.43,14.74q-4.44,6.6-13.24,10.48t-21.37,3.88A85.69,85.69,0,0,1,197.84,441.1Z"/><path class="cls-10" d="M335.26,419.58v21.95h-69.7V355.2H333.7v21.95H293.34v10.12h35.45v21H293.34v11.35Z"/><path class="cls-10" d="M389.86,397.68,358.64,365a44.2,44.2,0,0,1,12.9-9.11c22.24-10.35,48.81,0,58.86,22.89s0,50.27-22.23,60.61-48.81,0-58.86-22.89a47.61,47.61,0,0,1-1.92-5.2Z"/><path class="cls-10" d="M389.86,397.75l-42.47,13.67a47.13,47.13,0,0,1-2-13.67,46.5,46.5,0,0,1,13.75-33.12Z"/><g class="cls-13"><path d="M389.86,397.75l-42.47,13.67a47.13,47.13,0,0,1-2-13.67,46.5,46.5,0,0,1,13.75-33.12Z"/></g><path class="cls-3" d="M389.86,397.75l-32.94,30.69s-6.89-7.42-9.53-17Z"/><path class="cls-11" d="M158.93,398.54s2.66-2.92-1.65-3.76-26.16-.45-33.92,2.07l-10.55,1.79L114.66,416l6.59-1.51L137,416.82c1.8.28,7.32-2,2.95-4.91,0,0,5.19-2.53,1.27-5.9,0,0,3.81-2,.72-6Z"/><polygon class="cls-2" points="111.02 398.01 115.11 397.68 114.65 416.26 110.67 417.08 111.02 398.01"/><path class="cls-10" d="M59.93,332.73s-10,3.43-12,17.12c-2.26,14.9,3.63,40.89,3.87,50.32.18,7,4.75,23,19.61,22.45a232.15,232.15,0,0,0,39.9-5.32l-.07-19.51-35.33,0L72.35,364.7"/><path class="cls-8" d="M72.35,364.7s0,.19.08.57l.21,1.7c.17,1.52.42,3.72.74,6.56.62,5.72,1.52,14,2.64,24.27l-.16-.15,35.33-.08h.22v.22c0,6.19,0,12.73.08,19.51v.18l-.18,0a236.73,236.73,0,0,1-28.57,4.56c-4,.38-8,.66-12,.78a17.46,17.46,0,0,1-5.84-.92,16.23,16.23,0,0,1-5-2.89,22.93,22.93,0,0,1-6.3-9.28,30.94,30.94,0,0,1-2.11-10.57c-.21-3.47-.72-6.86-1.16-10.14s-.89-6.48-1.32-9.57c-.81-6.17-1.46-11.95-1.68-17.25A58.13,58.13,0,0,1,48.11,348a14.49,14.49,0,0,1,.38-1.51c.15-.49.27-1,.43-1.44a27.29,27.29,0,0,1,1.1-2.61,21.25,21.25,0,0,1,2.62-4.18,19.36,19.36,0,0,1,5.14-4.47,12.31,12.31,0,0,1,1.58-.82,4.17,4.17,0,0,1,.57-.21l-.55.26a15.35,15.35,0,0,0-1.55.85,19.74,19.74,0,0,0-5,4.5,21.21,21.21,0,0,0-2.57,4.17,24.53,24.53,0,0,0-1.06,2.59c-.16.46-.28.95-.42,1.43a11.74,11.74,0,0,0-.37,1.5,58.69,58.69,0,0,0-.72,14.2c.25,5.28.92,11,1.74,17.21.44,3.09.88,6.28,1.35,9.56s.95,6.67,1.18,10.18A30.18,30.18,0,0,0,54,409.6a22.42,22.42,0,0,0,6.18,9.09,15.72,15.72,0,0,0,4.9,2.81,17,17,0,0,0,5.68.89c3.92-.12,7.91-.4,11.93-.78a240.15,240.15,0,0,0,28.51-4.53l-.18.22c0-6.78,0-13.32,0-19.51l.21.21-35.33,0h-.15l0-.15c-1-10.28-1.91-18.56-2.49-24.28-.29-2.85-.51-5.05-.66-6.57-.06-.73-.12-1.3-.15-1.7S72.35,364.7,72.35,364.7Z"/><path class="cls-8" d="M72.17,407.16a11.12,11.12,0,0,1,3.69-9.35,25.46,25.46,0,0,0-2.52,4.41A26.24,26.24,0,0,0,72.17,407.16Z"/><path class="cls-8" d="M68.54,354.53a16.62,16.62,0,0,1-.64-2.35,39.74,39.74,0,0,0-1.9-5.52,40.48,40.48,0,0,0-2.74-5.16A19.71,19.71,0,0,1,62,339.43a8.94,8.94,0,0,1,1.57,1.88,29.45,29.45,0,0,1,4.69,10.79A9.92,9.92,0,0,1,68.54,354.53Z"/><path class="cls-14" d="M335,237.19,320.45,183.8c-3.19-13.39-13.65-22.7-26.95-19.14l-1.22.4a24.62,24.62,0,0,0-16.17,29.21c2.83,11.6,6.11,24.37,8.19,30.41,4.31,12.49,17.5,10.29,17.5,10.29s2.29,7.7,3.35,11.43l-.49,9.56,9.72-5.53Z"/><path class="cls-15" d="M301.8,235a31.93,31.93,0,0,0,14.74-10.25s-.81,10.74-13.7,13.76Z"/><path class="cls-8" d="M284.52,205.12a1.88,1.88,0,0,0,2.33,1.23,1.8,1.8,0,0,0,1.31-2.22,1.89,1.89,0,0,0-2.33-1.24A1.81,1.81,0,0,0,284.52,205.12Z"/><path class="cls-8" d="M280.61,198.93c.3.16,1.32-1.3,3.25-1.93s3.66-.14,3.8-.44c.06-.14-.3-.49-1.07-.73a5.16,5.16,0,0,0-3.13.06,5,5,0,0,0-2.49,1.83C280.53,198.37,280.47,198.86,280.61,198.93Z"/><path class="cls-8" d="M300.69,199.9a1.89,1.89,0,0,0,2.33,1.23,1.81,1.81,0,0,0,1.31-2.23,1.89,1.89,0,0,0-2.33-1.23A1.81,1.81,0,0,0,300.69,199.9Z"/><path class="cls-8" d="M299.65,193.11c.3.16,1.33-1.29,3.26-1.93s3.66-.13,3.79-.44c.07-.14-.29-.49-1.06-.73a5.09,5.09,0,0,0-3.13.07,5,5,0,0,0-2.5,1.82C299.57,192.55,299.51,193,299.65,193.11Z"/><path class="cls-8" d="M297.65,210.22a12.63,12.63,0,0,0-3.32.47c-.51.11-1,.17-1.2-.14A2.59,2.59,0,0,1,293,209c.07-1.34.14-2.75.22-4.23.25-6,.26-10.88,0-10.89s-.65,4.86-.9,10.86c-.05,1.48-.1,2.89-.14,4.24a2.9,2.9,0,0,0,.38,2,1.27,1.27,0,0,0,1.05.45,3,3,0,0,0,.87-.16A13.48,13.48,0,0,0,297.65,210.22Z"/><path class="cls-14" d="M322.5,193.43c.19-.16,7.78-5.4,10.35,3.26s-6.67,9.46-6.75,9.22S322.5,193.43,322.5,193.43Z"/><path class="cls-15" d="M327.77,201.84s.18.06.47.1a1.6,1.6,0,0,0,1.14-.31c.81-.61,1.15-2.29.73-3.87a5.24,5.24,0,0,0-1.06-2,1.78,1.78,0,0,0-1.48-.82.81.81,0,0,0-.77.67c0,.28.06.44,0,.47s-.23-.09-.26-.47a1,1,0,0,1,.18-.65,1.19,1.19,0,0,1,.77-.46,2.19,2.19,0,0,1,2,.87,5.4,5.4,0,0,1,1.24,2.26c.46,1.77,0,3.66-1.09,4.4a1.71,1.71,0,0,1-1.45.18C327.85,202,327.75,201.86,327.77,201.84Z"/><path class="cls-8" d="M304.12,209.67c-.3.07.26,2.07-1.06,4s-3.5,2.27-3.43,2.56c0,.13.58.25,1.49,0a5.15,5.15,0,0,0,2.9-2,4.51,4.51,0,0,0,.76-3.29C304.62,210.05,304.25,209.62,304.12,209.67Z"/><path class="cls-8" d="M255.29,187.86a2.19,2.19,0,0,1,.61-1.49,6.53,6.53,0,0,1,3.08-1.49,18.94,18.94,0,0,0,7.33-4.36,9.6,9.6,0,0,1-2.81-.94,5.68,5.68,0,0,1-3.18-4.94,1.25,1.25,0,0,1,.43-1c.51-.34,1.17.06,1.69.39a4.91,4.91,0,0,0,5,.55,8.11,8.11,0,0,0,3-2,1,1,0,0,1,.07-.15c.31-.6.62-1.18.92-1.74h0c2.3-4.2,4.43-7.28,7-9.3,3.72-3,10.59-5.77,15.34-5.93s9.79,2.24,11.75,6.57c1.85-2.83,5.56-3.92,8.94-3.6l.06-.06c3.71.19,6.68,3.17,8.69,6.29l.32.52a13.83,13.83,0,0,0,5.83,3.06c.38.1.82.22,1,.58a1.11,1.11,0,0,1-.31,1.06,6.79,6.79,0,0,1-2.38,1.94,16.61,16.61,0,0,0,1.82,2c.57.52,1.25,1.16,1.12,1.92a1.48,1.48,0,0,1-1.29,1.09,4.27,4.27,0,0,1-1.77-.24l1.92,2.35a8.28,8.28,0,0,1-3.72.85c.24,3.41,1.47,9.49,1.3,11.91-2.29.72-2.92.64-4,1.37-1.35.95,0,3.43-2.16,3.26-1.11-.09-3.76-3.4-4.39-4.31a51.39,51.39,0,0,1-8.39-20.3,16.93,16.93,0,0,0-6-2.08l.19.09c-3.91-.17-8.28-.18-11.14,2.48-2.22,2.07-2.95,5.23-4.25,8-2.48,5.2-6,8.63-11.44,10.51.64,4,2.36,10.27,3.24,13.89l-5.18-6.23v0c-.37-.35-.7-.71-1-1.07l-.11-.11v0c-.52-.58-1-1.17-1.61-1.73l0,0a2.33,2.33,0,0,1-4.15-2,5.34,5.34,0,0,1,.76-1.41,3.7,3.7,0,0,1-3.1,1.87,2.87,2.87,0,0,1-2.77-2.15,2.45,2.45,0,0,1,.83-2.3,8.32,8.32,0,0,1-4.81.35C256.45,189.65,255.33,189.07,255.29,187.86Z"/><path class="cls-9" d="M301.9,164.69a11.78,11.78,0,0,1,1.62.78,9.55,9.55,0,0,1,3.2,3.63,16.73,16.73,0,0,1,1.29,3.13c.35,1.16.63,2.44.94,3.78a34.13,34.13,0,0,0,1.14,4.19,16.39,16.39,0,0,0,.94,2.11,4.86,4.86,0,0,0,1.53,1.86,2,2,0,0,0,2,.06,3,3,0,0,0,1.34-1.39,6.9,6.9,0,0,0,.26-3.58l-.26.11a10.74,10.74,0,0,0,2.34,2.19,3.9,3.9,0,0,0,2.86.61,2.44,2.44,0,0,0,1.24-.62,2.17,2.17,0,0,0,.63-1.14,2.21,2.21,0,0,0-.07-1.2,1.64,1.64,0,0,0-.7-.87l-.1.16a8.25,8.25,0,0,0,3.34,1.23,6.64,6.64,0,0,0,.94.08,1.14,1.14,0,0,0,.32,0l-.32,0a9,9,0,0,1-.93-.13,8.63,8.63,0,0,1-3.24-1.28l-.1.16a1.68,1.68,0,0,1,.64,1.85,2,2,0,0,1-.57,1,2.34,2.34,0,0,1-1.13.54,3.69,3.69,0,0,1-2.67-.59,11.11,11.11,0,0,1-2.26-2.15l-.3-.36,0,.47a6.67,6.67,0,0,1-.25,3.43A2.65,2.65,0,0,1,314.4,184a1.71,1.71,0,0,1-1.68-.06,4.59,4.59,0,0,1-1.42-1.74,14.43,14.43,0,0,1-.92-2.06,35.09,35.09,0,0,1-1.16-4.15c-.31-1.34-.6-2.62-1-3.8a16.67,16.67,0,0,0-1.33-3.15,9.34,9.34,0,0,0-3.34-3.63A5.16,5.16,0,0,0,301.9,164.69Z"/><path class="cls-9" d="M266.37,188.73s0,0,.13.06l.38.13a4.19,4.19,0,0,0,.64.19,6.14,6.14,0,0,0,.89.17,11.75,11.75,0,0,0,5.72-.64,15,15,0,0,0,6.81-5.11,25.93,25.93,0,0,0,4.31-9.54c.46-1.81.74-3.61,1.14-5.31a17.69,17.69,0,0,1,1.68-4.7,9.08,9.08,0,0,1,3-3.31,6.58,6.58,0,0,1,1.86-.8,7.14,7.14,0,0,1,1.87-.18,7.67,7.67,0,0,1,5.1,2.23,9.37,9.37,0,0,1,1.22,1.7s0,0-.05-.13l-.17-.37a7.17,7.17,0,0,0-.91-1.29,8.06,8.06,0,0,0-2-1.5,7.71,7.71,0,0,0-3.18-.86,7.15,7.15,0,0,0-1.93.17,6.67,6.67,0,0,0-1.94.81,9.29,9.29,0,0,0-3.11,3.39,17.75,17.75,0,0,0-1.73,4.78c-.4,1.71-.68,3.5-1.14,5.3a25.93,25.93,0,0,1-4.24,9.44,14.86,14.86,0,0,1-6.66,5.07,11.83,11.83,0,0,1-5.62.73A16.61,16.61,0,0,1,266.37,188.73Z"/><path class="cls-9" d="M263.55,183.5a1.73,1.73,0,0,0,.55.19,11.12,11.12,0,0,0,1.55.28A14.5,14.5,0,0,0,268,184a15.93,15.93,0,0,0,2.83-.45,15.08,15.08,0,0,0,2.69-1,13.31,13.31,0,0,0,2-1.21,10.06,10.06,0,0,0,1.21-1c.26-.26.4-.41.38-.43s-.63.53-1.72,1.26a16,16,0,0,1-2,1.14,17.31,17.31,0,0,1-2.64,1,17.75,17.75,0,0,1-2.78.47,17.57,17.57,0,0,1-2.3,0C264.36,183.65,263.56,183.45,263.55,183.5Z"/><path class="cls-10" d="M268.26,263.65S267,260,271.35,255.1s31.9-15.27,31.9-15.27,10.21,9.94,21.77,3.65c9-4.89,8.3-12.56,8.3-12.56l35,5.86,1.19,26.43-12.54.07Z"/><path class="cls-14" d="M329.15,308.52,372.3,295l-14.09-34.14,27.21.52s19.63,38.31,12.2,49.49c-6.76,10.18-62.45,12.23-62.45,12.23Z"/><path class="cls-9" d="M341.35,330.73l-.18,2.32c-.16,2.08-2.68,3.51-5.06,2.95l-44.18-4.48.81-7,44.61,1.54C340.32,326,341.56,328.05,341.35,330.73Z"/><path class="cls-8" d="M275.48,350.75a27.14,27.14,0,1,1-3.24-51.58h0a27.14,27.14,0,0,1,3.24,51.58Zm-19.13-48.84a25.31,25.31,0,1,0,15.45-1A25.31,25.31,0,0,0,256.35,301.91Z"/><path class="cls-9" d="M275.33,349.14a27.15,27.15,0,1,1-3.24-51.59h0a27.14,27.14,0,0,1,3.24,51.59Zm-19.14-48.85a25.31,25.31,0,1,0,15.45-1A25.33,25.33,0,0,0,256.19,300.29Z"/><path class="cls-4" d="M280,306.58a2,2,0,0,1-.36-.26c-.24-.16-.56-.46-1-.76a19.39,19.39,0,0,0-4.13-2.19,24.39,24.39,0,0,0-3.08-1,27.61,27.61,0,0,0-3.65-.58,25.29,25.29,0,0,0-4.09,0,23.8,23.8,0,0,0-4.34.67,22.37,22.37,0,0,0-4.12,1.5,23.76,23.76,0,0,0-3.49,2.11,23,23,0,0,0-4.88,4.9,22.4,22.4,0,0,0-2.36,4c-.24.49-.37.91-.49,1.17a2.32,2.32,0,0,1-.19.41s0-.15.13-.43.22-.69.45-1.2a20.48,20.48,0,0,1,2.29-4.11,22.83,22.83,0,0,1,4.89-5,23.87,23.87,0,0,1,3.53-2.16,21.94,21.94,0,0,1,4.17-1.52,24.49,24.49,0,0,1,4.39-.68,23.56,23.56,0,0,1,4.13.06,24.92,24.92,0,0,1,3.69.61,23.52,23.52,0,0,1,3.1,1,18.28,18.28,0,0,1,4.11,2.29,10.37,10.37,0,0,1,1,.81Z"/><path class="cls-4" d="M279.25,342.51c0-.06,1.1-.73,2.64-2.17l.6-.58c.2-.2.39-.43.6-.66.43-.45.82-1,1.25-1.53a23.09,23.09,0,0,0,2.27-3.91,23.53,23.53,0,0,0,1.39-4.3c.12-.69.25-1.34.3-2,0-.3.07-.6.09-.89s0-.56,0-.82c0-2.11-.23-3.41-.16-3.42a4.84,4.84,0,0,1,.18.91,7.08,7.08,0,0,1,.12,1.07,12.77,12.77,0,0,1,.06,1.44c0,.27,0,.55,0,.84s-.05.59-.07.9c0,.63-.17,1.28-.28,2a20.23,20.23,0,0,1-3.71,8.32c-.44.55-.84,1.08-1.28,1.53-.22.23-.41.46-.62.66l-.62.57a12.81,12.81,0,0,1-1.1.91,14.39,14.39,0,0,1-1.68,1.11Z"/><path class="cls-4" d="M277.53,317.05c0,.08-5,.59-11.12,1.14s-11.14.94-11.15.86,5-.59,11.12-1.15S277.53,317,277.53,317.05Z"/><path class="cls-4" d="M280.42,324.77a1.26,1.26,0,0,1-.36,0l-1,.07-3.78.18c-3.19.16-7.6.39-12.47.69s-9.27.63-12.46.88l-3.77.28-1,.07h-.36a1.71,1.71,0,0,1,.36-.06l1-.12c.89-.1,2.17-.23,3.77-.38,3.18-.3,7.58-.65,12.45-1s9.29-.5,12.48-.6c1.6-.05,2.89-.09,3.79-.1h1Z"/><g class="cls-13"><path class="cls-4" d="M240.65,321l49.13-3a26.48,26.48,0,0,1,.94,7.42l-50.22,3.06A19.47,19.47,0,0,1,240.65,321Z"/></g><g class="cls-13"><path class="cls-4" d="M241.93,333.28l48.05-3.2s.33-.13-.66,2l-46.58,3.07A4.56,4.56,0,0,1,241.93,333.28Z"/></g><path class="cls-14" d="M329.15,308.52s-24.74,7.18-25.45,7.59-10.45,7.34-10.63,9.85,3.1,13.72,3.1,13.72,3.34.48,3.58-5.51l.25-6,4.11-3.68s-1.52,6.93-1.13,8.89,3.63,6.91,5.46,6.52a5.29,5.29,0,0,0,2.82-1.63s1.59,4.42,6.24,1.82c0,0,3,1.27,5.44.06s4.55-5.08,4.55-5.08a2.08,2.08,0,0,0-2.33-2.27,9.5,9.5,0,0,0-4.78,1.87l-.23-2.52a28.57,28.57,0,0,1,6.1-5.5c1.95-1.18,10.05-1.37,12.57-3.93,2.13-2.17-1.9-7-4.57-8.4h0a4.93,4.93,0,0,0-1.28-.47Z"/><path class="cls-15" d="M315.11,328.49s-.12.14-.27.44a7.4,7.4,0,0,0-.53,1.3,9.07,9.07,0,0,0,1.92,8.73,7.47,7.47,0,0,0,1,1,2,2,0,0,0,.43.29s-.57-.47-1.32-1.37a9.39,9.39,0,0,1-1.88-8.56C314.79,329.15,315.15,328.51,315.11,328.49Z"/><path class="cls-15" d="M310.46,325a2,2,0,0,0-.29.47,6.42,6.42,0,0,0-.28.58c-.1.24-.22.5-.32.8A12.43,12.43,0,0,0,309,329a14,14,0,0,0-.16,2.73,13.87,13.87,0,0,0,.41,2.72,12,12,0,0,0,.75,2.1c.12.3.27.55.38.77a5.52,5.52,0,0,0,.34.55,2.37,2.37,0,0,0,.32.45c.05,0-.39-.68-.88-1.84a13.89,13.89,0,0,1-.68-2.09,15.19,15.19,0,0,1-.38-2.67,18.12,18.12,0,0,1,0-2.87,10.92,10.92,0,0,1,.59-2C310.13,325.66,310.5,325,310.46,325Z"/><path class="cls-15" d="M305.52,320.3s-.26.14-.55.5a4,4,0,0,0-.76,1.64,3.31,3.31,0,0,0,0,1.81,1.43,1.43,0,0,0,.3.68,6.39,6.39,0,0,1-.08-2.44A6.19,6.19,0,0,1,305.52,320.3Z"/><path class="cls-15" d="M387.07,301.68c-.08,0-.52-1-1.61-2.34a13.35,13.35,0,0,0-5.36-4,11.43,11.43,0,0,0-6.66-.51c-1.71.35-2.72.79-2.75.71a2.37,2.37,0,0,1,.68-.36,13.09,13.09,0,0,1,2-.67,11.09,11.09,0,0,1,6.9.4,12.73,12.73,0,0,1,5.45,4.27A10,10,0,0,1,386.8,301,2.61,2.61,0,0,1,387.07,301.68Z"/><path class="cls-10" d="M352.09,252c-.43-14.41,18.36-20.83,26.78-9.12l.15.2c7.93,11.31,17.53,38,17.53,38l-34,5.28-8.49-23.21A43.15,43.15,0,0,1,352.09,252Z"/><path class="cls-14" d="M246.12,262.07a2.87,2.87,0,0,1,.15.37,6.33,6.33,0,0,1,.36,1.77,6.12,6.12,0,0,0,0,.86,3.27,3.27,0,0,0,.24.5,8.58,8.58,0,0,1,.31,3.53,6.75,6.75,0,0,0,.65,3.78c.68,1.11,2.26,1.77,3.32,1a1.71,1.71,0,0,0,1.27,1.85,2.46,2.46,0,0,0,2.27-.7,4.54,4.54,0,0,0,1.13-2.17,1.87,1.87,0,0,0,1.87,1.81,2.87,2.87,0,0,0,2.37-1.45,6.55,6.55,0,0,0,.82-2.77,31.12,31.12,0,0,1,.59-3.71s1.21.2,1.77.25l.16,0a22.62,22.62,0,0,0,1.17-2c.77-1.6,1.37-2.61,2-4.07.45-1.08.73-2.17.06-2.87-1.62-1.7-4.78,1.76-4.78,1.76-.44-1.21-4.12-1.41-4.83.2-.29-.88-.18-1.4-.9-2a3,3,0,0,0-2.6-.66,2.12,2.12,0,0,0-1.58,2,3.59,3.59,0,0,0-3.73-1.55,3.53,3.53,0,0,0-2.07,1.43,3.64,3.64,0,0,0-.53,1.17,1.57,1.57,0,0,0-.09.48.6.6,0,0,0,.08.21C245.76,261.48,246,261.75,246.12,262.07Z"/><path class="cls-14" d="M242.24,259.72a2.79,2.79,0,0,0-2.2.74,4.51,4.51,0,0,0-.69,3.05c1.11.21,1.68.26,2.79.46.23,0,.43,0,.62.13.51.36.43,1.58.64,2.18a2.13,2.13,0,0,0,2.69,1.15,2.86,2.86,0,0,0,1.73-2.55,4.42,4.42,0,0,0-1.13-3A6.15,6.15,0,0,0,242.24,259.72Z"/><path class="cls-15" d="M252,259.11c.21,0,.21,3.33,0,7.42s-.55,7.38-.76,7.37-.2-3.33,0-7.41S251.74,259.1,252,259.11Z"/><path class="cls-15" d="M257.05,259.82c.2,0,.47,3,.14,6.72s-1.1,6.65-1.29,6.61.23-3,.54-6.67S256.83,259.82,257.05,259.82Z"/><path class="cls-15" d="M262,260.5c.21,0,.3,2.51-.09,5.56s-.86,5.46-1.06,5.44-.08-2.51.31-5.53S261.82,260.5,262,260.5Z"/><path class="cls-15" d="M243.84,260.24c0-.09.53-.21,1.3.14a4.17,4.17,0,0,1,2,2.39,8.39,8.39,0,0,1,.51,3.05c-.1.92-.76,1.19-.78,1.07s.3-.4.24-1.08a14.71,14.71,0,0,0-.67-2.77,4.6,4.6,0,0,0-1.6-2.19C244.3,260.44,243.83,260.36,243.84,260.24Z"/><path class="cls-8" d="M368.6,237.77c0,.09-1.48.41-3.65,1.53a18.23,18.23,0,0,0-9.9,15.22,37.84,37.84,0,0,0,.08,4,4.1,4.1,0,0,1-.24-1.05,15.42,15.42,0,0,1-.17-2.93A17.68,17.68,0,0,1,364.81,239a14.93,14.93,0,0,1,2.74-1A4.52,4.52,0,0,1,368.6,237.77Z"/><path class="cls-11" d="M153.32,341.54c-.82-.29-1.29-.2-1.83-.88a2.72,2.72,0,0,1-.56-2.43,2,2,0,0,1,1.93-1.43,3.21,3.21,0,0,1,0-5.39,3.53,3.53,0,0,1,1.09-.47,1.41,1.41,0,0,1,.45-.07.56.56,0,0,1,.2.08c.28.16.53.36.82.5l.34.15a6.19,6.19,0,0,0,1.64.37,5.29,5.29,0,0,1,.8,0,2.82,2.82,0,0,1,.46.23,8,8,0,0,0,3.27.36,6.3,6.3,0,0,1,3.5.68,2.32,2.32,0,0,1,.89,3.11,1.58,1.58,0,0,1,1.7,1.22,2.28,2.28,0,0,1-.7,2.09,4.28,4.28,0,0,1-2,1,1.74,1.74,0,0,1,1.65,1.77,2.69,2.69,0,0,1-1.4,2.18,6.06,6.06,0,0,1-2.59.7c-.89.09-3.74.49-4.61.71l-3.31,0a2.66,2.66,0,0,1-2.55-3.69A1.65,1.65,0,0,1,153.32,341.54Z"/><path class="cls-11" d="M153.32,327.8a2.63,2.63,0,0,1,.72-2,2.26,2.26,0,0,1,2-.6,16.19,16.19,0,0,0,1,2.69,3.71,3.71,0,0,0,.36.52c.33.48,1.47.43,2,.63a2,2,0,0,1,1,2.53,1.83,1.83,0,0,1-1.93,1.3,6.1,6.1,0,0,1-3.43-1.17A4.86,4.86,0,0,1,153.32,327.8Z"/><path class="cls-12" d="M152.56,336.81c0,.08,3.09.06,6.88-.05s6.88-.27,6.88-.36-3.09-.06-6.88.05S152.56,336.72,152.56,336.81Z"/><path class="cls-12" d="M153.11,341.56a9.44,9.44,0,0,0,1.82.15c1.13,0,2.7,0,4.42-.08a44.11,44.11,0,0,0,4.39-.49,9,9,0,0,0,1.78-.38,12.1,12.1,0,0,0-1.81.16c-1.12.13-2.67.29-4.38.4s-3.27.15-4.39.17A12,12,0,0,0,153.11,341.56Z"/><path class="cls-12" d="M154.73,346.29a11.33,11.33,0,0,0,1.34,0c.83-.05,2-.15,3.25-.28l3.24-.38a12.89,12.89,0,0,0,1.34-.19,7.91,7.91,0,0,0-1.35.08c-.83.07-2,.19-3.24.33s-2.41.25-3.24.32A11.19,11.19,0,0,0,154.73,346.29Z"/><path class="cls-12" d="M153.77,329.3a1.66,1.66,0,0,0,.23,1.14,3.93,3.93,0,0,0,2.12,1.83,8.75,8.75,0,0,0,1.5.42,6,6,0,0,0,1.26.15,1.33,1.33,0,0,0,.83-.29c.16-.14.19-.26.18-.27a1.45,1.45,0,0,1-1,.34,7.07,7.07,0,0,1-1.2-.21,8.64,8.64,0,0,1-1.44-.43,4.09,4.09,0,0,1-2.05-1.64A6.71,6.71,0,0,1,153.77,329.3Z"/><rect class="cls-4" x="404.51" y="203.15" width="81.16" height="73.89" rx="5.27"/><path class="cls-3" d="M410.58,203.15h69.5a5.59,5.59,0,0,1,5.59,5.59v7a0,0,0,0,1,0,0H404.51a0,0,0,0,1,0,0v-6.5A6.07,6.07,0,0,1,410.58,203.15Z"/><path class="cls-4" d="M416.2,210.67a2,2,0,1,1-2-1.87A1.93,1.93,0,0,1,416.2,210.67Z"/><path class="cls-4" d="M421.62,210.67a2,2,0,1,1-2-1.87A1.93,1.93,0,0,1,421.62,210.67Z"/><path class="cls-4" d="M427,210.67a2,2,0,1,1-2-1.87A1.93,1.93,0,0,1,427,210.67Z"/><path class="cls-8" d="M480.41,277s.27,0,.77-.09a5.18,5.18,0,0,0,2.09-.81,5.23,5.23,0,0,0,2.12-2.9,7.55,7.55,0,0,0,.21-2.33c0-.84,0-1.74,0-2.69,0-7.63,0-18.65-.08-32.26,0-6.81,0-14.27,0-22.28v-4.56a9.33,9.33,0,0,0-.07-1.51,5.1,5.1,0,0,0-3.93-4.14,20.64,20.64,0,0,0-3.17-.11h-9.94l-58.58,0a5.05,5.05,0,0,0-5,4.52c0,2.52,0,5.11,0,7.63q0,7.59,0,14.94c0,9.8,0,19.26,0,28.26V271.9a5,5,0,0,0,3.32,4.63,7.93,7.93,0,0,0,3,.32h3l22.28,0,32.25.07,8.77,0,2.28,0,.78,0-.78,0-2.28,0-8.77,0-32.25.08-22.28,0h-3a8.1,8.1,0,0,1-3.11-.34,5.46,5.46,0,0,1-3.59-5q0-6.41,0-13.17c0-9,0-18.46,0-28.26q0-7.35,0-14.94c0-2.54,0-5.06,0-7.67a5.51,5.51,0,0,1,5.48-5l58.58,0h11.55a7.6,7.6,0,0,1,1.64.12,5.49,5.49,0,0,1,4.24,4.47,9.43,9.43,0,0,1,.07,1.58v4.56c0,8,0,15.47,0,22.28,0,13.61-.06,24.63-.07,32.26,0,.95,0,1.85,0,2.69a7.9,7.9,0,0,1-.23,2.37,5.28,5.28,0,0,1-2.21,2.93,5,5,0,0,1-2.13.79A3.53,3.53,0,0,1,480.41,277Z"/><rect class="cls-10" x="410.43" y="221.39" width="69.13" height="49.17" rx="4.46"/><path class="cls-4" d="M416.24,267.49l16.87-24a1.91,1.91,0,0,1,3.05-.1l11.6,14.38a1.91,1.91,0,0,0,2.81.18l6.79-6.52a1.92,1.92,0,0,1,2.79.14l13.31,15.81A1.91,1.91,0,0,1,472,270.5H417.8A1.91,1.91,0,0,1,416.24,267.49Z"/><polygon class="cls-8" points="489.42 493.1 487.88 456.11 576.6 456.47 587.14 493.1 489.42 493.1"/><path class="cls-9" d="M511.53,493.38a3.44,3.44,0,0,1-.33-.85c-.18-.57-.41-1.38-.67-2.4-.52-2-1.14-4.88-1.79-8s-1.21-5.86-1.65-8c-.21-.94-.38-1.75-.53-2.43a2.86,2.86,0,0,1-.15-.9,4,4,0,0,1,.33.86c.17.56.41,1.38.67,2.4.52,2,1.14,4.87,1.79,8s1.2,5.86,1.65,8c.2.95.38,1.75.53,2.43A3.86,3.86,0,0,1,511.53,493.38Z"/><path class="cls-9" d="M576,473s-.09.07-.29.17a7.82,7.82,0,0,1-.86.39,16.13,16.13,0,0,1-3.34.92,25.2,25.2,0,0,1-11.33-.9,63,63,0,0,1-10.5-4.46l-3.06-1.6a6,6,0,0,1-1.09-.63,6.58,6.58,0,0,1,1.17.47c.75.33,1.81.84,3.13,1.46a72.6,72.6,0,0,0,10.48,4.31,26.38,26.38,0,0,0,11.15,1A28,28,0,0,0,576,473Z"/><path class="cls-9" d="M517.32,471.71a2.9,2.9,0,1,1-2.9-2.89A2.9,2.9,0,0,1,517.32,471.71Z"/><path class="cls-8" d="M546.6,287.62a101.16,101.16,0,0,0,5.5-16.36,34.89,34.89,0,0,0-.18-17.11c-.24-.84-2.45-6.5-3.32-6.47-.62,0,.61,5.24.26,5.76-3.35,4.92-4.59,11-4.53,17a77.25,77.25,0,0,0,2.27,17.18"/><path class="cls-11" d="M512.12,317.23c.25-4.06.42-7.27.39-7.27s-13.83-2.39-13.78-16.25c0-6.7,1.2-20.49,2.41-32.95a25.85,25.85,0,0,1,26.14-23.35l1.34,0c14.41,1.07,21.55,13.91,20.07,28.29l-3.55,50.45-10.6,11c-8.45,8.75-23.22,2.21-22.42-9.93Z"/><path class="cls-12" d="M512.51,310a33.53,33.53,0,0,0,18.14-5s-4.56,10-18.38,8.54Z"/><path class="cls-8" d="M504.42,273a2,2,0,0,0,1.88,2,1.89,1.89,0,0,0,2.07-1.75,2,2,0,0,0-1.88-2A1.9,1.9,0,0,0,504.42,273Z"/><path class="cls-8" d="M504,266.55c.25.26,1.76-.82,3.89-.78s3.68,1.13,3.91.87-.12-.58-.8-1.09a5.47,5.47,0,0,0-3.12-1,5.23,5.23,0,0,0-3.1,1C504.12,266,503.89,266.43,504,266.55Z"/><path class="cls-8" d="M523.42,274.16a2,2,0,0,0,1.87,2,1.89,1.89,0,0,0,2.07-1.75,2,2,0,0,0-1.87-2A1.89,1.89,0,0,0,523.42,274.16Z"/><path class="cls-8" d="M523.84,267.62c.24.27,1.76-.82,3.89-.78s3.67,1.13,3.91.88-.13-.59-.8-1.09a5.36,5.36,0,0,0-3.13-1,5.19,5.19,0,0,0-3.1.94C524,267,523.72,267.51,523.84,267.62Z"/><path class="cls-8" d="M517,284a14.27,14.27,0,0,0-3.45-.68c-.54-.07-1-.18-1.14-.55a2.82,2.82,0,0,1,.39-1.61c.53-1.31,1.09-2.68,1.68-4.12,2.33-5.86,4-10.69,3.78-10.78s-2.31,4.59-4.64,10.45L512,280.85a3.15,3.15,0,0,0-.32,2.13,1.39,1.39,0,0,0,.88.82,3.81,3.81,0,0,0,.92.14A14,14,0,0,0,517,284Z"/><path class="cls-11" d="M547.4,276c.23-.1,9.57-2.66,9.11,6.81s-9.87,7.06-9.88,6.79S547.4,276,547.4,276Z"/><path class="cls-12" d="M549.7,286.13s.16.12.43.26a1.66,1.66,0,0,0,1.24.09c1-.32,1.93-1.87,2.06-3.57a5.28,5.28,0,0,0-.35-2.39,1.91,1.91,0,0,0-1.18-1.33.84.84,0,0,0-1,.41c-.14.26-.09.45-.14.46s-.2-.17-.1-.55a1.06,1.06,0,0,1,.4-.58,1.28,1.28,0,0,1,.92-.2,2.33,2.33,0,0,1,1.66,1.56,5.5,5.5,0,0,1,.44,2.66c-.15,1.91-1.21,3.65-2.6,4a1.81,1.81,0,0,1-1.5-.32C549.71,286.36,549.67,286.14,549.7,286.13Z"/><path class="cls-8" d="M508.16,245.41c-1.48-.93,3.4-5.63,7.27-7.13,5.84-2.26,14.62-3.35,19.78-1.56,6.22,2.15,11.29,5.59,14.14,11.52a37.35,37.35,0,0,1,3.09,19.26,11.38,11.38,0,0,1-1.66,5.71c-1.44,2-4.06,3.19-4.11,6.09a4,4,0,0,1-1.15,2.83c-1.84,1.75-3.86-.11-4.73-1.9-1.87-3.83-1.85-8.27-1.79-12.53a27.56,27.56,0,0,1,1.11-9c.55-1.55,1.38-3,1.85-4.58a5.74,5.74,0,0,0-.4-4.77,6.55,6.55,0,0,0-.73-.82,9.89,9.89,0,0,0-9.69-2.42c-5.44,1.58-14.71,3.88-17,1.93-3.28-2.8-4-4.54-4-4.54Z"/><path class="cls-8" d="M517.35,291.37c0,.16.47.38,1.29.35a5.62,5.62,0,0,0,4.88-3.61c.26-.78.2-1.3,0-1.34-.36-.09-1,1.59-2.73,2.81S517.37,291,517.35,291.37Z"/><path class="cls-11" d="M430.1,361.55c-1.94-3.19-4.24-6.67-4.24-6.67l-1.88-3.2a4.21,4.21,0,0,0-.43.61,2.73,2.73,0,0,1-.9,1.06,2.2,2.2,0,0,1-2.44-.59,5.4,5.4,0,0,1-1.64-5.1,5.34,5.34,0,0,1,3.45-3.81,4,4,0,0,1,1-1.17c2.7-2.2,7.54-.7,7.54-.7l-.5-1.21s-2.89-2.86-9.26-.62a4.19,4.19,0,0,1-2.94,0,2.12,2.12,0,0,1-1.3-1.25c-.51-1.57.47-2.32,4.43-3.77s8.26-1.54,10.64,0a28.35,28.35,0,0,1,3.2,2.31s-3.89-11.19-4.11-11.91c-.63-2.08-.23-4.09,1.11-4.64.87-.35,2.22-.15,3,2.24.7,2.08,10.57,22.42,10.57,22.42l3.84,9.26,1.92,8.14-13.86,3.91-1-.34A11.59,11.59,0,0,1,430.1,361.55Z"/><path class="cls-11" d="M447.14,354.62a3.1,3.1,0,0,1-3.55-.58c-1-.83-1.67-2-2.6-2.87-2.77-2.69-7.33-2.9-10-5.72-.36-.39-.7-1-.39-1.43s.89-.36,1.38-.27l12.55,2.36"/><path class="cls-12" d="M444.56,346.11a4.79,4.79,0,0,0-1.33-.39c-.86-.21-2.12-.48-3.68-.81l-5.48-1.11-1.58-.31a2.56,2.56,0,0,0-1.91.08,1.07,1.07,0,0,0-.39,1.14,2.12,2.12,0,0,0,.5.91,8.37,8.37,0,0,0,1.43,1.23c2.11,1.42,4.4,2,6.24,2.92a9.66,9.66,0,0,1,2.4,1.6c.66.61,1.18,1.32,1.72,1.92a4.52,4.52,0,0,0,3.35,1.82c1,0,1.34-.48,1.31-.49a3.52,3.52,0,0,1-1.3.21,4.35,4.35,0,0,1-3-1.88c-.5-.59-1-1.32-1.69-2a9.94,9.94,0,0,0-2.52-1.76c-1.9-1-4.18-1.61-6.13-2.92a8.74,8.74,0,0,1-1.29-1.11c-.36-.39-.49-.87-.24-1s.83-.08,1.36,0l1.59.29,5.51,1c1.57.26,2.84.46,3.72.59A5,5,0,0,0,444.56,346.11Z"/><path class="cls-12" d="M430.71,342a5.08,5.08,0,0,0-1.46-1.92,4.12,4.12,0,0,0-2.44-.77,10.56,10.56,0,0,0-3.18.56,16.49,16.49,0,0,1-3.26.77,5.26,5.26,0,0,1-2.76-.4,2.08,2.08,0,0,1-1.19-1.45,1.21,1.21,0,0,1,0-.68c.05,0,.05.24.17.64a2,2,0,0,0,1.16,1.19,5.22,5.22,0,0,0,2.57.27,17.14,17.14,0,0,0,3.18-.79,10.11,10.11,0,0,1,3.32-.54,4.25,4.25,0,0,1,2.63.94,3.81,3.81,0,0,1,1.11,1.51C430.73,341.73,430.74,342,430.71,342Z"/><path class="cls-12" d="M430.47,324.7a14.86,14.86,0,0,1,.79,2.22l1.76,5.39,1.84,5.36a13.16,13.16,0,0,1,.71,2.25,10.81,10.81,0,0,1-1-2.13c-.56-1.35-1.27-3.23-2-5.33s-1.27-4-1.63-5.45A10.06,10.06,0,0,1,430.47,324.7Z"/><path class="cls-12" d="M429,345.35a3.18,3.18,0,0,1-.74,0,2.15,2.15,0,0,0-1.75.49,1.17,1.17,0,0,0-.27,1.12,6.39,6.39,0,0,0,.6,1.42,2.67,2.67,0,0,1,.33,1.84,2.24,2.24,0,0,1-1.41,1.45,2.56,2.56,0,0,1-2-.18,3.22,3.22,0,0,1-1.35-1.28,9.91,9.91,0,0,1-.93-2.89,5.93,5.93,0,0,1-.06-2,1.44,1.44,0,0,1,.27-.7,5.57,5.57,0,0,1-.09.72,7.28,7.28,0,0,0,.2,2,11.26,11.26,0,0,0,1,2.74,2.56,2.56,0,0,0,2.84,1.23,1.77,1.77,0,0,0,1.12-1.13,2.23,2.23,0,0,0-.27-1.54,6.21,6.21,0,0,1-.59-1.53,1.49,1.49,0,0,1,.41-1.43,2.3,2.3,0,0,1,2-.43A2,2,0,0,1,429,345.35Z"/><path class="cls-12" d="M423.85,351.05s.16.21.15.65a2,2,0,0,1-.91,1.59,2.76,2.76,0,0,1-2.71,0,4.5,4.5,0,0,1-2.1-2.59,5.36,5.36,0,0,1-.06-3.31,5.2,5.2,0,0,1,1.46-2.27,4.89,4.89,0,0,1,1.54-.95c.41-.14.64-.17.65-.14a8.33,8.33,0,0,0-2,1.33,5,5,0,0,0-1.19,5.19,4.23,4.23,0,0,0,1.86,2.36,2.43,2.43,0,0,0,2.34,0,1.91,1.91,0,0,0,.9-1.31C423.89,351.29,423.81,351.06,423.85,351.05Z"/><path class="cls-12" d="M434.12,356a1.89,1.89,0,0,1,1.08-.34,4.48,4.48,0,0,1,2.82.64l-.34.23a13.89,13.89,0,0,1-.26-1.57,9.94,9.94,0,0,1,.73-5.45,25.34,25.34,0,0,0-.26,5.4,13.33,13.33,0,0,0,.23,1.53l.1.53-.44-.29a4.71,4.71,0,0,0-2.56-.74C434.54,355.94,434.14,356.06,434.12,356Z"/><path class="cls-12" d="M427.44,337c.13,0,0,1-.88,1.71s-1.8.81-1.8.69.76-.38,1.49-1S427.31,336.93,427.44,337Z"/><path class="cls-3" d="M508.59,320.12s-7,.85-7.82.9c-5.95.37-15.66,3.88-20.23,12.4-3.32,6.21-9.66,31.51-11.36,38.35l-2.45,8.05-14.87-23.59-21.14,12s22,53.13,36.18,53.12,20.8-14.19,20.8-14.19l-.22-31.95Z"/><path class="cls-8" d="M481.93,342.33a3.25,3.25,0,0,0-.06.71c0,.55,0,1.23,0,2,0,1.79,0,4.36.06,7.55.11,6.37.5,15.17,1,24.87s1,18.49,1.25,24.85c.11,3.11.2,5.66.27,7.54,0,.82.07,1.5.09,2.05a3.16,3.16,0,0,0,.08.71,3.42,3.42,0,0,0,.06-.72c0-.54,0-1.22,0-2.05,0-1.78,0-4.36-.05-7.54-.12-6.38-.51-15.17-1.05-24.88s-1-18.48-1.25-24.84c-.11-3.11-.2-5.66-.27-7.54,0-.83-.07-1.5-.09-2A2.47,2.47,0,0,0,481.93,342.33Z"/><path class="cls-3" d="M592,346.36c-3.61-16.15-21.46-20.63-21.46-20.63L564.5,384l3.76,9.46,31.93-6.89S596.54,366.6,592,346.36Z"/><path class="cls-3" d="M562.68,379.25l11.94,11.5-3.86-22L595,361.1s6.43,30.18,7.55,37.32c2,12.81-.46,31-12.4,32.3-12.91,1.38-22.66-11.35-28.86-19.71-4.77-6.43-12.47-17.66-12.47-17.66l13.88-14.1"/><path class="cls-3" d="M574.62,418.21l-.94-27.38,1.43-63.44-25.44-11.56-3.37-10-28.44,12.68-5.7-6-3.3,6.39-10.13,2.29-8.27,23.4-7,18.43s2,63.91,3.78,87.35c.22,3.07-3.78,4.41.66,7.84,0,0,6.66,3.91,21.09,4.28,41.06,1.08,66.29-5.48,67.63-6.08h0a8.47,8.47,0,0,0,2.5-7.08c-.12-1-.33-2-.51-3.33l-4-27.85"/><path class="cls-8" d="M507.6,464.47s0-.12-.06-.35,0-.62-.07-1c-.06-1-.13-2.3-.23-4-.15-3.53-.37-8.51-.65-14.64-.46-12.37-1-29.46-.85-48.37.12-9.45.43-18.46,1.34-26.63s2.34-15.4,3.61-21.46,2.45-10.93,3.27-14.29c.41-1.62.73-2.91,1-3.86.11-.4.2-.73.27-1a1.65,1.65,0,0,1,.12-.34,1.36,1.36,0,0,1,0,.36c0,.27-.12.61-.2,1-.2,1-.48,2.26-.83,3.9-.73,3.38-1.82,8.27-3,14.33s-2.54,13.31-3.44,21.43-1.15,17.12-1.27,26.56c-.19,18.88.31,36,.63,48.34.17,6.13.3,11.12.4,14.65,0,1.68.06,3,.08,4v1A1.41,1.41,0,0,1,507.6,464.47Z"/><path class="cls-8" d="M526.31,358.12a12.61,12.61,0,0,1,1.69.05l4.92.29,17.91,1.23.34,0,0,.34c-.62,8.21-1.36,18-2.16,28.64v.19l-.16.11c-.84.61-1.74,1.22-2.67,1.83a56.73,56.73,0,0,1-5,2.92,14.76,14.76,0,0,1-5.46,1.75,10.9,10.9,0,0,1-5.41-1.25,23.4,23.4,0,0,1-4.38-2.93c-.66-.55-1.3-1.1-1.9-1.67a3.73,3.73,0,0,1-.85-1,5.65,5.65,0,0,1-.48-1.21,18.39,18.39,0,0,1-.44-4.72,68.22,68.22,0,0,1,.76-8.36c.74-5.08,1.62-9.13,2.25-11.92.32-1.39.59-2.47.78-3.2a7.24,7.24,0,0,1,.34-1.09,5.28,5.28,0,0,1-.18,1.13c-.16.82-.36,1.89-.63,3.23-.53,2.81-1.32,6.87-2,11.93a70.86,70.86,0,0,0-.65,8.29,18.31,18.31,0,0,0,.45,4.52,3.52,3.52,0,0,0,1.13,1.87c.61.56,1.23,1.1,1.88,1.63a23,23,0,0,0,4.25,2.81,10.12,10.12,0,0,0,5,1.15,13.93,13.93,0,0,0,5.14-1.68,53.08,53.08,0,0,0,5-2.88c.91-.59,1.82-1.21,2.63-1.8l-.16.3c.85-10.6,1.64-20.42,2.3-28.62l.31.37-17.69-1.56-5-.47-1.32-.15A3.1,3.1,0,0,1,526.31,358.12Z"/><path class="cls-8" d="M550.61,367.45c0,.23-5.83,0-13-.6s-12.94-1.19-12.92-1.42,5.83,0,13,.6S550.63,367.22,550.61,367.45Z"/><g class="cls-13"><path d="M523.47,388.54c1.4,2.31,2.7,5.47,4.61,7.37a11.29,11.29,0,0,0,7.08,3.52,11.7,11.7,0,0,0,6.72-2c3.24-2,5.24-5.24,6.69-8.78.2-.26-4.65,3-7.28,4.38a11.9,11.9,0,0,1-7.46,1.6c-3.9-.32-7.4-3.54-10.36-6.1"/></g><g class="cls-13"><polygon points="518.34 320.39 519.38 333.72 547.69 316.77 520.38 331.18 518.34 320.39"/></g><path class="cls-10" d="M512.39,336.44A455.52,455.52,0,0,0,502,404.08c-1.2,15.8-2.08,36.75-2.08,36.75l9.17,11.35,11-10.88s-2.23-45.45-2.19-60.69c0-12.26-.46-43.91-.46-43.91Z"/><path class="cls-8" d="M567.15,356.23a7.17,7.17,0,0,1,.29,1.26c.16.9.38,2.07.63,3.48.52,3,1.21,7,2,11.49S571.5,381,571.93,384c.22,1.48.39,2.67.5,3.5a6.85,6.85,0,0,1,.12,1.29,7.17,7.17,0,0,1-.29-1.26c-.16-.9-.37-2.07-.63-3.48-.53-3-1.23-7-2-11.49S568.21,364,567.77,361c-.2-1.42-.37-2.6-.49-3.5A9.3,9.3,0,0,1,567.15,356.23Z"/><path class="cls-8" d="M576.36,329.23c0,.06-.84.75-2.09,2a25.49,25.49,0,0,0-6.57,12.22c-.38,1.76-.47,2.88-.55,2.87a2.67,2.67,0,0,1,0-.79,14.92,14.92,0,0,1,.26-2.14,22.82,22.82,0,0,1,6.65-12.37,14.8,14.8,0,0,1,1.64-1.4A2.72,2.72,0,0,1,576.36,329.23Z"/><polygon class="cls-10" points="518.11 324.71 515.27 324.08 512.5 329.05 512.39 336.44 517.43 336.7 520.56 330.84 518.11 324.71"/><path class="cls-8" d="M515.72,338c-.06.1-.77-.23-1.57-.74s-1.4-1-1.34-1.1.77.23,1.57.74S515.78,337.86,515.72,338Z"/><path class="cls-8" d="M516.38,335.71A20.49,20.49,0,0,1,514.5,332a20.2,20.2,0,0,1-1.48-3.91,42,42,0,0,1,3.36,7.65Z"/><g class="cls-13"><path d="M551.44,402.28s7,6.59,9.88,11.7c2.07,3.6,7.9,8.41,14.5,12.62l1,7.21c-3.65-.72-10.06-5.47-12.53-8.25a53.13,53.13,0,0,1-6.9-8.95c-3.33-5.95-7.9-11.67-9.07-18.39Z"/></g><path class="cls-8" d="M574.89,425.87a3.57,3.57,0,0,0-.61-.47c-.41-.3-1-.69-1.81-1.28a65.94,65.94,0,0,1-6.22-5.41,184.22,184.22,0,0,1-18.19-21.43l0,.32,4-9.78L557,376l-.52.13,28.47,24.09a2.22,2.22,0,0,0-.47-.55c-.34-.34-.84-.82-1.52-1.43-1.34-1.23-3.31-3-5.81-5.18-5-4.37-12.06-10.46-20.24-17.44l-.35-.29-.18.42-4.86,11.77-4,9.79-.07.17.11.15A168.87,168.87,0,0,0,566,419a57.68,57.68,0,0,0,6.38,5.29c.79.57,1.46.92,1.88,1.19A3.74,3.74,0,0,0,574.89,425.87Z"/><path class="cls-8" d="M478.44,355.24l10,37.61a4.69,4.69,0,0,0,4.62,3.49l51.56-1a4.68,4.68,0,0,0,4.49-5.64l-7.59-36a4.69,4.69,0,0,0-4.58-3.71H482.52A4.22,4.22,0,0,0,478.44,355.24Z"/><path class="cls-9" d="M546.32,393a1.26,1.26,0,0,1-.08-.25c0-.18-.1-.42-.17-.72-.16-.68-.38-1.62-.65-2.81-.55-2.47-1.32-6-2.28-10.34s-2.08-9.57-3.33-15.34c-.63-2.89-1.28-5.92-2-9.07a2.1,2.1,0,0,0-1.33-1.63,3.14,3.14,0,0,0-1.13-.13H529.1l-34.94-.07-10.58-.08-2.88,0-.75,0-.26,0,.26,0,.75,0,2.88-.05,10.58-.07,34.94-.07h6.29a3.42,3.42,0,0,1,1.29.16,2.6,2.6,0,0,1,1.62,2c.67,3.14,1.31,6.18,1.92,9.07,1.22,5.77,2.31,11,3.24,15.36l2.14,10.37c.24,1.2.42,2.15.56,2.83l.13.73A.86.86,0,0,1,546.32,393Z"/><path class="cls-3" d="M513.67,362.7a2.68,2.68,0,1,1-3.5-1.79A2.79,2.79,0,0,1,513.67,362.7Z"/><path class="cls-11" d="M558.41,378.72,556,376.43s-1.62-5.4-2.65-6.42a11.36,11.36,0,0,0-3.76-1.79l-6.16-5.65,1.12,5-8.93-.06a2.53,2.53,0,0,0-2.43,1.56,1,1,0,0,0-.08.49,3.27,3.27,0,0,0,1.78,2.34l1.29.6a3.06,3.06,0,0,0-2.11,2.19,2.81,2.81,0,0,0,1.86,3s-2.19,1-.93,3.61c0,0-2,2.43-.86,4.07s8,4.38,8,4.38l3.75,1.71a6.56,6.56,0,0,0,2.82.16l1.47.2,1.56,1.3S560.63,388.28,558.41,378.72Z"/><path class="cls-12" d="M548.79,374.85a7.18,7.18,0,0,1-2,0,37.27,37.27,0,0,1-4.85-.66,36,36,0,0,1-4.72-1.28,6.54,6.54,0,0,1-1.86-.8c0-.15,3,.81,6.69,1.55S548.8,374.69,548.79,374.85Z"/><path class="cls-12" d="M551.24,381.89a59.88,59.88,0,0,1-7.74-1.81,61.69,61.69,0,0,1-7.61-2.33,58.25,58.25,0,0,1,7.75,1.81A59.21,59.21,0,0,1,551.24,381.89Z"/><path class="cls-12" d="M550.52,387.15a9.47,9.47,0,0,1-2.48-.32,39.53,39.53,0,0,1-11.26-4.18,9.2,9.2,0,0,1-2.09-1.37,14.07,14.07,0,0,1,2.26,1c1.38.66,3.3,1.54,5.49,2.35s4.21,1.4,5.69,1.79A14.16,14.16,0,0,1,550.52,387.15Z"/><path class="cls-12" d="M552.19,380.34c-.15,0,.14-1-.07-2.25s-.79-2.07-.67-2.16,1,.69,1.2,2.07A2.64,2.64,0,0,1,552.19,380.34Z"/><path class="cls-12" d="M552.28,373.86c-.1-.11.37-.66.44-1.49s-.24-1.46-.12-1.55.23.07.4.35a2.12,2.12,0,0,1,.25,1.25,2,2,0,0,1-.5,1.18C552.53,373.84,552.33,373.91,552.28,373.86Z"/><path class="cls-12" d="M551.68,386.84c-.11-.1.24-.66.45-1.4s.23-1.4.38-1.43.4.7.14,1.58S551.78,386.94,551.68,386.84Z"/><path class="cls-12" d="M537.88,367.6c0,.19,2.35.22,5.22.43s5.2.5,5.24.3-2.27-.79-5.19-1S537.87,367.41,537.88,367.6Z"/><path class="cls-8" d="M509.38,320.19a3.5,3.5,0,0,1,.25.62c.17.46.38,1.06.64,1.82.56,1.63,1.33,3.9,2.28,6.7l-.3,0c1.49-2.82,3.3-6.22,5.31-10l.27-.52.13.57,2.52,11.08c0,.21.09.41.13.6l-.33-.15,19.9-10.43,6-3.1,1.65-.82a4.32,4.32,0,0,1,.59-.26,3.54,3.54,0,0,1-.55.34l-1.61.9-6,3.23-19.84,10.55-.26.14-.07-.3c0-.19-.09-.39-.14-.6-.87-3.91-1.71-7.66-2.48-11.08l.4.05-5.4,10-.18.34-.12-.36-2.14-6.76c-.23-.76-.41-1.37-.56-1.84A4.08,4.08,0,0,1,509.38,320.19Z"/><path class="cls-4" d="M459.21,234.53a7.16,7.16,0,1,1-7.16-7.15A7.17,7.17,0,0,1,459.21,234.53Z"/><path class="cls-10" d="M254,311.55h.45c5.18,0,10.37,0,15.55,0a9.38,9.38,0,0,1,6,2.08,9.75,9.75,0,0,1,3.63,6.78,10.43,10.43,0,0,1-1.41,6.84,9.47,9.47,0,0,1-7.72,4.62l-.65.06,3.54,6.15H273c-1.17,0-2.34,0-3.5,0a.54.54,0,0,1-.53-.32c-1-1.75-2-3.48-3-5.23a1.22,1.22,0,0,0-1.19-.68c-4.05,0-8.11,0-12.17,0h-.52c.11-.22.18-.39.27-.56l8-13.81a1.31,1.31,0,0,1,.24-.34.42.42,0,0,1,.68,0,2.85,2.85,0,0,1,.31.46c1.87,3.25,3.75,6.5,5.6,9.76a1.48,1.48,0,0,0,1.06.76,2.76,2.76,0,0,0,.81.08,13.57,13.57,0,0,0,2.22-.19,5.41,5.41,0,0,0,4.12-3.4,6.84,6.84,0,0,0-.61-7,5.51,5.51,0,0,0-4.59-2.41c-4.57-.05-9.14,0-13.71,0a.64.64,0,0,1-.65-.37c-.52-1-1.08-1.92-1.62-2.88Zm6.92,12.32-2.45,4.25s0,.05,0,.05h4.89a0,0,0,0,0,0-.05L261,323.87Z"/></g></g></svg>