<svg xmlns="http://www.w3.org/2000/svg" viewBox="0 0 623.13 623.13"><defs><style>.cls-1{fill:#ffcbcb;}.cls-2{fill:#ffd1d1;}.cls-3{fill:#e90022;}.cls-4,.cls-9{fill:#fff;}.cls-5{fill:#352525;}.cls-6{fill:#634545;}.cls-7{fill:#dbdbdb;}.cls-13,.cls-14,.cls-8{fill:none;stroke:#ffd1d1;}.cls-13,.cls-14,.cls-8,.cls-9{stroke-miterlimit:10;stroke-width:0.25px;}.cls-9{stroke:#263238;}.cls-10{opacity:0.1;}.cls-11,.cls-12{opacity:0.2;}.cls-13{stroke-dasharray:3.17 3.17;}.cls-14{stroke-dasharray:3.17 3.17;}.cls-15{fill:#a6a6a6;}.cls-16{fill:#263238;}.cls-17{fill:#fffdfc;}.cls-18{fill:#c7c7c7;}.cls-19{fill:#f7a9a0;}.cls-20{fill:#37474f;}.cls-21{fill:#eb9481;}.cls-22{fill:#ff9abb;}</style></defs><title>1</title><g id="Character"><rect class="cls-1" x="486.25" y="435.25" width="40.39" height="12.85" transform="translate(1012.89 883.35) rotate(180)"/><rect class="cls-1" x="240.79" y="259.69" width="40.39" height="12.85" transform="translate(521.97 532.23) rotate(180)"/><path class="cls-2" d="M508.78,464.31,529.1,464l10-.12,10,0-.46.46,0-12.85.5.5L529,451.89l-10.1-.09-10.1-.11.24-.23Zm0,0-.24-12.85v-.24h.24l10.1-.11L529,451l20.19-.07h.5v.5l0,12.85v.46h-.45l-10.18,0-10.14-.12Z"/><path class="cls-2" d="M316.73,522.17l20.32-.3,10.05-.12,10,0-.46.46,0-12.86.5.5-20.19-.07-10.1-.08-10.1-.11.24-.24Zm0,0-.23-12.86v-.23h.24l10.1-.11,10.1-.08,20.19-.07h.5v.5l-.05,12.86v.45h-.45l-10.18,0-10.14-.12Z"/><path class="cls-2" d="M339.26,538.37l20.32-.29,10.05-.12,10,0-.46.45,0-12.85.5.5-20.2-.07-10.09-.08-10.1-.11.24-.24Zm0,0L339,525.52v-.24h.24l10.1-.11,10.09-.08,20.2-.07h.5v.5l0,12.85v.46h-.45l-10.18,0-10.14-.12Z"/><rect class="cls-1" x="361.7" y="509.31" width="40.39" height="12.85" transform="translate(763.79 1031.48) rotate(180)"/><rect class="cls-1" x="73.96" y="451.46" width="40.39" height="12.85" transform="translate(188.31 915.77) rotate(180)"/><rect class="cls-1" x="96.49" y="70.32" width="40.39" height="12.85" transform="translate(233.37 153.5) rotate(180)"/><path class="cls-2" d="M74,99.39l20.32-.3,10-.12,10,0-.46.46,0-12.86.5.5L94.15,87l-10.09-.08L74,86.77l.24-.24Zm0,0-.24-12.86V86.3H74l10.1-.11,10.09-.09,20.2-.07h.5v.5l0,12.86v.45h-.45l-10.18,0L94,99.68Z"/><path class="cls-2" d="M486.25,83.18l20.32-.29,10.05-.12,10,0-.46.46,0-12.86.5.5-20.19-.06-10.1-.09-10.1-.11.24-.24Zm0,0L486,70.32v-.23h.24l10.1-.11,10.1-.09,20.19-.07h.5v.5l0,12.86v.46h-.45l-10.18,0-10.14-.12Z"/><path class="cls-3" d="M542.67,461.09c-12.65,17.14-25.85,37-29.06,58.53,0,.33.48.43.55.11a127.61,127.61,0,0,1,5.6-17.21c8.32-2.29,16.49-4.17,20.86-12.43,4.46-8.49,3.89-19.56,3-28.81C543.6,460.78,542.93,460.76,542.67,461.09Z"/><path class="cls-4" d="M519.89,502.36c5.68-12.76,13-25.57,22.26-36.07.06-.07.16,0,.1.11-6.07,7.47-10.69,15.61-15.2,23.89,4.19-4.26,8.79-8.07,12.76-12.58.07-.09.2,0,.12.13-3.94,4.73-8.24,9.87-13.38,13.37-1.38,2.54-2.76,5.09-4.17,7.64.34-.2.7-.37,1-.54.06,0,.12.06.06.09-.39.2-.78.41-1.19.58-.66,1.2-1.32,2.41-2,3.61C520.14,502.86,519.77,502.63,519.89,502.36Z"/><path class="cls-4" d="M524.12,497.91a75.31,75.31,0,0,0,9.71-6.49c.09-.07.2.05.12.12a51,51,0,0,1-9.69,6.6A.13.13,0,1,1,524.12,497.91Z"/><path class="cls-3" d="M512.14,516.43c0,.26.47.25.46,0,.07-7.08,0-14.2.12-21.31,1.81-3.66,5.7-5.68,8.41-8.62a37.55,37.55,0,0,0,5-7A50.48,50.48,0,0,0,532,459.92c.74-7.57-2.13-32.56-5.32-31.69-1.66.45-7,12.83-8.44,16.92a118.23,118.23,0,0,0-5,20.75C510.66,482.56,510.87,499.66,512.14,516.43Z"/><path class="cls-4" d="M512.09,485.89l0,0c.39-9,2.41-18,4.3-26.69,2-9.36,4.41-18.17,9.23-26.52.09-.16.32,0,.24.14a98.71,98.71,0,0,0-7.42,20.35c.32-.5.72-1,1-1.46.13-.18.44,0,.31.19a13.75,13.75,0,0,1-1.5,2.12l-.06,0c-1.66,6.69-2.85,13.53-3.87,20.36.08-.09.15-.18.23-.26s.14,0,.1.08l-.41.67c-.51,3.47-1,6.92-1.46,10.35,6.17-5.27,11.43-11.49,14.4-19.14,0,0,.08,0,.06,0-2.91,8-7.5,15-14.56,19.83l-.39,2.76c0,.19-.33.14-.33,0,0-.82,0-1.64.07-2.45A.19.19,0,0,1,512.09,485.89Z"/><path class="cls-4" d="M515,472.91c4.71-7,9.11-13.87,12.56-21.65,0-.08.19,0,.16.07-2.91,7.73-7,15.55-12.49,21.76C515.12,473.22,514.9,473.05,515,472.91Z"/><path class="cls-5" d="M521.26,449.53c2-3.46,4-6.82,5.85-10.35,0-.09.19,0,.15.09a54.1,54.1,0,0,1-5.7,10.43A.17.17,0,0,1,521.26,449.53Z"/><path class="cls-5" d="M520.5,451a0,0,0,1,1,0,.06A0,0,0,0,1,520.5,451Z"/><path class="cls-3" d="M507.35,496a72.53,72.53,0,0,1-1.65,13.95l.21,1.53a66.23,66.23,0,0,0,2.5-15.55.48.48,0,0,0,0-.48h0a102.8,102.8,0,0,0-1.56-21.07c-2.19-13-7-25.5-16.06-35.25a.65.65,0,0,0-1,.21c-3.66,9.31-2.38,20.42.73,29.71a54.5,54.5,0,0,0,7.2,14.11C500.85,487.47,504.82,491.17,507.35,496Z"/><path class="cls-4" d="M491.89,443.43c8.59,14,14.58,30.5,15.31,47,0,.29-.48.37-.52.07-.2-1.48-.43-2.95-.67-4.41h0c-3.56-3.4-7.21-7-9.76-11.26,0-.07.06-.16.12-.09A120.24,120.24,0,0,0,505.84,485c-.62-3.64-1.34-7.23-2.21-10.76-.23-.27-.45-.54-.68-.8s.1-.43.26-.26.13.15.2.23a124.91,124.91,0,0,0-4.49-14.27c-2.19-2.62-4.64-4.87-6.23-8a.06.06,0,0,1,.11-.06c1.28,1.79,2.52,3.6,4,5.27.58.67,1.21,1.29,1.81,1.94a110.05,110.05,0,0,0-7-14.68C491.43,443.41,491.76,443.22,491.89,443.43Z"/><path class="cls-4" d="M493.62,460.65c2.78,3.74,5.95,7.31,8.53,11.17.08.11-.08.23-.18.14-3.32-3.11-6.12-7.37-8.53-11.2C493.36,460.63,493.54,460.54,493.62,460.65Z"/><path class="cls-5" d="M502.54,472.69l.12.12a.09.09,0,1,1-.13.12l-.11-.11A.09.09,0,1,1,502.54,472.69Z"/><path class="cls-3" d="M478.41,470.26a42.78,42.78,0,0,0,9.08,21.29,22.47,22.47,0,0,0,7.35,5.74c3.19,1.58,6.53,3.39,9.83,4.69a63.89,63.89,0,0,1,3.47,12.35c.11-.36.21-.73.32-1.09-2.12-18.18-13.88-33.72-28.93-43.7A.73.73,0,0,0,478.41,470.26Z"/><path class="cls-4" d="M483.61,475.63c-.1-.09,0-.28.15-.2a61.6,61.6,0,0,1,19.18,23.63c.11.25-.24.47-.38.22-.7-1.23-1.41-2.42-2.13-3.59h0c-3.44-.64-6.69-3.06-9.24-5.36-.07-.06,0-.16.1-.1a20.52,20.52,0,0,0,4.35,3A45.43,45.43,0,0,0,500,495c-1.27-2-2.6-3.95-4-5.83a40,40,0,0,1-10.33-5.81c-.09-.07,0-.23.1-.16a106.65,106.65,0,0,0,9.59,5.13,85.37,85.37,0,0,0-6.77-7.9c-1.17-.62-2.35-1.24-3.48-1.9-.09-.05,0-.21.07-.17a12.76,12.76,0,0,1,2.68,1.31C486.51,478.31,485.11,477,483.61,475.63Z"/><path class="cls-4" d="M483.93,481.91a4,4,0,0,1,.58.41c.06.05,0,.12-.07.09a4.09,4.09,0,0,1-.61-.34C483.73,482,483.83,481.84,483.93,481.91Z"/><polygon class="cls-6" points="531.94 553.7 490.71 553.7 494.04 516.15 494.77 507.87 527.88 507.87 528.62 516.15 531.94 553.7"/><polygon class="cls-5" points="528.62 516.15 494.04 516.15 494.77 507.87 527.88 507.87 528.62 516.15"/><rect class="cls-6" x="492.8" y="502.08" width="37.06" height="8.2"/><rect class="cls-5" x="100.04" y="99.03" width="423.04" height="10.3"/><path class="cls-3" d="M110,104.18a2.07,2.07,0,1,1-2.07-2.08A2.07,2.07,0,0,1,110,104.18Z"/><path class="cls-4" d="M118.45,104.18a2.08,2.08,0,1,1-2.08-2.08A2.08,2.08,0,0,1,118.45,104.18Z"/><path class="cls-6" d="M126.92,104.18a2.08,2.08,0,1,1-2.08-2.08A2.08,2.08,0,0,1,126.92,104.18Z"/><path class="cls-7" d="M142.08,220c9.83-.19,19.65-.28,29.48-.35l29.47-.11,29.48.11,14.74.12L260,220l-14.74.22-14.74.13-29.48.11-29.47-.11C161.73,220.25,151.91,220.16,142.08,220Z"/><path class="cls-7" d="M142.08,229.32c9.83-.19,19.65-.27,29.48-.35l29.47-.1,29.48.1,14.74.13,14.74.22-14.74.23-14.74.13-29.48.1-29.47-.11C161.73,229.6,151.91,229.51,142.08,229.32Z"/><path class="cls-7" d="M142.08,238.68c9.83-.19,19.65-.28,29.48-.35l29.47-.11,29.48.1,14.74.13,14.74.23-14.74.22-14.74.13-29.48.11L171.56,239C161.73,239,151.91,238.87,142.08,238.68Z"/><path class="cls-7" d="M142.08,257.39c9.83-.19,19.65-.28,29.48-.36l29.47-.1,29.48.1,14.74.13,14.74.23-14.74.22-14.74.13-29.48.1-29.47-.1C161.73,257.66,151.91,257.58,142.08,257.39Z"/><path class="cls-7" d="M142.08,266.74c9.83-.19,19.65-.28,29.48-.35l29.47-.11,29.48.11,14.74.13,14.74.22-14.74.23-14.74.12L201,267.2l-29.47-.11C161.73,267,151.91,266.93,142.08,266.74Z"/><path class="cls-7" d="M142.08,276.09c6-.18,12-.27,17.94-.35s12-.06,17.94-.1,12,0,17.94.1l9,.13c3,.08,6,.12,9,.22-3,.11-6,.15-9,.23l-9,.13c-6,.07-12,.07-17.94.1s-12,0-17.94-.1S148.06,276.28,142.08,276.09Z"/><rect class="cls-3" x="142.08" y="295.36" width="54.24" height="14.92"/><path class="cls-4" d="M149.05,305.1v-4.57h.45v4.18h2.64v.39Z"/><path class="cls-4" d="M155.87,304.71v.39H152.8v-4.57h3v.4h-2.57v1.65h2.24V303h-2.24v1.75Z"/><path class="cls-4" d="M158.14,300.53h.38l1.9,4.57h-.48l-.59-1.42h-2l-.59,1.42h-.48Zm1.11,2.79-.92-2.26-.94,2.26Z"/><path class="cls-4" d="M161.08,305.1v-4.57H163a1.23,1.23,0,0,1,.54.13,1.27,1.27,0,0,1,.43.33,1.5,1.5,0,0,1,.38,1,1.51,1.51,0,0,1-.08.48,1.42,1.42,0,0,1-.2.41,1.34,1.34,0,0,1-.32.31,1.2,1.2,0,0,1-.42.17l1.12,1.76H164l-1.07-1.68h-1.35v1.68Zm.45-2.08H163a.74.74,0,0,0,.36-.09.79.79,0,0,0,.28-.23,1.27,1.27,0,0,0,.25-.73,1.1,1.1,0,0,0-.08-.4,1.12,1.12,0,0,0-.2-.33.89.89,0,0,0-.29-.22.8.8,0,0,0-.36-.09h-1.45Z"/><path class="cls-4" d="M165.73,301.37v3.73h-.45v-4.57h.35l3,3.81v-3.8h.45v4.56h-.39Z"/><path class="cls-4" d="M175.94,305.1v-3.75l-1.67,2.9H174l-1.67-2.9v3.75h-.45v-4.57h.46l1.79,3.13,1.79-3.13h.46v4.57Z"/><path class="cls-4" d="M179.38,305.14a2,2,0,0,1-.88-.2,2.16,2.16,0,0,1-.68-.52,2.61,2.61,0,0,1-.43-.74,2.34,2.34,0,0,1-.16-.86,2.38,2.38,0,0,1,.17-.88,2.67,2.67,0,0,1,.45-.74,2.29,2.29,0,0,1,.68-.51,2,2,0,0,1,.85-.19,1.81,1.81,0,0,1,.87.21,2.08,2.08,0,0,1,.68.53,2.54,2.54,0,0,1,.59,1.59,2.58,2.58,0,0,1-.16.87,2.37,2.37,0,0,1-1.13,1.25A2.07,2.07,0,0,1,179.38,305.14Zm-1.7-2.32a2,2,0,0,0,.47,1.33,1.58,1.58,0,0,0,.54.42,1.55,1.55,0,0,0,1.39,0,1.6,1.6,0,0,0,.53-.43,2,2,0,0,0,.34-.61,2.1,2.1,0,0,0,.12-.7,1.92,1.92,0,0,0-1-1.75,1.58,1.58,0,0,0-.68-.16,1.52,1.52,0,0,0-.71.17,1.7,1.7,0,0,0-.53.43,2,2,0,0,0-.34.61A2.1,2.1,0,0,0,177.68,302.82Z"/><path class="cls-4" d="M182.37,305.1v-4.57h1.93a1.2,1.2,0,0,1,.54.13,1.27,1.27,0,0,1,.43.33,1.36,1.36,0,0,1,.28.46,1.34,1.34,0,0,1,.1.52,1.51,1.51,0,0,1-.07.48,1.44,1.44,0,0,1-.21.41,1.18,1.18,0,0,1-.32.31,1.13,1.13,0,0,1-.42.17l1.12,1.76h-.5l-1.08-1.68h-1.35v1.68Zm.45-2.08h1.49a.75.75,0,0,0,.37-.09.89.89,0,0,0,.28-.23,1.56,1.56,0,0,0,.18-.34,1.23,1.23,0,0,0,.06-.39,1.09,1.09,0,0,0-.07-.4,1.38,1.38,0,0,0-.2-.33.93.93,0,0,0-.3-.22.74.74,0,0,0-.36-.09h-1.45Z"/><path class="cls-4" d="M189.64,304.71v.39h-3.07v-4.57h3v.4H187v1.65h2.24V303H187v1.75Z"/><rect class="cls-5" x="268.46" y="176.29" width="0.65" height="23.8"/><line class="cls-8" x1="148.02" y1="197.82" x2="284.34" y2="197.82"/><rect class="cls-8" x="143.15" y="171.56" width="146.07" height="31.99"/><rect class="cls-9" x="142.08" y="170.5" width="2.14" height="2.14"/><rect class="cls-9" x="215.12" y="170.5" width="2.14" height="2.14"/><rect class="cls-9" x="142.08" y="186.49" width="2.14" height="2.14"/><rect class="cls-9" x="142.08" y="202.49" width="2.14" height="2.14"/><rect class="cls-9" x="215.12" y="202.49" width="2.14" height="2.14"/><rect class="cls-9" x="288.15" y="170.5" width="2.14" height="2.14"/><rect class="cls-9" x="288.15" y="186.49" width="2.14" height="2.14"/><rect class="cls-9" x="288.15" y="202.49" width="2.14" height="2.14"/><rect class="cls-3" x="327.73" y="179.63" width="144.19" height="98.34" transform="translate(799.65 457.59) rotate(180)"/><polygon class="cls-10" points="388.2 252.44 471.92 252.44 430.06 220.43 388.2 252.44"/><polygon class="cls-3" points="356.08 252.44 425.2 252.44 390.64 231.59 356.08 252.44"/><polygon class="cls-11" points="356.08 252.44 425.2 252.44 390.64 231.59 356.08 252.44"/><rect class="cls-3" x="327.73" y="252.44" width="144.19" height="25.52"/><rect class="cls-11" x="327.73" y="252.44" width="144.19" height="25.52"/><path class="cls-10" d="M364.27,215.15a8,8,0,1,1-8-8A8,8,0,0,1,364.27,215.15Z"/><rect class="cls-8" x="321.17" y="173.07" width="157.3" height="111.45" transform="translate(799.65 457.59) rotate(180)"/><rect class="cls-9" x="318.6" y="170.5" width="5.15" height="5.15"/><rect class="cls-9" x="397.25" y="170.5" width="5.15" height="5.15"/><rect class="cls-9" x="475.9" y="170.5" width="5.15" height="5.15"/><rect class="cls-9" x="318.6" y="226.22" width="5.15" height="5.15"/><rect class="cls-9" x="475.9" y="226.22" width="5.15" height="5.15"/><rect class="cls-9" x="318.6" y="281.95" width="5.15" height="5.15"/><rect class="cls-9" x="397.25" y="281.95" width="5.15" height="5.15"/><rect class="cls-9" x="475.9" y="281.95" width="5.15" height="5.15"/><rect class="cls-3" x="327.73" y="297.87" width="37.84" height="37.84" transform="translate(693.3 633.58) rotate(180)"/><path class="cls-10" d="M333.83,306.9a3.57,3.57,0,1,0,2.8-2.8A3.57,3.57,0,0,0,333.83,306.9Z"/><polygon class="cls-10" points="338.22 325.89 365.57 325.89 351.9 310.56 338.22 325.89"/><polygon class="cls-3" points="327.73 325.89 350.31 325.89 339.02 315.9 327.73 325.89"/><g class="cls-12"><polygon points="327.73 325.89 350.31 325.89 339.02 315.9 327.73 325.89"/></g><rect class="cls-3" x="327.73" y="325.89" width="37.84" height="9.82"/><rect class="cls-11" x="327.73" y="325.89" width="37.84" height="9.82"/><polyline class="cls-8" points="380.91 334.21 380.91 335.71 382.41 335.71"/><line class="cls-13" x1="385.57" y1="335.71" x2="415.66" y2="335.71"/><polyline class="cls-8" points="417.24 335.71 418.74 335.71 418.74 334.21"/><line class="cls-14" x1="418.74" y1="331.04" x2="418.74" y2="300.96"/><polyline class="cls-8" points="418.74 299.37 418.74 297.87 417.24 297.87"/><line class="cls-13" x1="414.08" y1="297.87" x2="383.99" y2="297.87"/><polyline class="cls-8" points="382.41 297.87 380.91 297.87 380.91 299.37"/><line class="cls-14" x1="380.91" y1="302.54" x2="380.91" y2="332.63"/><rect class="cls-5" x="398.89" y="308.16" width="1.86" height="17.25"/><rect class="cls-5" x="398.89" y="308.16" width="1.86" height="17.25" transform="translate(716.62 -83.03) rotate(90)"/><rect class="cls-3" x="434.08" y="297.87" width="37.84" height="37.84" transform="translate(906 633.58) rotate(180)"/><path class="cls-10" d="M440.18,306.9a3.57,3.57,0,1,0,2.8-2.8A3.53,3.53,0,0,0,440.18,306.9Z"/><polygon class="cls-10" points="444.57 325.89 471.92 325.89 458.25 310.56 444.57 325.89"/><polygon class="cls-3" points="434.08 325.89 456.66 325.89 445.37 315.9 434.08 325.89"/><g class="cls-12"><polygon points="434.08 325.89 456.66 325.89 445.37 315.9 434.08 325.89"/></g><rect class="cls-3" x="434.08" y="325.89" width="37.84" height="9.82"/><rect class="cls-11" x="434.08" y="325.89" width="37.84" height="9.82"/><rect class="cls-1" x="131.09" y="132.48" width="8.38" height="1.35"/><rect class="cls-1" x="131.09" y="138.51" width="8.38" height="1.35"/><rect class="cls-1" x="131.09" y="135.53" width="8.38" height="1.35"/><rect class="cls-1" x="236.47" y="135.53" width="49.97" height="2.98"/><rect class="cls-1" x="305" y="135.53" width="49.97" height="2.98"/><rect class="cls-3" x="373.53" y="135.53" width="49.97" height="2.98"/><rect class="cls-1" x="442.07" y="135.53" width="49.97" height="2.98"/><path class="cls-5" d="M161.75,192.47h-6.67l-1.49,4.14a2,2,0,0,1-.4.67,1.57,1.57,0,0,1-.6.41,1.82,1.82,0,0,1-.7.13,1.86,1.86,0,0,1-.72-.18,1.48,1.48,0,0,1-.57-.45,1.89,1.89,0,0,1-.34-.66,2.12,2.12,0,0,1-.1-.76,2.21,2.21,0,0,1,.18-.79l6.49-16.88a2.17,2.17,0,0,1,.66-.91,1.65,1.65,0,0,1,1-.32,1.54,1.54,0,0,1,1,.32,1.87,1.87,0,0,1,.65.89L166.5,195a2.73,2.73,0,0,1,.17.79,2.28,2.28,0,0,1-.08.75,2,2,0,0,1-.33.65,1.64,1.64,0,0,1-.57.47,1.49,1.49,0,0,1-.7.18,1.75,1.75,0,0,1-.68-.13,1.47,1.47,0,0,1-.59-.41,1.93,1.93,0,0,1-.43-.67Zm-5.19-4.06h3.69l-1.87-5.06Z"/><path class="cls-5" d="M172.45,189.52v6.31a2.21,2.21,0,0,1-.14.78,2.23,2.23,0,0,1-.39.63,1.72,1.72,0,0,1-.57.43,1.65,1.65,0,0,1-.69.15,1.67,1.67,0,0,1-.71-.15,2,2,0,0,1-.57-.43,2,2,0,0,1-.38-.63,2.21,2.21,0,0,1-.14-.78v-17a2.21,2.21,0,0,1,.14-.78,2,2,0,0,1,.38-.63A2.14,2.14,0,0,1,170,177a1.67,1.67,0,0,1,.71-.15h4.81a4.9,4.9,0,0,1,2.21.5,5.71,5.71,0,0,1,1.81,1.36,6.37,6.37,0,0,1,1.22,2,7,7,0,0,1,.44,2.48,6.9,6.9,0,0,1-.44,2.47,6.32,6.32,0,0,1-1.22,2,5.8,5.8,0,0,1-1.81,1.34,5,5,0,0,1-2.21.49Zm0-8.64v4.58h3a1.66,1.66,0,0,0,.78-.19,2.24,2.24,0,0,0,.66-.53,2.85,2.85,0,0,0,.46-.75,2.43,2.43,0,0,0,.17-.89,2.27,2.27,0,0,0-.17-.86,2.35,2.35,0,0,0-.46-.71,2,2,0,0,0-1.44-.65Z"/><path class="cls-5" d="M187.43,189.52v6.31a2.18,2.18,0,0,1-.53,1.41,1.72,1.72,0,0,1-.57.43,1.71,1.71,0,0,1-1.4,0,1.83,1.83,0,0,1-.57-.43,2,2,0,0,1-.38-.63,2.21,2.21,0,0,1-.14-.78v-17a2.21,2.21,0,0,1,.14-.78,1.91,1.91,0,0,1,1-1.06,1.66,1.66,0,0,1,.7-.15h4.82a4.9,4.9,0,0,1,2.21.5,5.71,5.71,0,0,1,1.81,1.36,6.37,6.37,0,0,1,1.22,2,7,7,0,0,1,.44,2.48,6.9,6.9,0,0,1-.44,2.47,6.32,6.32,0,0,1-1.22,2,5.8,5.8,0,0,1-1.81,1.34,5,5,0,0,1-2.21.49Zm0-8.64v4.58h3a1.66,1.66,0,0,0,.78-.19,2.24,2.24,0,0,0,.66-.53,2.58,2.58,0,0,0,.45-.75,2.25,2.25,0,0,0,.18-.89,2.11,2.11,0,0,0-.18-.86,2.15,2.15,0,0,0-.45-.71,2,2,0,0,0-1.44-.65Z"/><path class="cls-5" d="M206.81,192.47h-6.67l-1.49,4.14a2,2,0,0,1-.41.67,1.47,1.47,0,0,1-.59.41,1.9,1.9,0,0,1-.71.13,1.82,1.82,0,0,1-.71-.18,1.52,1.52,0,0,1-.58-.45,1.89,1.89,0,0,1-.34-.66,2.37,2.37,0,0,1-.09-.76,2,2,0,0,1,.17-.79l6.5-16.88a2,2,0,0,1,.66-.91,1.61,1.61,0,0,1,1-.32,1.53,1.53,0,0,1,1,.32,1.87,1.87,0,0,1,.65.89l6.42,16.9a2.71,2.71,0,0,1,.16.79,2,2,0,0,1-.08.75,2,2,0,0,1-.32.65,1.59,1.59,0,0,1-.58.47,1.49,1.49,0,0,1-.7.18,1.79,1.79,0,0,1-.68-.13,1.62,1.62,0,0,1-.59-.41,2.09,2.09,0,0,1-.43-.67Zm-5.2-4.06h3.69l-1.86-5.06Z"/><path class="cls-5" d="M218.94,176.87a8.31,8.31,0,0,1,2.5.37,8.85,8.85,0,0,1,2.25,1,9.59,9.59,0,0,1,1.91,1.64,10.46,10.46,0,0,1,1.48,2.12,10.94,10.94,0,0,1,.95,2.51,11.43,11.43,0,0,1,.34,2.83,11.21,11.21,0,0,1-.34,2.81,10.94,10.94,0,0,1-.95,2.51,9.8,9.8,0,0,1-1.48,2.1,9.49,9.49,0,0,1-1.91,1.62,9.59,9.59,0,0,1-2.25,1,8.64,8.64,0,0,1-2.5.36h-3.23a1.63,1.63,0,0,1-.7-.15,1.72,1.72,0,0,1-.57-.43,1.86,1.86,0,0,1-.39-.63,2.21,2.21,0,0,1-.14-.78v-17a2.21,2.21,0,0,1,.14-.78,2,2,0,0,1,1-1.06,1.63,1.63,0,0,1,.7-.15Zm5.81,10.52a7.06,7.06,0,0,0-.44-2.54,6.4,6.4,0,0,0-1.24-2,5.88,5.88,0,0,0-1.85-1.35A5.26,5.26,0,0,0,219,181H217.5v12.78H219a5.4,5.4,0,0,0,2.27-.47,5.8,5.8,0,0,0,1.85-1.32,6.24,6.24,0,0,0,1.24-2A7.06,7.06,0,0,0,224.75,187.39Z"/><path class="cls-5" d="M241,192.47h-6.67l-1.49,4.14a2,2,0,0,1-.4.67,1.57,1.57,0,0,1-.6.41,1.71,1.71,0,0,1-1.42-.05,1.6,1.6,0,0,1-.58-.45,2.3,2.3,0,0,1-.34-.66,2.37,2.37,0,0,1-.09-.76,2.43,2.43,0,0,1,.17-.79l6.5-16.88a2.17,2.17,0,0,1,.66-.91,1.65,1.65,0,0,1,1-.32,1.54,1.54,0,0,1,1,.32,1.94,1.94,0,0,1,.65.89l6.41,16.9a2.73,2.73,0,0,1,.17.79,2.58,2.58,0,0,1-.08.75,2,2,0,0,1-.33.65,1.64,1.64,0,0,1-.57.47,1.52,1.52,0,0,1-.7.18,1.72,1.72,0,0,1-.68-.13,1.57,1.57,0,0,1-.6-.41,2.06,2.06,0,0,1-.42-.67Zm-5.19-4.06h3.69l-1.87-5.06Z"/><path class="cls-5" d="M254.19,194.73a2.59,2.59,0,0,1,.44-.74,2,2,0,0,1,.66-.51,1.8,1.8,0,0,1,1.61,0,2,2,0,0,1,.66.51,2.41,2.41,0,0,1,.45.74,2.7,2.7,0,0,1,0,1.83,2.31,2.31,0,0,1-1.11,1.26,1.89,1.89,0,0,1-1.61,0,2.34,2.34,0,0,1-.66-.51,2.52,2.52,0,0,1-.44-.75,2.55,2.55,0,0,1,0-1.83Z"/><path class="cls-5" d="M261.52,194.73A2.41,2.41,0,0,1,262,194a2,2,0,0,1,.66-.51,1.8,1.8,0,0,1,1.61,0,1.89,1.89,0,0,1,.65.51,2.41,2.41,0,0,1,.45.74,2.55,2.55,0,0,1,0,1.83,2.34,2.34,0,0,1-.45.75,2.16,2.16,0,0,1-.65.51,1.89,1.89,0,0,1-1.61,0,2.31,2.31,0,0,1-1.11-1.26,2.7,2.7,0,0,1,0-1.83Z"/><path class="cls-15" d="M491.52,128.78a22.34,22.34,0,1,0,22.33-22.34A22.36,22.36,0,0,0,491.52,128.78Zm4.75,0a17.59,17.59,0,1,1,17.58,17.58A17.58,17.58,0,0,1,496.27,128.78Zm-4.75,0a22.34,22.34,0,1,0,22.33-22.34A22.36,22.36,0,0,0,491.52,128.78Zm4.75,0a17.59,17.59,0,1,1,17.58,17.58A17.58,17.58,0,0,1,496.27,128.78Zm-20.07,0a37.65,37.65,0,1,0,37.65-37.66A37.65,37.65,0,0,0,476.2,128.78Zm13.18,0a24.48,24.48,0,1,1,24.47,24.48A24.51,24.51,0,0,1,489.38,128.78Zm2.14,0a22.34,22.34,0,1,0,22.33-22.34A22.36,22.36,0,0,0,491.52,128.78Zm4.75,0a17.59,17.59,0,1,1,17.58,17.58A17.58,17.58,0,0,1,496.27,128.78Z"/><polygon class="cls-15" points="509.43 91.8 518.05 91.8 517.2 83.2 510.29 83.2 509.43 91.8"/><polygon class="cls-15" points="528.51 94.55 535.98 98.86 539.54 90.97 533.56 87.52 528.51 94.55"/><polygon class="cls-15" points="543.66 106.46 547.97 113.93 555 108.88 551.54 102.9 543.66 106.46"/><polygon class="cls-15" points="550.83 124.35 550.83 132.97 559.43 132.12 559.43 125.21 550.83 124.35"/><polygon class="cls-15" points="548.08 143.43 543.77 150.9 551.65 154.46 555.11 148.48 548.08 143.43"/><polygon class="cls-15" points="536.17 158.58 528.7 162.89 533.75 169.92 539.73 166.47 536.17 158.58"/><polygon class="cls-15" points="518.27 165.75 509.65 165.75 510.51 174.35 517.42 174.35 518.27 165.75"/><polygon class="cls-15" points="499.2 163.01 491.73 158.69 488.17 166.58 494.15 170.03 499.2 163.01"/><polygon class="cls-15" points="484.05 151.09 479.74 143.63 472.71 148.67 476.16 154.65 484.05 151.09"/><polygon class="cls-15" points="476.88 133.2 476.88 124.58 468.27 125.43 468.27 132.34 476.88 133.2"/><polygon class="cls-15" points="479.62 114.12 483.93 106.65 476.05 103.09 472.6 109.07 479.62 114.12"/><polygon class="cls-15" points="491.54 98.97 499 94.66 493.96 87.63 487.98 91.08 491.54 98.97"/><path class="cls-6" d="M423.83,95.92a21.92,21.92,0,1,0,22.48-21.34A21.92,21.92,0,0,0,423.83,95.92Zm11.68.3a10.23,10.23,0,1,1,10,10.5A10.23,10.23,0,0,1,435.51,96.22Z"/><polygon class="cls-6" points="442.08 75.38 450.5 75.61 450.2 69.63 442.7 69.43 442.08 75.38"/><polygon class="cls-6" points="458.04 78.64 463.84 84.76 467.85 80.32 462.69 74.88 458.04 78.64"/><polygon class="cls-6" points="467.02 92.24 466.8 100.66 472.77 100.35 472.97 92.86 467.02 92.24"/><polygon class="cls-6" points="463.76 108.2 457.64 114 462.09 118 467.52 112.84 463.76 108.2"/><polygon class="cls-6" points="450.17 117.18 441.74 116.95 442.05 122.93 449.54 123.13 450.17 117.18"/><polygon class="cls-6" points="434.21 113.91 428.41 107.8 424.4 112.24 429.56 117.68 434.21 113.91"/><polygon class="cls-6" points="425.23 100.32 425.45 91.9 419.47 92.21 419.28 99.7 425.23 100.32"/><polygon class="cls-6" points="428.49 84.36 434.6 78.56 430.16 74.56 424.72 79.71 428.49 84.36"/><path class="cls-6" d="M451.56,91.12,444.38,89l-5.44,5.16,1.75,7.28,7.18,2.13,5.44-5.15Zm-5.5,7.53a2.38,2.38,0,1,1,2.44-2.31A2.37,2.37,0,0,1,446.06,98.65Z"/><path class="cls-3" d="M68.25,265.92a21.92,21.92,0,1,0,22.49-21.33A21.91,21.91,0,0,0,68.25,265.92Zm11.68.31a10.23,10.23,0,1,1,10,10.5A10.24,10.24,0,0,1,79.93,266.23Z"/><polygon class="cls-3" points="86.5 245.39 94.93 245.61 94.62 239.63 87.13 239.44 86.5 245.39"/><polygon class="cls-3" points="102.46 248.65 108.26 254.76 112.27 250.32 107.11 244.88 102.46 248.65"/><polygon class="cls-3" points="111.44 262.24 111.22 270.66 117.19 270.36 117.39 262.86 111.44 262.24"/><polygon class="cls-3" points="108.18 278.2 102.06 284 106.51 288.01 111.95 282.85 108.18 278.2"/><polygon class="cls-3" points="94.59 287.18 86.16 286.96 86.47 292.93 93.97 293.13 94.59 287.18"/><polygon class="cls-3" points="78.63 283.92 72.83 277.8 68.82 282.25 73.98 287.68 78.63 283.92"/><polygon class="cls-3" points="69.65 270.32 69.87 261.9 63.9 262.21 63.7 269.7 69.65 270.32"/><polygon class="cls-3" points="72.91 254.37 79.03 248.56 74.58 244.56 69.14 249.72 72.91 254.37"/><path class="cls-3" d="M96,261.13,88.8,259l-5.44,5.16,1.75,7.28,7.18,2.13,5.44-5.16Zm-5.5,7.53a2.38,2.38,0,1,1,2.44-2.32A2.38,2.38,0,0,1,90.48,268.66Z"/><rect class="cls-4" x="379.47" y="357.93" width="170.18" height="107.67"/><path class="cls-4" d="M380.11,465H549V358.57H380.11Z"/><path class="cls-16" d="M380.11,465,549,464.8l-.15.15-.1-106.38.25.25-168.89-.14.11-.11Zm0,0L380,358.57v-.1h.1L549,358.32h.25v.25L549.15,465v.15H549Z"/><rect class="cls-5" x="380.11" y="358.57" width="168.89" height="11.41"/><rect class="cls-1" x="392.67" y="394.73" width="6.58" height="2.4"/><rect class="cls-1" x="404.05" y="394.73" width="75.49" height="2.4"/><rect class="cls-3" x="483.59" y="394.73" width="12.5" height="2.4"/><rect class="cls-15" x="498.81" y="394.73" width="21.61" height="2.4"/><rect class="cls-1" x="399.25" y="401.16" width="6.58" height="2.4"/><rect class="cls-15" x="410.47" y="401.16" width="49.54" height="2.4"/><rect class="cls-15" x="404.05" y="420.46" width="47.32" height="2.4"/><rect class="cls-3" x="410.47" y="407.59" width="33.2" height="2.4"/><rect class="cls-15" x="491.95" y="414.03" width="12.66" height="2.4"/><rect class="cls-15" x="447.35" y="407.59" width="53.01" height="2.4"/><rect class="cls-3" x="404.05" y="426.89" width="63.28" height="2.4"/><rect class="cls-3" x="497.41" y="401.16" width="34.3" height="2.4"/><rect class="cls-1" x="463.12" y="401.16" width="31.57" height="2.4"/><rect class="cls-1" x="502.86" y="407.59" width="21.31" height="2.4"/><rect class="cls-1" x="399.25" y="407.59" width="6.58" height="2.4"/><rect class="cls-15" x="392.67" y="414.03" width="6.58" height="2.4"/><rect class="cls-1" x="404.05" y="414.03" width="38.9" height="2.4"/><rect class="cls-1" x="454.05" y="420.46" width="42.04" height="2.4"/><rect class="cls-3" x="498.81" y="420.46" width="26.75" height="2.4"/><rect class="cls-3" x="446.9" y="414.03" width="41.99" height="2.4"/><rect class="cls-1" x="392.67" y="420.46" width="6.58" height="2.4"/><rect class="cls-1" x="392.67" y="426.89" width="6.58" height="2.4"/><path class="cls-3" d="M396.74,388.39a.59.59,0,0,1,0,.82.57.57,0,0,1-.4.16.57.57,0,0,1-.41-.16l-2.54-2.58a.06.06,0,0,1-.05-.05l0,0a.64.64,0,0,0,0-.07.05.05,0,0,1,0,0s0,0,0-.05,0,0,0,0v-.22s0,0,0,0l0-.07v0a.59.59,0,0,0,0-.08,0,0,0,0,1,0,0l.06-.06,2.54-2.58a.6.6,0,0,1,.81,0,.59.59,0,0,1,0,.82l-2.14,2.16Z"/><path class="cls-3" d="M399,388.68l2.21-5.26a.51.51,0,0,1,.66-.27.49.49,0,0,1,.25.65L400,389.07a.5.5,0,0,1-.46.3.39.39,0,0,1-.18,0A.49.49,0,0,1,399,388.68Z"/><path class="cls-3" d="M406.54,386.56h0l-.07.06-2.54,2.58a.55.55,0,0,1-.4.16.57.57,0,0,1-.41-.16.59.59,0,0,1,0-.82l2.14-2.15-2.14-2.16a.59.59,0,0,1,0-.82.6.6,0,0,1,.81,0l2.54,2.58.07.06s0,0,0,0,0,.05,0,.08v0a.41.41,0,0,0,0,.08v.27s0,.06,0,.08,0,0,0,0A.29.29,0,0,0,406.54,386.56Z"/><path class="cls-3" d="M389,364.17a2.08,2.08,0,1,1-2.08-2.07A2.08,2.08,0,0,1,389,364.17Z"/><path class="cls-4" d="M397.45,364.17a2.08,2.08,0,1,1-2.08-2.07A2.08,2.08,0,0,1,397.45,364.17Z"/><path class="cls-6" d="M405.92,364.17a2.08,2.08,0,1,1-2.08-2.07A2.08,2.08,0,0,1,405.92,364.17Z"/><path class="cls-17" d="M252.31,282.19a15.6,15.6,0,0,1-2.67-8.62c0-10.93,12-19.78,26.78-19.78s26.77,8.85,26.77,19.78-12,19.78-26.77,19.78A32.11,32.11,0,0,1,258,287.87l-9.23,2.35Z"/><path class="cls-16" d="M252.31,282.19a15.3,15.3,0,0,1-.67-16.56,21,21,0,0,1,5.9-6.43,27.83,27.83,0,0,1,7.78-4,36,36,0,0,1,8.59-1.74,36.73,36.73,0,0,1,8.76.44,30.88,30.88,0,0,1,8.38,2.6,26.11,26.11,0,0,1,7.24,5A18.5,18.5,0,0,1,303,269a15.13,15.13,0,0,1,.08,8.84,18.18,18.18,0,0,1-4.56,7.56,25.84,25.84,0,0,1-7.18,5.09,34.42,34.42,0,0,1-17.1,3.14,31.78,31.78,0,0,1-16.4-5.57l.19,0-9.25,2.24-.22.05.09-.21Zm0,0-3.49,8.07-.13-.15,9.2-2.46.1,0,.09.06a31.49,31.49,0,0,0,16.17,5.23,36,36,0,0,0,8.55-.59,31,31,0,0,0,8.13-2.64,25.06,25.06,0,0,0,6.9-4.93,17.36,17.36,0,0,0,4.3-7.18,14.24,14.24,0,0,0-.11-8.28,17.44,17.44,0,0,0-4.41-7.11,25,25,0,0,0-6.95-4.85,30.27,30.27,0,0,0-8.14-2.57,37.69,37.69,0,0,0-8.55-.48,35.88,35.88,0,0,0-8.42,1.58c-5.43,1.73-10.53,5.07-13.54,10a15.4,15.4,0,0,0-2.26,8.18A15.68,15.68,0,0,0,252.31,282.19Z"/><path class="cls-3" d="M268.08,278.9a1.41,1.41,0,0,1,0,2,1.45,1.45,0,0,1-1,.4,1.53,1.53,0,0,1-1-.4l-6.26-6.36c-.07,0-.09-.07-.12-.14l-.06,0a.45.45,0,0,1-.07-.18.14.14,0,0,1-.07-.09s0-.11,0-.13-.05-.09-.05-.11v-.16s0-.07,0-.13,0-.09,0-.11v-.16c0-.05.05-.07.05-.09s0-.11,0-.18,0,0,0,0,.06-.16.11-.2,0-.05,0-.05a.39.39,0,0,1,.14-.15l6.26-6.36a1.45,1.45,0,0,1,2,0,1.41,1.41,0,0,1,0,2l-5.29,5.33Z"/><path class="cls-3" d="M273.77,279.61l5.46-13a1.24,1.24,0,0,1,1.63-.65,1.2,1.2,0,0,1,.63,1.58l-5.47,13a1.24,1.24,0,0,1-1.14.74,1,1,0,0,1-.44-.09A1.2,1.2,0,0,1,273.77,279.61Z"/><path class="cls-3" d="M292.28,274.37a0,0,0,0,1,0,0,1.1,1.1,0,0,1-.15.16l-6.27,6.36a1.48,1.48,0,0,1-1,.4,1.46,1.46,0,0,1-1-.4,1.41,1.41,0,0,1,0-2l5.29-5.33-5.29-5.33a1.41,1.41,0,0,1,0-2,1.45,1.45,0,0,1,2,0l6.27,6.36a1.06,1.06,0,0,1,.15.15s0,.05,0,.05.09.13.12.2,0,0,0,0a.69.69,0,0,0,.07.2s0,0,0,.07v.16s0,.08,0,.11,0,.09,0,.11v.18s0,0,0,0a1.22,1.22,0,0,0-.07.2s0,0,0,.07Z"/><polygon class="cls-18" points="191.79 492.96 116.46 553.7 120.7 553.7 207.7 492.96 191.79 492.96"/><polygon class="cls-18" points="198.87 492.96 161.64 553.7 165.89 553.7 211.51 492.96 198.87 492.96"/><polygon class="cls-18" points="217.12 492.96 254.34 553.7 250.09 553.7 204.47 492.96 217.12 492.96"/><polygon class="cls-18" points="223.62 492.96 298.94 553.7 294.7 553.7 207.7 492.96 223.62 492.96"/><polygon class="cls-6" points="349.34 470.68 349.34 452.91 245.9 448.66 191.26 302.78 66.07 302.78 110.36 470.68 216.19 500.38 222.82 500.38 349.34 470.68"/><polygon class="cls-10" points="66.07 302.78 80.39 302.78 126.54 455.82 220.17 482.35 349.34 452.91 349.34 470.68 222.82 500.38 216.19 500.38 110.36 470.68 66.07 302.78"/><path class="cls-19" d="M127.45,489.74c.68-2.69,42.82-67.5,45.91-68.91.35-.18,22.21,13.14,22.21,13.14.94,1.08,39.88-10.1,39.88-10.1l3.8,47.67-72.13,3.61s-9.32,6.42-17.88,11.71h0c-5.27,3.27-9.94,6.05-11.3,6.51C134.37,494.56,126.75,492.41,127.45,489.74Z"/><path class="cls-4" d="M137.91,493.38c1.36-.45,6-3.23,11.3-6.52,0,0,0,0,0,0,8.56-5.29,17.88-11.71,17.88-11.71l16-.8,22.2-42.29c-5.44,1.37-9.5,2.25-9.8,1.9,0,0-21.85-13.31-22.21-13.12-3.09,1.4-45.22,66.2-45.91,68.89S134.37,494.57,137.91,493.38Z"/><path class="cls-3" d="M127,489.85c.73-2.76,43.07-67.54,46.25-69,1.2-.56,11.83,5,22.29,13.11L168.22,475.7s-26.79,16.74-30.45,18S126.31,492.61,127,489.85Z"/><path class="cls-5" d="M130.23,490.61c7.37-10.68,36.07-54.47,42.53-65.6.06-.09,0-.13-.06,0-7.54,10.43-35.88,54.45-42.65,65.53C129.91,490.73,130.08,490.84,130.23,490.61Z"/><path class="cls-5" d="M142.83,491a10.39,10.39,0,0,0,1.59-8.23,10.07,10.07,0,0,0-4.21-6.21c-.06-.05-.14.07-.08.13a12,12,0,0,1,2.56,14.22C142.64,491,142.77,491.1,142.83,491Z"/><path class="cls-5" d="M164.9,478.39c2.9-4.3,4.66-10.34,2.87-15.37-.06-.19-.34-.09-.36.08a71.58,71.58,0,0,1-3.09,15A.32.32,0,0,0,164.9,478.39Z"/><path class="cls-5" d="M161.4,480.89c2.9-4.3,4.66-10.34,2.87-15.37-.07-.19-.34-.09-.36.08a71.45,71.45,0,0,1-3.09,15A.32.32,0,0,0,161.4,480.89Z"/><path class="cls-5" d="M157.9,483.39c2.9-4.3,4.66-10.34,2.87-15.37-.07-.19-.34-.09-.36.08a72.09,72.09,0,0,1-3.09,15A.32.32,0,0,0,157.9,483.39Z"/><path class="cls-5" d="M154.4,485.9c2.9-4.31,4.66-10.35,2.87-15.38-.07-.19-.34-.09-.36.08a72.11,72.11,0,0,1-3.1,15A.33.33,0,0,0,154.4,485.9Z"/><path class="cls-5" d="M181.27,434.52c3.17-4.88-4.41-9.82-7.59-4.93S178.09,439.42,181.27,434.52Z"/><path class="cls-5" d="M173.43,490.67c3.26-1,3.29-4.94,2.28-7.54a27.2,27.2,0,0,0-8.53-11.21.13.13,0,0,0-.21.05.63.63,0,0,0-.86.56c.11,4.49-.32,9.31,1.18,13.63C168.16,488.69,170.34,491.63,173.43,490.67Zm-5.75-11.37c-.11-2.21-.12-4.41-.31-6.61a81.35,81.35,0,0,1,4.84,6.66,27.46,27.46,0,0,1,1.89,3.5c.82,1.88,1.67,8.53-3.34,5.87C168,487.25,167.81,481.93,167.68,479.3Z"/><path class="cls-5" d="M172.63,460.07c-3.06,3.4-4.53,8-6.38,12.1a.63.63,0,0,0,.58.85.13.13,0,0,0,.17.13,27.3,27.3,0,0,0,12.22-7c1.94-2,3.44-5.64.82-7.83C177.57,456.22,174.41,458.08,172.63,460.07Zm4.19-1c5.65-.5,2.29,5.29.81,6.7a28.6,28.6,0,0,1-3.11,2.5c-2.24,1.61-4.67,2.88-7.05,4.26,1-2,1.9-4,2.86-6C171.47,464.17,173.7,459.34,176.82,459.06Z"/><path class="cls-5" d="M223.35,413.81s60.47-28.17,87.53-28c32.2.17,57.46,38.23,18.17,66-34.73,24.58-144.71,23.5-144.71,23.5L209.74,429s30.3-12,70.07-13.47l-55.43,11.63Z"/><path class="cls-20" d="M224.53,423c4.74-1.24,9.58-2.08,14.41-3s9.74-1.72,14.63-2.48A290.5,290.5,0,0,1,283,414.37c.92-.05,1.85-.08,2.77-.12a6,6,0,0,1,.6-.19c.46-.15.92-.3,1.39-.42.88-.24,1.76-.43,2.65-.63,1.84-.42,3.69-.75,5.52-1.23.11,0,.17.14.06.17-1.84.55-3.63,1.22-5.46,1.76l-1.59.45c3.62-.06,7.24,0,10.87,0a.09.09,0,0,1,0,.18c-4.92.06-9.86.37-14.76.81s-9.74.88-14.58,1.51c-9.81,1.27-19.58,2.85-29.32,4.58-5.46,1-10.92,2.05-16.44,2.67C224.19,424,224,423.14,224.53,423Z"/><path class="cls-20" d="M195.5,473.16c1.56-2.94,2.85-6.06,4.25-9.08S202.57,458,204,455c2.82-6,13-26.4,14.09-27.85a.11.11,0,0,1,.19.1c-.44,1.55-6.76,15-8.23,18-2.92,6-6,11.91-9.08,17.85-.87,1.7-1.77,3.37-2.66,5.06s-1.84,3.36-2.64,5.08C195.61,473.35,195.45,473.26,195.5,473.16Z"/><path class="cls-19" d="M338.83,488.24c-.81-2.66-46-65.37-49.15-66.64-.36-.16-21.55,14.18-21.55,14.18-.89,1.13-40.32-8.18-40.32-8.18l-1.52,47.79,72.22.17s9.61,6,18.42,10.84h0c5.42,3,10.22,5.57,11.6,6C332.14,493.39,339.65,490.88,338.83,488.24Z"/><path class="cls-4" d="M328.56,492.38c-1.39-.39-6.18-2.95-11.6-6h0c-8.81-4.88-18.42-10.85-18.42-10.85l-16.07,0-24.2-41.17c5.5,1.11,9.6,1.79,9.89,1.43,0,0,21.19-14.34,21.55-14.18,3.16,1.26,48.33,64,49.15,66.63S332.15,493.39,328.56,492.38Z"/><path class="cls-3" d="M339.25,488.33c-.85-2.72-46.24-65.41-49.48-66.71-1.23-.49-11.58,5.56-21.64,14.16l29.31,40.38S325,491.6,328.7,492.64,340.1,491.05,339.25,488.33Z"/><path class="cls-5" d="M336.09,489.25c-7.86-10.33-38.62-52.7-45.61-63.5-.06-.09,0-.13.06-.05,8,10.06,38.44,52.68,45.72,63.42C336.42,489.35,336.26,489.46,336.09,489.25Z"/><path class="cls-5" d="M323.53,490.25a10.43,10.43,0,0,1-2-8.15,10.09,10.09,0,0,1,3.91-6.41c.07,0,.15.07.09.13a12,12,0,0,0-1.88,14.33C323.71,490.24,323.59,490.33,323.53,490.25Z"/><path class="cls-5" d="M300.88,478.69c-3.11-4.16-5.15-10.11-3.6-15.21.06-.2.34-.11.36.06a71.36,71.36,0,0,0,3.81,14.85A.33.33,0,0,1,300.88,478.69Z"/><path class="cls-5" d="M304.49,481c-3.1-4.17-5.15-10.12-3.6-15.22.06-.2.34-.11.37.06a72,72,0,0,0,3.8,14.85A.33.33,0,0,1,304.49,481Z"/><path class="cls-5" d="M308.11,483.36c-3.1-4.17-5.15-10.12-3.6-15.22.06-.2.34-.11.37.06a71.34,71.34,0,0,0,3.8,14.85A.33.33,0,0,1,308.11,483.36Z"/><path class="cls-5" d="M311.73,485.69c-3.11-4.17-5.15-10.12-3.6-15.22.06-.2.34-.11.36.06a71.36,71.36,0,0,0,3.81,14.85A.33.33,0,0,1,311.73,485.69Z"/><path class="cls-5" d="M282.43,435.65c-3.4-4.72,3.95-10,7.35-5.28S285.84,440.39,282.43,435.65Z"/><path class="cls-5" d="M298.87,486.57c1.28-4.39.62-9.19.53-13.68a.64.64,0,0,0-.89-.51c-.05-.07-.13-.12-.22,0a27.31,27.31,0,0,0-8,11.6c-.88,2.64-.66,6.58,2.65,7.43C296.07,492.17,298.12,489.13,298.87,486.57Zm-3.35,2.72c-4.87,2.89-4.35-3.78-3.62-5.7a28.87,28.87,0,0,1,1.72-3.59c1.33-2.43,3-4.62,4.52-6.89-.09,2.21,0,4.41,0,6.62C298.14,482.37,298.21,487.69,295.52,489.29Z"/><path class="cls-5" d="M284.8,459.34c-2.51,2.32-.84,5.88,1.19,7.79a27.33,27.33,0,0,0,12.54,6.43.14.14,0,0,0,.17-.14.64.64,0,0,0,.54-.87c-2.05-4-3.74-8.54-6.95-11.79C290.41,458.86,287.17,457.15,284.8,459.34Zm10.09,7.77c1.06,1.95,2,3.93,3.14,5.84-2.44-1.27-4.93-2.41-7.24-3.92a28.77,28.77,0,0,1-3.22-2.34c-1.56-1.35-5.19-7,.48-6.74C291.18,460.08,293.64,464.8,294.89,467.11Z"/><path class="cls-5" d="M226,412.89s-61.16-18.41-93.79-14.52c-32,3.81-45.09,43.9-13.91,65.62,34,23.73,162.19,15.42,162.19,15.42l-27.37-49s-43.64-10.27-83.44-9.87l55.93,9Z"/><path class="cls-20" d="M254.92,433.58a1,1,0,0,1-.06-.25c0-.07,0-.13,0-.2l-.12-.47a9.56,9.56,0,0,0-.3-1c-.12-.32-.25-.63-.38-.93a6.9,6.9,0,0,0-.52-.87s-.05,0-.07-.06l-.05,0s0,0-.07,0,0,0-.07,0c-4.8-1-37.47-6.48-42.33-7.15s-9.81-1.25-14.73-1.78a291.76,291.76,0,0,0-29.55-1.76c-.92,0-1.85,0-2.77,0-.19-.07-.4-.11-.6-.17-.48-.12-.94-.25-1.42-.35-.88-.2-1.78-.35-2.67-.5-1.86-.33-3.73-.58-5.58-1a.09.09,0,0,0,0,.18c1.85.45,3.67,1,5.53,1.49l1.61.38c-3.62.1-7.24.3-10.85.54-.12,0-.13.18,0,.18,4.92-.17,9.87-.09,14.79.11s9.76.42,14.63.81c9.86.8,19.7,1.92,29.5,3.18,5.5.71,38.8,6.37,44.33,6.73h.07a3.73,3.73,0,0,0,.15.38c.14.3.29.6.44.9s.3.57.48.85l.26.41.13.2a1,1,0,0,1,.14.21A.09.09,0,1,0,254.92,433.58Z"/><path class="cls-20" d="M270.25,476.23c-1.7-2.86-3.14-5.91-4.68-8.86l-4.66-8.87c-3.11-5.9-14.29-25.75-15.41-27.15-.07-.09-.22,0-.19.11.52,1.53,7.48,14.66,9.08,17.59,3.21,5.86,6.59,11.61,9.92,17.4.95,1.65,1.94,3.28,2.9,4.93s2,3.26,2.88,4.94C270.14,476.43,270.31,476.33,270.25,476.23Z"/><path class="cls-5" d="M209.69,280.13c-9.84,6-15.26,18.41-15.26,18.41s-10.77,11.25-10.36,18.85a13.32,13.32,0,0,0,6.12,10.75l.2-4.11s1.32,5.66,9.35,9.76,19.94,4.2,26.52,2.65A23.13,23.13,0,0,0,236.7,331l-3.57,5.17s8.34,1.71,15.37-5.89-4-23.68-4.54-26.69,2.74-23.23-19-24.85C225,278.69,216.47,276,209.69,280.13Z"/><path class="cls-5" d="M187.29,326.9a13.72,13.72,0,0,1-4.12-7.12,12.44,12.44,0,0,1,.58-8.14c1.35-3.07,3.73-5.49,6.05-7.86s5-4.72,7.32-7.21c.13-.14-.08-.32-.22-.23a76.13,76.13,0,0,0-6.84,5.59,36.24,36.24,0,0,0-5.8,6,13.51,13.51,0,0,0-2.72,7.08,12.94,12.94,0,0,0,1.28,6.12,27.8,27.8,0,0,0,4.32,5.9C187.24,327.16,187.41,327,187.29,326.9Z"/><path class="cls-5" d="M252.46,321.6c-.74-7.92-6.19-14.14-8.65-21.48-1.33-4-2.08-8.2-4.17-11.88-.06-.1-.23,0-.18.1,1.66,3.26,2.22,6.83,3.14,10.32a54.48,54.48,0,0,0,4.13,10.11c2.94,6,6.47,13,3.85,19.75-1.22,3.11-4,6.2-7.5,6.4-.14,0-.11.24,0,.22a10.61,10.61,0,0,0,7.13-4.38A13.47,13.47,0,0,0,252.46,321.6Z"/><path class="cls-5" d="M252.28,323.64a13.82,13.82,0,0,0,.09-8.37,19.52,19.52,0,0,0-4.62-7c-2.19-2.37-4.55-4.69-5.54-7.84,0-.13-.24-.05-.2.08,1.54,5.18,6,8.51,8.49,13.15,2.82,5.3,1.28,11.67-2.59,16a22.76,22.76,0,0,1-8.81,5.9c-.06,0,0,.11,0,.09C244.85,333.61,250.4,329.69,252.28,323.64Z"/><path class="cls-21" d="M205.36,344c8.06,22.78,22.42,49.54,27.69,53.54,6.66,5.07,42.82,9.18,44.82,9.17,5-.07,8.67-33.3,3.36-33.46-8.08-.23-30.34.17-32.28-1.41s-16-15.64-30.55-31.59C208.35,329.26,200.35,329.9,205.36,344Z"/><path class="cls-21" d="M276,406.75c.59.21,8.93,3.27,14,4.12,3.76.64,14.63,2.18,15.74-1.89.76-2.78-5.53-4.43-9.94-5.71-2.33-.66-5.34-2.67-4.85-4.18.86-2.63,6.87-.78,10.88,1,7.75,3.39,18.32,9.88,22.33,5.68,1.52-1.59-.72-3.9-3.86-6.06,5,2.36,10.17,4.18,11.92,2.48,1-1,.93-2.13.16-3.37,1.49.3,2.74.06,3.51-1,1.33-1.75.32-4-1.6-6.18a1.81,1.81,0,0,0,1.27-1.06c2.62-5.22-14.93-17.33-20.59-18-16.67-2-33.68.7-33.68.7C275.45,379.11,276,406.74,276,406.75Z"/><path class="cls-5" d="M298.11,389.06a27.88,27.88,0,0,1,11.3,2.92c4.42,2.24,7.51,5.11,11.33,7.91.1.07,0,.23-.11.16-1.82-1.34-9.29-6.27-11.2-7.36a26.42,26.42,0,0,0-11.33-3.56S298.06,389.06,298.11,389.06Z"/><path class="cls-5" d="M300.34,381.83a66.59,66.59,0,0,1,13.09,2.91c4.58,1.71,8.38,4.92,12.12,8q3.36,2.77,6.59,5.69c.09.08,0,.24-.11.16q-5.68-4.79-11.66-9.22a35,35,0,0,0-12.32-5.91c-2.54-.65-5.13-1.1-7.72-1.55A0,0,0,0,1,300.34,381.83Z"/><path class="cls-5" d="M304.2,375.29c4.24.37,7.93.68,11.86,2.48,5.19,2.38,10.45,6.79,12.3,8.36,2,1.73,4,3.52,6,5.35.08.07-.05.21-.13.14a139.22,139.22,0,0,0-14.08-11.06,27.5,27.5,0,0,0-7.59-3.78,50,50,0,0,0-8.34-1.46S304.18,375.29,304.2,375.29Z"/><path class="cls-3" d="M281.13,370.79l-7.76,40.11s-34.17-5.63-41-11.45-21.83-38.2-27-54.14,3.14-16.48,11.91-7.07,30.51,32.17,31.63,32.59S281.13,370.79,281.13,370.79Z"/><path class="cls-4" d="M266.64,395.4a2.55,2.55,0,0,1-1,.5,2,2,0,0,1-1.89-.57,2.65,2.65,0,0,0-2.93-.51,2.57,2.57,0,0,0-1.09,1c-.24.37-.52.71-.73,1.1.39-.23.73-.49,1.1-.73a2.5,2.5,0,0,1,1-.54,2,2,0,0,1,1.9.49,2.64,2.64,0,0,0,2.89.6,2.6,2.6,0,0,0,1.13-.92c.24-.37.51-.71.73-1.1C267.35,394.89,267,395.16,266.64,395.4Zm-34.15-17.14a2.27,2.27,0,0,1-1,.49,2,2,0,0,1-1.88-.57,2.63,2.63,0,0,0-2.93-.51,2.57,2.57,0,0,0-1.09,1c-.24.37-.52.71-.74,1.1.39-.22.74-.49,1.11-.73a2.38,2.38,0,0,1,1-.54,2,2,0,0,1,1.89.49,2.57,2.57,0,0,0,4-.32c.25-.37.52-.71.74-1.11C233.2,377.74,232.85,378,232.49,378.26Zm-26.64-42a2.51,2.51,0,0,1-1,.5,2,2,0,0,1-1,0,5,5,0,0,0,0,1,2.55,2.55,0,0,0,2.36-1.1c.26-.37.52-.72.74-1.11C206.56,335.79,206.21,336.06,205.85,336.3Zm55.7,39.83a2.34,2.34,0,0,1-1.07-.36,2,2,0,0,1-.93-1.75,2.63,2.63,0,0,0-1.71-2.42,2.58,2.58,0,0,0-1.44-.11c-.43.1-.87.15-1.31.27.44.12.88.17,1.31.26a2.38,2.38,0,0,1,1.09.34,2,2,0,0,1,1,1.68,2.66,2.66,0,0,0,1.62,2.47,2.46,2.46,0,0,0,1.45.15c.44-.09.87-.15,1.31-.26C262.42,376.27,262,376.23,261.55,376.13ZM229,355.89a2.47,2.47,0,0,1-1.07-.36,2,2,0,0,1-.93-1.75,2.67,2.67,0,0,0-1.71-2.43,2.71,2.71,0,0,0-1.45-.1c-.42.1-.86.14-1.3.27.44.11.88.17,1.3.26a2.69,2.69,0,0,1,1.1.32,2,2,0,0,1,1,1.7,2.69,2.69,0,0,0,1.63,2.47,2.53,2.53,0,0,0,1.45.14c.43-.08.87-.14,1.3-.26C229.82,356,229.38,356,229,355.89Zm6.8,44.32a2.66,2.66,0,0,0-1.44-.09l-.79.14-.52.11c.36.11.73.15,1.08.23a1.85,1.85,0,0,1,.23,0,2.41,2.41,0,0,1,1.09.33,2,2,0,0,1,.65.61l1.35.59A2.62,2.62,0,0,0,235.75,400.21Z"/><path class="cls-5" d="M268.21,394.07c1-4.73,2-9.46,2.73-14.23.44-2.71.9-5.42,1.31-8.13,0-.1-.15-.14-.18,0-1.14,4.71-2.28,9.44-3.21,14.21s-1.89,9.47-2.76,14.23q-.74,4-1.22,8.14c0,.05.08.07.09,0C266.28,403.59,267.25,398.84,268.21,394.07Z"/><path class="cls-10" d="M274.14,406.91l-.77,4s-34.17-5.63-41-11.45-21.83-38.2-27-54.14c-3.77-11.65-.35-15.08,5.18-12.4C226.59,351.17,256.75,385.83,274.14,406.91Z"/><path class="cls-3" d="M159.27,411.83l79.55,1.32-4-25.44s6.47-5.59,2.7-16.23c-2.47-7-13.63-23.28-19.27-30.06-13.76-16.53-23.28-7.31-27.09-3.05C176.63,354.61,159.27,411.83,159.27,411.83Z"/><path class="cls-4" d="M237,401.14a2.51,2.51,0,0,0-1.2-.93,2.66,2.66,0,0,0-1.44-.09c-.43.08-.87.14-1.31.25.44.13.88.18,1.31.27a2.41,2.41,0,0,1,1.09.33,2,2,0,0,1,1,1.69,2.72,2.72,0,0,0,1.15,2.23Zm-55.49-46.28a3,3,0,0,1-.45-.09c-.11.21-.22.42-.32.64a3.2,3.2,0,0,0,.77,0,11.53,11.53,0,0,0,1.3-.27C182.33,355,181.9,354.94,181.46,354.86Zm26,36.37a2.47,2.47,0,0,1-1.07-.37,2,2,0,0,1-.93-1.74,2.68,2.68,0,0,0-1.71-2.44,2.8,2.8,0,0,0-1.45-.09c-.43.09-.86.14-1.3.26.44.12.87.17,1.3.27a2.41,2.41,0,0,1,1.1.32,2,2,0,0,1,1,1.7,2.69,2.69,0,0,0,1.63,2.47,2.53,2.53,0,0,0,1.45.14,12,12,0,0,0,1.3-.27C208.34,391.37,207.9,391.31,207.47,391.23Zm21.31-35.37a2.25,2.25,0,0,1-.9-.33,2,2,0,0,1-.93-1.75,2.64,2.64,0,0,0-.87-1.91,2.23,2.23,0,0,0-.84-.52,2.71,2.71,0,0,0-1.45-.1c-.42.1-.86.14-1.3.27.44.11.88.17,1.3.26a2.69,2.69,0,0,1,1.1.32,2,2,0,0,1,1,1.7,2.69,2.69,0,0,0,1.63,2.47,2.53,2.53,0,0,0,1.45.14l.16,0C229,356.2,228.88,356,228.78,355.86Zm-23.63,5.41c-.08-.44-.14-.86-.26-1.3-.12.44-.17.86-.26,1.3a2.64,2.64,0,0,1-.33,1.09,2,2,0,0,1-1.69,1,2.67,2.67,0,0,0-2.48,1.63,2.53,2.53,0,0,0-.14,1.45c.09.42.15.86.26,1.3.13-.44.18-.88.27-1.3a2.34,2.34,0,0,1,.35-1.08,2.07,2.07,0,0,1,1.75-.93,2.6,2.6,0,0,0,2.53-3.15Zm-16.89,45c-.09-.43-.15-.86-.26-1.3-.13.44-.18.87-.27,1.3a2.34,2.34,0,0,1-.33,1.09,2,2,0,0,1-1.69,1,2.71,2.71,0,0,0-2.48,1.63,2.53,2.53,0,0,0-.14,1.45c.06.25.09.51.15.76h.24c.05-.25.08-.51.14-.76a2.35,2.35,0,0,1,.37-1.07,2,2,0,0,1,1.74-.93,2.65,2.65,0,0,0,2.43-1.71A2.81,2.81,0,0,0,188.26,406.31Zm17.59-70a2.51,2.51,0,0,1-1,.5,2.07,2.07,0,0,1-1.9-.57,2.63,2.63,0,0,0-2.93-.51,2.74,2.74,0,0,0-1.09.94c-.24.38-.5.72-.72,1.12.39-.23.73-.5,1.1-.74a2.74,2.74,0,0,1,1-.54,2,2,0,0,1,1.89.5,2.69,2.69,0,0,0,2.91.59,2.46,2.46,0,0,0,1.11-.91c.26-.37.52-.72.74-1.11C206.56,335.79,206.21,336.06,205.85,336.3Zm-23.77,46.83a2.47,2.47,0,0,1-1,.49,2,2,0,0,1-1.89-.57,2.64,2.64,0,0,0-2.93-.51,2.57,2.57,0,0,0-1.09,1c-.24.37-.51.71-.73,1.1.39-.23.73-.49,1.1-.73a2.64,2.64,0,0,1,1-.54,2,2,0,0,1,1.9.49,2.67,2.67,0,0,0,2.89.61,2.63,2.63,0,0,0,1.13-.93c.24-.37.51-.71.73-1.1A13.1,13.1,0,0,0,182.08,383.13Zm50.41-4.87a2.27,2.27,0,0,1-1,.49,2,2,0,0,1-1.88-.57,2.63,2.63,0,0,0-2.93-.51,2.57,2.57,0,0,0-1.09,1c-.24.37-.52.71-.74,1.1.39-.22.74-.49,1.11-.73a2.38,2.38,0,0,1,1-.54,2,2,0,0,1,1.89.49,2.57,2.57,0,0,0,4-.32c.25-.37.52-.71.74-1.11C233.2,377.74,232.85,378,232.49,378.26Zm-18.64,34.06a2.68,2.68,0,0,0-2.93-.51,2.65,2.65,0,0,0-1,.87h1a1.71,1.71,0,0,1,.3-.09,2.14,2.14,0,0,1,1.35.12l1.89,0A1.87,1.87,0,0,1,213.85,412.32Zm2.91.08a2.52,2.52,0,0,1-.63.38h1l0,0c.24-.37.51-.71.73-1.1C217.47,411.88,217.13,412.16,216.76,412.4Z"/><path class="cls-5" d="M210.82,387.49a69.59,69.59,0,0,1,10.41-.17c1.73.12,3.43.32,5.14.56.86.12,1.71.21,2.56.29a11.09,11.09,0,0,0,2.7,0,.06.06,0,0,1,0,.12,18.12,18.12,0,0,1-2.52.41,18.51,18.51,0,0,1-2.47,0c-1.75-.11-3.5-.3-5.24-.42-3.53-.26-7-.51-10.59-.51C210.67,387.78,210.66,387.5,210.82,387.49Z"/><path class="cls-5" d="M203,392a74.84,74.84,0,0,1,8.38-1.94c1.41-.24,2.83-.4,4.26-.52.68-.06,1.36-.1,2-.14s1.51,0,2.26,0c.08,0,.1.12,0,.13-.71.07-1.41.25-2.11.36l-2.11.33c-1.42.22-2.83.46-4.24.67-2.84.41-5.65.86-8.47,1.37C202.84,392.3,202.81,392.08,203,392Z"/><path class="cls-21" d="M200.83,334.69c-.05,1.51,4.24,12.52,10.79,13.95,2.14.47,5.19-11.08,5.19-11.08l.42-.8,5.87-11.2L211.51,312.8l-1.71-1.73s-1.4,3.17-3.11,7.14c-.08.18-.16.37-.25.56s-.2.44-.28.65c-.27.59-.53,1.19-.79,1.8-.19.46-.38.9-.57,1.39s-.38,1-.58,1.46A81.61,81.61,0,0,0,200.83,334.69Z"/><path class="cls-5" d="M206.69,318.21a25.34,25.34,0,0,0,10.54,18.55l5.87-11.2L211.51,312.8l-1.71-1.73S208.4,314.24,206.69,318.21Z"/><path class="cls-21" d="M244.82,310.64c-2.49,22.07-16,23.07-20.75,22.53-4.32-.5-19-2.72-18.76-24.93s11.24-28,21.18-27.42S247.31,288.57,244.82,310.64Z"/><path class="cls-5" d="M242.14,306.48a14.65,14.65,0,0,1-1.45-.51,2.5,2.5,0,0,1-1.37-.81.8.8,0,0,1,.13-1,2,2,0,0,1,2-.19,2.92,2.92,0,0,1,1.65,1.25A.84.84,0,0,1,242.14,306.48Z"/><path class="cls-5" d="M227.05,303.72c.53,0,1-.07,1.53-.11a2.5,2.5,0,0,0,1.54-.41.79.79,0,0,0,.13-1,2,2,0,0,0-1.85-.71,2.82,2.82,0,0,0-1.93.77A.84.84,0,0,0,227.05,303.72Z"/><path class="cls-5" d="M229.81,310.26c0-.05-.13.06-.13.12-.12,1.51-.51,3.22-1.93,3.57a0,0,0,0,0,0,.08C229.44,314,229.94,311.71,229.81,310.26Z"/><path class="cls-5" d="M228.64,308.55c-2.39-.46-3.12,4.37-.9,4.79S230.65,308.93,228.64,308.55Z"/><path class="cls-5" d="M227.66,308.66c-.47.21-.95.63-1.47.6s-1-.6-1.27-1.15c0-.05-.08,0-.09,0a1.78,1.78,0,0,0,1,2.22c.88.26,1.65-.46,2-1.35C228,308.85,227.84,308.57,227.66,308.66Z"/><path class="cls-5" d="M238.17,311.21c0-.06.1.09.09.15-.28,1.48-.36,3.23.91,3.94,0,0,0,.1,0,.08C237.54,314.89,237.66,312.57,238.17,311.21Z"/><path class="cls-5" d="M239.75,309.86c2.43.2,1.85,5.05-.4,4.86S237.71,309.69,239.75,309.86Z"/><path class="cls-5" d="M240.72,310.3c.36.3.68.81,1.13.9s1-.38,1.38-.84c0-.05.08,0,.07.06-.08.93-.51,1.86-1.42,1.93s-1.33-.8-1.44-1.75C240.42,310.42,240.58,310.18,240.72,310.3Z"/><path class="cls-5" d="M227.78,322.51c.29.42.55,1,1.08,1.12a4.1,4.1,0,0,0,1.67-.06.05.05,0,0,1,0,.09,2,2,0,0,1-2,.43,1.59,1.59,0,0,1-.9-1.54C227.62,322.46,227.74,322.45,227.78,322.51Z"/><path class="cls-5" d="M234.8,318s0,2.28-.15,3.33c0,.1-.28.11-.64.09h0a5.06,5.06,0,0,1-4.61-2.55c-.06-.11.09-.2.18-.13a7.61,7.61,0,0,0,4.39,2c.12-.29-.12-3.91,0-3.9a9.18,9.18,0,0,1,2.32.88c.14-4.75-.48-9.48-.27-14.21a.15.15,0,0,1,.29,0c1,4.91,1,10.38.93,15.29C237.26,319.3,235.19,318.21,234.8,318Z"/><path class="cls-5" d="M233.93,320.86a6.22,6.22,0,0,1-2.59,1.74,2.78,2.78,0,0,1-1.69,0c-1.2-.4-1.15-1.52-.87-2.46a7,7,0,0,1,.65-1.43A8,8,0,0,0,233.93,320.86Z"/><path class="cls-22" d="M231.34,322.6a2.78,2.78,0,0,1-1.69,0c-1.2-.4-1.15-1.52-.87-2.46A2.87,2.87,0,0,1,231.34,322.6Z"/><path class="cls-5" d="M205.37,310.94a9.21,9.21,0,0,0,6.36-6.5,24.16,24.16,0,0,0,11-6.08c-.23.42-1.87,3.51-2.75,5.06,14.42-.17,20.6-10.1,20.6-10.1a24.56,24.56,0,0,1,4.55,9.91s1.59-8.55-1.81-15.05a14,14,0,0,0-11.75-7.92,20,20,0,0,0-20.31,2.57C200.48,291.13,205.37,310.94,205.37,310.94Z"/><path class="cls-5" d="M231,303a25.93,25.93,0,0,1-7.63,1.38,0,0,0,1,1,0,0,22.26,22.26,0,0,0,11.34-4.41,21,21,0,0,0,3.74-3.68,14.53,14.53,0,0,0,2.79-5c0-.14.25-.08.21,0a17.12,17.12,0,0,1-2.07,5.31,15.33,15.33,0,0,1-3.91,4.08A17.53,17.53,0,0,1,231,303Z"/><path class="cls-4" d="M225.48,317.61a6.61,6.61,0,1,1,8-6.7h0a6.62,6.62,0,0,1-6.37,6.85A6.39,6.39,0,0,1,225.48,317.61Zm2.62-12.06a6.11,6.11,0,0,0-1.42-.13,5.74,5.74,0,1,0,1.42.13Z"/><path class="cls-4" d="M240.59,319c-2.47-.54-4.16-3.56-3.83-7a7.89,7.89,0,0,1,1.84-4.47,4.12,4.12,0,0,1,7,.68,7.88,7.88,0,0,1,.94,4.74c-.35,3.63-2.84,6.37-5.54,6.11Zm2-12.17-.34-.05a3.53,3.53,0,0,0-3,1.35,7,7,0,0,0-1.62,4c-.3,3.15,1.24,5.88,3.47,6.1s4.27-2.17,4.57-5.32a7,7,0,0,0-.82-4.2A3.67,3.67,0,0,0,242.55,306.83Z"/><path class="cls-4" d="M233.2,311.65l-.5-.73c1.08-.74,3.49-1.64,4.93.24l-.7.53C235.65,310,233.3,311.59,233.2,311.65Z"/><path class="cls-4" d="M203.7,310.5,203,310c.22-.34,2.24-3.38,4.24-3.51s13.55,2.13,14.05,2.23l-.17.87c-3.35-.65-12.38-2.31-13.82-2.22S204.24,309.67,203.7,310.5Z"/><path class="cls-21" d="M204,315.73a4.71,4.71,0,0,0,1,.47,3.38,3.38,0,0,0,1,.23,3.13,3.13,0,0,0,1.33-.15,3.83,3.83,0,0,0,.95-.47,4.32,4.32,0,0,0,1.08-1.06l0-6.06s-3.39-7.75-6.81-6.67S200.64,313.66,204,315.73Z"/><path class="cls-5" d="M203,305a0,0,0,0,0,0,.09c2.33,1.54,3.19,4.16,3.63,6.79a2.07,2.07,0,0,0-2.93-1.16c-.07,0,0,.15,0,.14a2.32,2.32,0,0,1,2.34,1.3,10.52,10.52,0,0,1,.78,2.25c.08.25.51.22.48-.06,0,0,0,0,0-.07C208,311.09,206.42,306.06,203,305Z"/><path class="cls-21" d="M188.82,339.78c-13.15,11.53-46.84,56.87-38.57,66.58s60.27,3,75.22-2.39c4.45-1.6-9-29.69-13.95-30.8-4.1-.94-26.32,6.65-26.81,5.36-.55-1.45,3.84-11.3,10.8-29.24C203.54,328.61,194.62,334.7,188.82,339.78Z"/><path class="cls-21" d="M233.47,366.74c10.46-.4,13.21,1.1,21.86-3.93,5.67-3.3,10.21-1.09,6.58,4.69-5.93,9.46-19.32,12.82-24.3,12.64Z"/><path class="cls-21" d="M205.06,373.92s12.24-5.27,23.35-6.8c7.68-1.06,24.65-1.5,39,16.64,3.41,4.3,5.21,12.85-2.91,7.84-5.76-3.55-8.35-7.55-12.08-9,0,0,1,11.15-3.44,14.39a99,99,0,0,1-12.21,7.66,22.17,22.17,0,0,1-1.64-2.16s-4.44,2.64-12.14,1.12Z"/><path class="cls-21" d="M235.9,367.28c3.4,2.23,10.52,7.07,15,13.06,4.94,6.65,12.66,20.8,7.71,24.4-3.63,2.63-7-2.51-7-2.51s2,6.52-1.84,8.19c-3.46,1.51-5.87-2.62-5.87-2.62s.51,4.16-3.11,5c-4.35,1-4.7-7.9-10-10.71C229.56,401.44,235.9,367.28,235.9,367.28Z"/><path class="cls-5" d="M243,384.39c2.85,2.62,7.8,10.23,8.63,17.69,0,.16-.1.27-.15.12a82.07,82.07,0,0,0-8.54-17.77S242.94,384.36,243,384.39Z"/><path class="cls-5" d="M236.4,389.57c2.22,2.51,7,10.59,7.56,18.17,0,.17-.11.27-.16.12a86.73,86.73,0,0,0-7.47-18.25S236.37,389.54,236.4,389.57Z"/><path class="cls-5" d="M252.45,382.52c3.26,1.33,5.29,3.2,7.93,5.46a45.94,45.94,0,0,0,4.05,3.17c1.3.88,3.2,2.2,4.78,1.19a2.78,2.78,0,0,0,.9-2.68,13.6,13.6,0,0,0-1.47-4s.06-.09.08,0a18.51,18.51,0,0,1,1.68,3.61,4.44,4.44,0,0,1,0,2.65c-.68,1.81-2.89,1.83-4.39,1.16a14.09,14.09,0,0,1-2.51-1.54c-.77-.55-1.51-1.14-2.24-1.74-1.49-1.24-2.91-2.57-4.38-3.82a42.85,42.85,0,0,0-4.53-3.29C252.33,382.59,252.39,382.5,252.45,382.52Z"/><path class="cls-5" d="M258.31,395.06a105.1,105.1,0,0,0-5.94-12.46c0-.05,0-.11.08-.06,2.37,2.75,5.92,9.77,6.69,12s1.61,5,1.38,7.3c-.35,3.51-2.75,3.94-3.63,4a4.58,4.58,0,0,1-2.94-.79,9.25,9.25,0,0,1-2.46-2.82c0-.05,0-.11.08-.06,1.08,1.51,3,3.08,4.9,3a3.22,3.22,0,0,0,2.29-1,4.13,4.13,0,0,0,.84-2.77A19.31,19.31,0,0,0,258.31,395.06Z"/><path class="cls-3" d="M205.06,373.92l12.83,35.84s-65,7.91-69.42-3.71,24.68-52.49,37.07-64c14.37-13.33,15.52-8.19,11.38,4.49-4.34,13.27-12.06,32.32-12.06,32.32Z"/><path class="cls-4" d="M181.46,354.86a2.47,2.47,0,0,1-1.07-.37,2,2,0,0,1-.93-1.74,2.67,2.67,0,0,0-1.58-2.38l-.56.65.08.05a2,2,0,0,1,1,1.7,2.68,2.68,0,0,0,1.62,2.47,2.53,2.53,0,0,0,1.45.14,11.53,11.53,0,0,0,1.3-.27C182.33,355,181.9,354.94,181.46,354.86Zm26,36.37a2.47,2.47,0,0,1-1.07-.37,2,2,0,0,1-.93-1.74,2.68,2.68,0,0,0-1.71-2.44,2.8,2.8,0,0,0-1.45-.09c-.43.09-.86.14-1.3.26.44.12.87.17,1.3.27a2.41,2.41,0,0,1,1.1.32,2,2,0,0,1,1,1.7,2.69,2.69,0,0,0,1.63,2.47,2.53,2.53,0,0,0,1.45.14,12,12,0,0,0,1.3-.27C208.34,391.37,207.9,391.31,207.47,391.23Zm-46.66,7.67a2.24,2.24,0,0,1-1.07-.37,2,2,0,0,1-.93-1.74,2.63,2.63,0,0,0-3.16-2.53c-.44.09-.86.14-1.3.27.44.12.86.17,1.3.26a2.46,2.46,0,0,1,1.09.33,2,2,0,0,1,1,1.69,2.67,2.67,0,0,0,1.63,2.47,2.45,2.45,0,0,0,1.45.14c.43-.08.86-.14,1.29-.25A11.84,11.84,0,0,0,160.81,398.9Zm27.45,7.41c-.09-.43-.15-.86-.26-1.3-.13.44-.18.87-.27,1.3a2.34,2.34,0,0,1-.33,1.09,2,2,0,0,1-1.69,1,2.71,2.71,0,0,0-2.48,1.63,2.53,2.53,0,0,0-.14,1.45c.06.28.1.55.16.84h.22c.05-.28.09-.55.15-.83a2.35,2.35,0,0,1,.37-1.07,2,2,0,0,1,1.74-.93,2.65,2.65,0,0,0,2.43-1.71A2.81,2.81,0,0,0,188.26,406.31ZM199,336.57a.71.71,0,0,1-.07.09c-.24.38-.5.72-.72,1.12.28-.17.55-.36.81-.54C199,337,199,336.78,199,336.57Zm-16.91,46.56a2.47,2.47,0,0,1-1,.49,2,2,0,0,1-1.89-.57,2.64,2.64,0,0,0-2.93-.51,2.57,2.57,0,0,0-1.09,1c-.24.37-.51.71-.73,1.1.39-.23.73-.49,1.1-.73a2.64,2.64,0,0,1,1-.54,2,2,0,0,1,1.9.49,2.67,2.67,0,0,0,2.89.61,2.63,2.63,0,0,0,1.13-.93c.24-.37.51-.71.73-1.1A13.1,13.1,0,0,0,182.08,383.13Z"/><path class="cls-5" d="M164.62,386a76.5,76.5,0,0,1,9.82-4.52,72.92,72.92,0,0,1,10.26-3c2-.45,4-.79,6-1.15.06,0,.07.08,0,.09a95,95,0,0,0-10.35,2.88c-3.39,1.12-6.74,2.3-10.08,3.54-1.89.7-3.74,1.49-5.6,2.25C164.59,386.21,164.54,386.09,164.62,386Z"/><path class="cls-5" d="M204.9,373.81c-.33.05-18.3,4.05-18.89,4.25.09-.25,4.14-9.19,4.75-10.5l.17-.39c.38-.57.76-1.14,1.11-1.73.46-.75.91-1.51,1.36-2.26,0,0,0-.05,0,0-.48.74-1,1.47-1.45,2.2-.22.34-.43.69-.64,1,.41-.93.8-1.86,1.19-2.79.62-1.49,1.19-3,1.76-4.51,0,0-.05-.07-.07,0-1.2,2.6-2.47,5.17-3.67,7.77S184.7,379,184.73,379s19.84-4.84,20.22-5A.12.12,0,0,0,204.9,373.81Z"/><path class="cls-5" d="M203.84,396.24c-1.41-4-2.79-8-4.34-11.95-.88-2.25-1.76-4.49-2.66-6.73,0-.08-.19,0-.16.05,1.26,4.07,2.52,8.15,4,12.16s2.83,8,4.32,12q1.26,3.39,2.73,6.69a0,0,0,0,0,.08,0C206.65,404.28,205.25,400.27,203.84,396.24Z"/><path class="cls-5" d="M218.66,410.38c-.53-1.11-1.18-2.71-1.76-3.81-.15-.29-.37-.25-.25.05.39,1,.68,2.12,1.06,3.15-.91.09-1.82.15-2.73.25l-3.16.34c-2.06.21-4.13.41-6.2.58q-6.27.53-12.57.77a241.66,241.66,0,0,1-25.25-.16c-2.36-.15-4.7-.34-7-.61a66.47,66.47,0,0,1-6.89-1,.06.06,0,0,0,0,.11,37.94,37.94,0,0,0,5.94,1.39q3.17.48,6.35.76c4.24.38,8.49.53,12.74.57q12.63.11,25.25-.86c2.36-.17,4.71-.38,7.06-.61,1.19-.12,2.37-.23,3.55-.37S218.75,410.57,218.66,410.38Z"/><rect class="cls-18" x="220.57" y="415.7" width="81.89" height="3.67"/><polygon class="cls-15" points="302.45 415.7 302.45 419.37 246.79 419.37 249.6 415.7 302.45 415.7"/><polygon class="cls-15" points="258.05 419.37 329.72 419.37 340.09 368.81 268.42 368.81 258.05 419.37"/><polygon class="cls-18" points="261.4 419.37 333.07 419.37 343.44 368.81 271.77 368.81 261.4 419.37"/><path class="cls-4" d="M308.88,392.21a5,5,0,0,1-3.57,5.1c-2.05.42-3.77-1.17-3.84-3.56s1.52-4.67,3.57-5.09S308.81,389.82,308.88,392.21Z"/></g></svg>